<svg width="496" height="257" viewBox="0 0 496 257" fill="none" xmlns="http://www.w3.org/2000/svg">
<path d="M442.872 94.8745L397.517 112.929L437.658 87.6834C431.134 79.1184 423.805 71.0066 415.741 63.4258L219.043 104.547L396.717 47.5407C388.598 41.5155 379.976 35.9878 370.916 31L71.1949 71.6058C39.3721 105.077 22.0245 146.653 22 189.51H473.162C473.144 156.272 462.695 123.628 442.872 94.8745Z" fill="#D7F2AA"/>
<path d="M346.124 19.0931C315.383 6.49006 281.622 -0.0405193 247.42 0.000189153C177.811 0.000189153 115.576 26.5322 74.2393 68.2194C145.024 55.1824 268.266 32.6145 346.124 19.0931Z" fill="#D7F2AA"/>
<ellipse rx="244.862" ry="48.7192" transform="matrix(0.998584 0.0531999 -0.0510546 0.998696 247.232 187.247)" fill="#B6CD91"/>
<ellipse rx="244.862" ry="60.7702" transform="matrix(0.998584 0.0531999 -0.0510546 0.998696 247.617 183.718)" fill="#B6CD91"/>
<path d="M180.331 76.5228C180.822 71.2259 182.181 66.0457 184.351 61.1891C184.956 59.8376 185.622 58.5158 186.349 57.2238C186.385 57.1562 186.394 57.0771 186.373 57.0032C186.352 56.9293 186.304 56.8663 186.237 56.8276C186.171 56.7888 186.092 56.7774 186.018 56.7955C185.943 56.8137 185.879 56.8602 185.838 56.9251C183.195 61.631 181.343 66.7393 180.357 72.0458C180.083 73.5277 179.877 75.02 179.739 76.5228C179.704 76.9018 180.296 76.8994 180.331 76.5228Z" fill="#666666"/>
<path d="M187.747 57.4957C189.817 57.4957 191.495 55.8177 191.495 53.7479C191.495 51.678 189.817 50 187.747 50C185.678 50 184 51.678 184 53.7479C184 55.8177 185.678 57.4957 187.747 57.4957Z" fill="#95B464"/>
<path d="M180.714 76.6218C181.033 73.1855 181.914 69.8249 183.322 66.6742C183.715 65.7974 184.147 64.9398 184.618 64.1016C184.642 64.0578 184.647 64.0065 184.634 63.9586C184.621 63.9106 184.589 63.8698 184.546 63.8446C184.503 63.8195 184.452 63.812 184.404 63.8238C184.355 63.8356 184.313 63.8658 184.287 63.9079C182.572 66.9608 181.371 70.2748 180.731 73.7174C180.553 74.6787 180.42 75.6469 180.33 76.6218C180.307 76.8677 180.691 76.8662 180.714 76.6218Z" fill="#666666"/>
<path d="M185.547 64.7183C186.89 64.7183 187.979 63.6297 187.979 62.2869C187.979 60.944 186.89 59.8555 185.547 59.8555C184.205 59.8555 183.116 60.944 183.116 62.2869C183.116 63.6297 184.205 64.7183 185.547 64.7183Z" fill="#95B464"/>
<path d="M180.003 76.4335C178.141 73.5278 176.769 70.336 175.942 66.9855C175.712 66.0528 175.525 65.1109 175.381 64.16C175.373 64.1109 175.346 64.067 175.306 64.0374C175.266 64.0079 175.216 63.9951 175.167 64.0017C175.117 64.0083 175.072 64.0339 175.041 64.073C175.011 64.112 174.996 64.1616 175.001 64.2111C175.527 67.6729 176.618 71.0248 178.23 74.1327C178.681 75.0002 179.171 75.8458 179.7 76.6696C179.834 76.8775 180.135 76.6401 180.003 76.4335Z" fill="#666666"/>
<path d="M175.224 64.5474C176.567 64.5474 177.655 63.4588 177.655 62.116C177.655 60.7731 176.567 59.6846 175.224 59.6846C173.881 59.6846 172.793 60.7731 172.793 62.116C172.793 63.4588 173.881 64.5474 175.224 64.5474Z" fill="#95B464"/>
<path d="M173 78.5686V73.7914C173.001 73.3165 173.189 72.8611 173.525 72.5253C173.861 72.1894 174.316 72.0005 174.791 72H185.937C186.412 72.0005 186.867 72.1894 187.203 72.5253C187.539 72.8611 187.728 73.3165 187.728 73.7914V78.5686C187.728 79.0436 187.539 79.4989 187.203 79.8348C186.867 80.1706 186.412 80.3595 185.937 80.3601H174.791C174.316 80.3595 173.861 80.1706 173.525 79.8348C173.189 79.4989 173.001 79.0436 173 78.5686Z" fill="#E0E0E0"/>
<path d="M185.304 48.0897H180.528C180.053 48.0892 179.597 47.9003 179.262 47.5644C178.926 47.2286 178.737 46.7732 178.736 46.2983V26.7914C178.737 26.3165 178.926 25.8611 179.262 25.5253C179.597 25.1894 180.053 25.0005 180.528 25H185.304C185.779 25.0005 186.235 25.1894 186.57 25.5253C186.906 25.8611 187.095 26.3165 187.096 26.7914V46.2983C187.095 46.7732 186.906 47.2286 186.57 47.5644C186.235 47.9003 185.779 48.0892 185.304 48.0897Z" fill="#F2F2F2"/>
<path d="M186.897 28.7812H178.936V30.3736H186.897V28.7812Z" fill="#CCCCCC"/>
<path d="M186.897 41.123H178.936V42.7154H186.897V41.123Z" fill="#CCCCCC"/>
<path d="M197.247 48.0897H192.47C191.995 48.0892 191.54 47.9003 191.204 47.5644C190.868 47.2286 190.679 46.7732 190.679 46.2983V26.7914C190.679 26.3165 190.868 25.8611 191.204 25.5253C191.54 25.1894 191.995 25.0005 192.47 25H197.247C197.722 25.0005 198.177 25.1894 198.513 25.5253C198.849 25.8611 199.037 26.3165 199.038 26.7914V46.2983C199.037 46.7732 198.849 47.2286 198.513 47.5644C198.177 47.9003 197.722 48.0892 197.247 48.0897Z" fill="#F2F2F2"/>
<path d="M198.839 28.7812H190.878V30.3736H198.839V28.7812Z" fill="#CCCCCC"/>
<path d="M198.839 41.123H190.878V42.7154H198.839V41.123Z" fill="#CCCCCC"/>
<path d="M209.189 48.0897H204.412C203.937 48.0892 203.482 47.9003 203.146 47.5644C202.811 47.2286 202.622 46.7732 202.621 46.2983V26.7914C202.622 26.3165 202.811 25.8611 203.146 25.5253C203.482 25.1894 203.937 25.0005 204.412 25H209.189C209.664 25.0005 210.119 25.1894 210.455 25.5253C210.791 25.8611 210.98 26.3165 210.98 26.7914V46.2983C210.98 46.7732 210.791 47.2286 210.455 47.5644C210.119 47.9003 209.664 48.0892 209.189 48.0897Z" fill="#F2F2F2"/>
<path d="M210.781 28.7812H202.82V30.3736H210.781V28.7812Z" fill="#CCCCCC"/>
<path d="M210.781 41.123H202.82V42.7154H210.781V41.123Z" fill="#CCCCCC"/>
<path d="M215.568 80.0897H210.791C210.316 80.0892 209.861 79.9003 209.525 79.5644C209.189 79.2286 209.001 78.7732 209 78.2983V58.7914C209.001 58.3165 209.189 57.8611 209.525 57.5253C209.861 57.1894 210.316 57.0005 210.791 57H215.568C216.043 57.0005 216.498 57.1894 216.834 57.5253C217.17 57.8611 217.359 58.3165 217.359 58.7914V78.2983C217.359 78.7732 217.17 79.2286 216.834 79.5644C216.498 79.9003 216.043 80.0892 215.568 80.0897Z" fill="#F2F2F2"/>
<path d="M217.151 61.0283H209.189V62.6207H217.151V61.0283Z" fill="#CCCCCC"/>
<path d="M217.151 73.3691H209.189V74.9615H217.151V73.3691Z" fill="#CCCCCC"/>
<path d="M227.501 80.3358H222.724C222.249 80.3353 221.794 80.1464 221.458 79.8105C221.122 79.4747 220.933 79.0193 220.933 78.5444V59.0375C220.933 58.5626 221.122 58.1072 221.458 57.7714C221.794 57.4355 222.249 57.2466 222.724 57.2461H227.501C227.976 57.2466 228.431 57.4355 228.767 57.7714C229.102 58.1072 229.291 58.5626 229.292 59.0375V78.5444C229.291 79.0193 229.102 79.4747 228.767 79.8105C228.431 80.1464 227.976 80.3353 227.501 80.3358Z" fill="#F2F2F2"/>
<path d="M229.091 61.0283H221.13V62.6207H229.091V61.0283Z" fill="#CCCCCC"/>
<path d="M229.091 73.3691H221.13V74.9615H229.091V73.3691Z" fill="#CCCCCC"/>
<path d="M239.441 80.3358H234.664C234.189 80.3353 233.734 80.1464 233.398 79.8105C233.062 79.4747 232.874 79.0193 232.873 78.5444V59.0375C232.874 58.5626 233.062 58.1072 233.398 57.7714C233.734 57.4355 234.189 57.2466 234.664 57.2461H239.441C239.916 57.2466 240.371 57.4355 240.707 57.7714C241.043 58.1072 241.232 58.5626 241.232 59.0375V78.5444C241.232 79.0193 241.043 79.4747 240.707 79.8105C240.371 80.1464 239.916 80.3353 239.441 80.3358Z" fill="#F2F2F2"/>
<path d="M241.032 61.0283H233.071V62.6207H241.032V61.0283Z" fill="#CCCCCC"/>
<path d="M241.032 73.3691H233.071V74.9615H241.032V73.3691Z" fill="#CCCCCC"/>
<path d="M184.111 112.582H179.334C178.859 112.581 178.404 112.392 178.068 112.057C177.732 111.721 177.544 111.265 177.543 110.79V91.2836C177.544 90.8087 177.732 90.3533 178.068 90.0175C178.404 89.6816 178.859 89.4927 179.334 89.4922H184.111C184.586 89.4927 185.041 89.6816 185.377 90.0175C185.713 90.3533 185.902 90.8087 185.902 91.2836V110.79C185.902 111.265 185.713 111.721 185.377 112.057C185.041 112.392 184.586 112.581 184.111 112.582Z" fill="#F2F2F2"/>
<path d="M185.702 93.2744H177.741V94.8668H185.702V93.2744Z" fill="#CCCCCC"/>
<path d="M185.702 105.615H177.741V107.208H185.702V105.615Z" fill="#CCCCCC"/>
<path d="M196.052 112.582H191.276C190.801 112.581 190.345 112.392 190.01 112.057C189.674 111.721 189.485 111.265 189.484 110.79V91.2836C189.485 90.8087 189.674 90.3533 190.01 90.0175C190.345 89.6816 190.801 89.4927 191.276 89.4922H196.052C196.527 89.4927 196.983 89.6816 197.318 90.0175C197.654 90.3533 197.843 90.8087 197.844 91.2836V110.79C197.843 111.265 197.654 111.721 197.318 112.057C196.983 112.392 196.527 112.581 196.052 112.582Z" fill="#F2F2F2"/>
<path d="M197.646 93.2744H189.685V94.8668H197.646V93.2744Z" fill="#CCCCCC"/>
<path d="M197.646 105.615H189.685V107.208H197.646V105.615Z" fill="#CCCCCC"/>
<path d="M207.995 112.582H203.218C202.743 112.581 202.288 112.392 201.952 112.057C201.616 111.721 201.427 111.265 201.427 110.79V91.2836C201.427 90.8087 201.616 90.3533 201.952 90.0175C202.288 89.6816 202.743 89.4927 203.218 89.4922H207.995C208.47 89.4927 208.925 89.6816 209.261 90.0175C209.597 90.3533 209.785 90.8087 209.786 91.2836V110.79C209.785 111.265 209.597 111.721 209.261 112.057C208.925 112.392 208.47 112.581 207.995 112.582Z" fill="#F2F2F2"/>
<path d="M209.587 93.2744H201.626V94.8668H209.587V93.2744Z" fill="#CCCCCC"/>
<path d="M209.587 105.615H201.626V107.208H209.587V105.615Z" fill="#CCCCCC"/>
<path d="M221.131 48.0897H216.355C215.88 48.0892 215.425 47.9003 215.089 47.5644C214.753 47.2286 214.564 46.7732 214.563 46.2983V26.7914C214.564 26.3165 214.753 25.8611 215.089 25.5253C215.425 25.1894 215.88 25.0005 216.355 25H221.131C221.606 25.0005 222.062 25.1894 222.397 25.5253C222.733 25.8611 222.922 26.3165 222.923 26.7914V46.2983C222.922 46.7732 222.733 47.2286 222.397 47.5644C222.062 47.9003 221.606 48.0892 221.131 48.0897Z" fill="#F2F2F2"/>
<path d="M222.723 28.7812H214.762V30.3736H222.723V28.7812Z" fill="#CCCCCC"/>
<path d="M222.723 41.123H214.762V42.7154H222.723V41.123Z" fill="#CCCCCC"/>
<path d="M233.072 48.0897H228.295C227.82 48.0892 227.365 47.9003 227.029 47.5644C226.693 47.2286 226.504 46.7732 226.504 46.2983V26.7914C226.504 26.3165 226.693 25.8611 227.029 25.5253C227.365 25.1894 227.82 25.0005 228.295 25H233.072C233.547 25.0005 234.002 25.1894 234.338 25.5253C234.674 25.8611 234.863 26.3165 234.863 26.7914V46.2983C234.863 46.7732 234.674 47.2286 234.338 47.5644C234.002 47.9003 233.547 48.0892 233.072 48.0897Z" fill="#F2F2F2"/>
<path d="M234.663 28.7812H226.702V30.3736H234.663V28.7812Z" fill="#CCCCCC"/>
<path d="M234.663 41.123H226.702V42.7154H234.663V41.123Z" fill="#CCCCCC"/>
<path d="M245.013 48.0897H240.237C239.762 48.0892 239.306 47.9003 238.971 47.5644C238.635 47.2286 238.446 46.7732 238.445 46.2983V26.7914C238.446 26.3165 238.635 25.8611 238.971 25.5253C239.306 25.1894 239.762 25.0005 240.237 25H245.013C245.488 25.0005 245.944 25.1894 246.279 25.5253C246.615 25.8611 246.804 26.3165 246.805 26.7914V46.2983C246.804 46.7732 246.615 47.2286 246.279 47.5644C245.944 47.9003 245.488 48.0892 245.013 48.0897Z" fill="#F2F2F2"/>
<path d="M246.607 28.7812H238.646V30.3736H246.607V28.7812Z" fill="#CCCCCC"/>
<path d="M246.607 41.123H238.646V42.7154H246.607V41.123Z" fill="#CCCCCC"/>
<path d="M256.957 48.0897H252.18C251.705 48.0892 251.25 47.9003 250.914 47.5644C250.578 47.2286 250.389 46.7732 250.389 46.2983V26.7914C250.389 26.3165 250.578 25.8611 250.914 25.5253C251.25 25.1894 251.705 25.0005 252.18 25H256.957C257.432 25.0005 257.887 25.1894 258.223 25.5253C258.558 25.8611 258.747 26.3165 258.748 26.7914V46.2983C258.747 46.7732 258.558 47.2286 258.223 47.5644C257.887 47.9003 257.432 48.0892 256.957 48.0897Z" fill="#F2F2F2"/>
<path d="M258.548 28.7812H250.587V30.3736H258.548V28.7812Z" fill="#CCCCCC"/>
<path d="M258.548 41.123H250.587V42.7154H258.548V41.123Z" fill="#CCCCCC"/>
<path d="M274.845 48.6868H161.398C161.292 48.6868 161.191 48.6449 161.117 48.5702C161.042 48.4956 161 48.3943 161 48.2887C161 48.1831 161.042 48.0819 161.117 48.0072C161.191 47.9326 161.292 47.8906 161.398 47.8906H274.845C274.95 47.8906 275.052 47.9326 275.126 48.0072C275.201 48.0819 275.243 48.1831 275.243 48.2887C275.243 48.3943 275.201 48.4956 275.126 48.5702C275.052 48.6449 274.95 48.6868 274.845 48.6868Z" fill="#666666"/>
<path d="M274.845 80.9329H161.398C161.292 80.9329 161.191 80.891 161.117 80.8163C161.042 80.7417 161 80.6404 161 80.5348C161 80.4292 161.042 80.328 161.117 80.2533C161.191 80.1787 161.292 80.1367 161.398 80.1367H274.845C274.95 80.1367 275.052 80.1787 275.126 80.2533C275.201 80.328 275.243 80.4292 275.243 80.5348C275.243 80.6404 275.201 80.7417 275.126 80.8163C275.052 80.891 274.95 80.9329 274.845 80.9329Z" fill="#666666"/>
<path d="M274.845 113.179H161.398C161.292 113.179 161.191 113.137 161.117 113.062C161.042 112.988 161 112.886 161 112.781C161 112.675 161.042 112.574 161.117 112.499C161.191 112.425 161.292 112.383 161.398 112.383H274.845C274.95 112.383 275.052 112.425 275.126 112.499C275.201 112.574 275.243 112.675 275.243 112.781C275.243 112.886 275.201 112.988 275.126 113.062C275.052 113.137 274.95 113.179 274.845 113.179Z" fill="#666666"/>
<path d="M191.498 156.973C191.99 151.676 193.349 146.496 195.519 141.639C196.124 140.288 196.79 138.966 197.517 137.674C197.553 137.606 197.562 137.527 197.541 137.453C197.52 137.379 197.472 137.317 197.405 137.278C197.339 137.239 197.26 137.228 197.186 137.246C197.111 137.264 197.047 137.31 197.006 137.375C194.363 142.081 192.511 147.19 191.525 152.496C191.251 153.978 191.045 155.47 190.907 156.973C190.872 157.352 191.464 157.35 191.498 156.973Z" fill="#3F3D56"/>
<path d="M198.95 138.623C201.019 138.623 202.697 136.945 202.697 134.875C202.697 132.805 201.019 131.127 198.95 131.127C196.88 131.127 195.202 132.805 195.202 134.875C195.202 136.945 196.88 138.623 198.95 138.623Z" fill="#95B464"/>
<path d="M191.882 157.072C192.201 153.636 193.082 150.275 194.49 147.124C194.883 146.248 195.315 145.39 195.786 144.552C195.81 144.508 195.815 144.457 195.802 144.409C195.789 144.361 195.757 144.32 195.714 144.295C195.671 144.27 195.62 144.262 195.572 144.274C195.523 144.286 195.481 144.316 195.455 144.358C193.74 147.411 192.539 150.725 191.899 154.168C191.721 155.129 191.588 156.097 191.498 157.072C191.475 157.318 191.859 157.316 191.882 157.072Z" fill="#3F3D56"/>
<path d="M196.715 145.168C198.058 145.168 199.147 144.079 199.147 142.736C199.147 141.393 198.058 140.305 196.715 140.305C195.373 140.305 194.284 141.393 194.284 142.736C194.284 144.079 195.373 145.168 196.715 145.168Z" fill="#95B464"/>
<path d="M191.397 156.843C189.536 153.937 188.164 150.745 187.336 147.395C187.107 146.462 186.92 145.52 186.776 144.569C186.768 144.52 186.741 144.476 186.701 144.447C186.66 144.417 186.61 144.404 186.561 144.411C186.512 144.418 186.467 144.443 186.436 144.482C186.405 144.521 186.391 144.571 186.395 144.62C186.921 148.082 188.012 151.434 189.625 154.542C190.076 155.409 190.566 156.255 191.095 157.079C191.228 157.287 191.53 157.049 191.397 156.843Z" fill="#3F3D56"/>
<path d="M186.392 144.998C187.735 144.998 188.823 143.909 188.823 142.566C188.823 141.223 187.735 140.135 186.392 140.135C185.049 140.135 183.961 141.223 183.961 142.566C183.961 143.909 185.049 144.998 186.392 144.998Z" fill="#95B464"/>
<path d="M183.934 158.994V154.217C183.934 153.742 184.123 153.287 184.459 152.951C184.795 152.615 185.25 152.426 185.725 152.426H196.871C197.345 152.426 197.801 152.615 198.137 152.951C198.472 153.287 198.661 153.742 198.662 154.217V158.994C198.661 159.469 198.472 159.925 198.137 160.261C197.801 160.596 197.345 160.785 196.871 160.786H185.725C185.25 160.785 184.795 160.596 184.459 160.261C184.123 159.925 183.934 159.469 183.934 158.994Z" fill="#E0E0E0"/>
<path d="M264.109 186.674C264.109 183.596 252.525 181.101 238.235 181.101C223.945 181.101 212.361 183.596 212.361 186.674C212.361 188.647 217.124 190.379 224.303 191.369V221.906C224.303 222.592 224.576 223.25 225.061 223.735C225.546 224.221 226.204 224.493 226.89 224.493C227.577 224.493 228.235 224.221 228.72 223.735C229.205 223.25 229.478 222.592 229.478 221.906V191.919C232.213 192.131 235.161 192.247 238.235 192.247C241.309 192.247 244.257 192.131 246.992 191.919V221.906C246.992 222.592 247.265 223.25 247.75 223.735C248.236 224.221 248.894 224.493 249.58 224.493C250.266 224.493 250.924 224.221 251.409 223.735C251.895 223.25 252.167 222.592 252.167 221.906V191.369C259.346 190.379 264.109 188.647 264.109 186.674Z" fill="#666666"/>
<path d="M258.635 219.446H263.515L265.836 200.621H258.634L258.635 219.446Z" fill="#FFB774"/>
<path d="M273.424 224.018L258.086 224.018L258.086 218.092L267.498 218.091C269.069 218.091 270.577 218.716 271.688 219.827C272.799 220.938 273.424 222.446 273.424 224.018L273.424 224.018Z" fill="black"/>
<path d="M266.724 216.818L271.38 215.356L267.96 196.699L261.088 198.856L266.724 216.818Z" fill="#FFB774"/>
<path d="M281.742 216.807L267.108 221.399L265.334 215.745L274.314 212.927C275.813 212.456 277.438 212.6 278.832 213.328C280.225 214.056 281.272 215.307 281.742 216.807Z" fill="black"/>
<path d="M263.484 208.098L254.557 184.661C252.554 185.132 235.758 188.849 230.133 182.859C228.205 180.805 227.829 177.831 229.015 174.018L232.298 169.892L232.4 169.897C233.641 169.962 262.826 171.598 264.826 180.402C266.513 187.825 269.594 201.663 270.498 205.727C270.589 206.149 270.527 206.589 270.321 206.967C270.115 207.346 269.781 207.638 269.378 207.791L265.787 209.137C265.587 209.213 265.375 209.251 265.162 209.251C264.798 209.251 264.443 209.141 264.144 208.935C263.844 208.729 263.615 208.437 263.484 208.098Z" fill="black"/>
<path d="M258.31 210.885L249.382 187.448C247.379 187.919 230.583 191.635 224.958 185.646C223.03 183.593 222.654 180.618 223.84 176.805L227.123 172.679L227.225 172.684C228.467 172.749 257.651 174.385 259.652 183.189C261.338 190.612 264.419 204.45 265.323 208.515C265.415 208.936 265.352 209.376 265.146 209.755C264.941 210.133 264.606 210.426 264.203 210.578L260.613 211.924C260.413 212 260.201 212.038 259.987 212.038C259.623 212.038 259.269 211.928 258.969 211.722C258.67 211.516 258.44 211.224 258.31 210.885Z" fill="black"/>
<path d="M270.349 154.758C270.218 154.935 270.1 155.121 269.997 155.316L250.365 157.385L247.539 153.51L241.134 157.011L246.684 166.414L270.762 160.275C271.37 160.867 272.143 161.26 272.979 161.402C273.816 161.544 274.676 161.428 275.444 161.07C276.213 160.711 276.855 160.127 277.284 159.395C277.712 158.663 277.908 157.817 277.845 156.971C277.782 156.125 277.462 155.318 276.929 154.658C276.396 153.998 275.675 153.516 274.861 153.275C274.048 153.035 273.18 153.048 272.374 153.313C271.568 153.578 270.862 154.082 270.349 154.758V154.758Z" fill="#FFB774"/>
<path d="M223.713 178.042C223.444 177.849 223.234 177.584 223.107 177.279C222.979 176.973 222.938 176.638 222.989 176.311C224.097 169.009 222.822 158.548 221.558 151.059C221.299 149.539 221.4 147.98 221.852 146.506C222.304 145.032 223.095 143.685 224.161 142.572C225.228 141.459 226.54 140.611 227.993 140.097C229.446 139.582 230.999 139.415 232.528 139.609C233.859 139.784 235.177 140.044 236.474 140.386C238.63 140.929 240.536 142.189 241.88 143.96C243.225 145.73 243.927 147.905 243.871 150.127C243.682 157.354 245.149 166.372 245.789 169.913C245.833 170.156 245.826 170.406 245.769 170.646C245.711 170.887 245.605 171.113 245.457 171.311C245.312 171.506 245.127 171.669 244.915 171.789C244.702 171.909 244.467 171.983 244.225 172.007C237.136 172.731 229.492 176.188 225.566 178.184C225.314 178.315 225.034 178.383 224.75 178.384C224.377 178.383 224.014 178.263 223.713 178.042Z" fill="#D7F2AA"/>
<path d="M242.848 159.207C242.629 159.121 242.429 158.993 242.26 158.829C242.091 158.665 241.957 158.469 241.864 158.253L237.91 149.12C237.671 148.568 237.543 147.974 237.533 147.373C237.523 146.771 237.632 146.174 237.853 145.615C238.074 145.055 238.403 144.545 238.822 144.113C239.24 143.681 239.74 143.335 240.292 143.096C240.843 142.857 241.437 142.73 242.039 142.72C242.64 142.711 243.237 142.82 243.796 143.042C244.356 143.263 244.866 143.593 245.297 144.012C245.729 144.431 246.074 144.931 246.312 145.483L250.266 154.616C250.454 155.052 250.461 155.545 250.286 155.987C250.112 156.428 249.769 156.782 249.333 156.972L244.219 159.186C244.003 159.28 243.771 159.33 243.536 159.334C243.301 159.338 243.067 159.295 242.848 159.207H242.848Z" fill="#D7F2AA"/>
<path d="M251.64 153.962C251.509 154.139 251.391 154.325 251.288 154.52L231.656 156.589L228.83 152.714L222.425 156.215L227.976 165.618L252.053 159.479C252.661 160.071 253.434 160.464 254.27 160.606C255.107 160.748 255.967 160.632 256.735 160.274C257.504 159.915 258.146 159.331 258.575 158.599C259.003 157.867 259.199 157.021 259.136 156.175C259.073 155.329 258.753 154.522 258.22 153.862C257.687 153.202 256.966 152.72 256.153 152.48C255.339 152.239 254.471 152.253 253.665 152.517C252.859 152.782 252.153 153.286 251.64 153.962V153.962Z" fill="#FFB774"/>
<path d="M224.14 159.605C223.921 159.519 223.721 159.39 223.552 159.226C223.383 159.063 223.249 158.867 223.156 158.651L219.202 149.517C218.963 148.965 218.835 148.372 218.825 147.77C218.815 147.169 218.924 146.571 219.145 146.012C219.366 145.453 219.695 144.942 220.114 144.51C220.532 144.078 221.032 143.733 221.584 143.494C222.135 143.255 222.729 143.127 223.331 143.118C223.932 143.108 224.529 143.218 225.088 143.439C225.648 143.661 226.158 143.991 226.589 144.409C227.021 144.828 227.366 145.328 227.604 145.88L231.558 155.014C231.746 155.45 231.753 155.943 231.578 156.384C231.404 156.826 231.061 157.18 230.625 157.369L225.511 159.583C225.295 159.677 225.063 159.728 224.828 159.731C224.593 159.735 224.359 159.692 224.14 159.605H224.14Z" fill="#D7F2AA"/>
<path d="M231.777 136.555C237.176 136.555 241.553 132.178 241.553 126.778C241.553 121.378 237.176 117 231.777 117C226.377 117 222 121.378 222 126.778C222 132.178 226.377 136.555 231.777 136.555Z" fill="#FFB774"/>
<path d="M224.812 133.434C224.77 133.311 224.756 133.181 224.773 133.052C224.789 132.923 224.835 132.8 224.906 132.692C224.977 132.583 225.072 132.493 225.184 132.427C225.296 132.361 225.421 132.322 225.55 132.312C225.815 132.326 226.074 132.394 226.312 132.512C226.55 132.629 226.762 132.793 226.934 132.995C227.288 133.403 227.7 133.756 228.157 134.044C228.63 134.283 229.271 134.249 229.541 133.794C229.794 133.367 229.62 132.796 229.467 132.3C229.077 131.039 228.859 129.73 228.818 128.411C228.774 126.938 228.982 125.4 229.797 124.251C230.85 122.768 232.732 122.206 234.513 122.246C236.293 122.287 238.046 122.837 239.81 123.185C240.419 123.304 241.134 123.366 241.542 122.894C241.975 122.392 241.816 121.58 241.632 120.902C241.154 119.143 240.646 117.325 239.536 115.905C238.335 114.429 236.619 113.463 234.735 113.202C232.926 112.978 231.089 113.186 229.376 113.81C226.585 114.69 224.129 116.401 222.337 118.714C220.49 121.174 219.691 124.266 220.117 127.313C220.532 129.967 221.939 132.365 224.052 134.023L224.812 133.434Z" fill="black"/>
<path d="M279.833 157.612H248.386C247.617 157.612 246.993 158.236 246.993 159.006C246.993 159.775 247.617 160.399 248.386 160.399H279.833C280.602 160.399 281.226 159.775 281.226 159.006C281.226 158.236 280.602 157.612 279.833 157.612Z" fill="#E0E0E0"/>
<path d="M300.931 160.399H265.503C264.817 160.398 264.16 160.125 263.675 159.64C263.19 159.155 262.917 158.497 262.916 157.811V138.304C262.917 137.618 263.19 136.961 263.675 136.476C264.16 135.99 264.817 135.718 265.503 135.717H300.931C301.617 135.718 302.274 135.99 302.759 136.476C303.244 136.961 303.517 137.618 303.518 138.304V157.811C303.517 158.497 303.244 159.155 302.759 159.64C302.274 160.125 301.617 160.398 300.931 160.399Z" fill="#E0E0E0"/>
<path d="M283.216 150.447C284.536 150.447 285.605 149.378 285.605 148.059C285.605 146.739 284.536 145.67 283.216 145.67C281.897 145.67 280.828 146.739 280.828 148.059C280.828 149.378 281.897 150.447 283.216 150.447Z" fill="white"/>
<path d="M332.413 160.001H173.986C173.3 160.001 172.641 160.274 172.156 160.759C171.671 161.244 171.398 161.902 171.398 162.589C171.398 163.275 171.671 163.933 172.156 164.418C172.641 164.904 173.3 165.176 173.986 165.176H178.563V221.507C178.563 222.193 178.836 222.852 179.321 223.337C179.807 223.822 180.465 224.095 181.151 224.095C181.837 224.095 182.495 223.822 182.98 223.337C183.466 222.852 183.738 222.193 183.738 221.507V170.149L212.745 222.729C213.089 223.321 213.654 223.754 214.316 223.93C214.978 224.107 215.684 224.014 216.277 223.671C216.871 223.328 217.304 222.764 217.482 222.102C217.66 221.441 217.568 220.735 217.227 220.141L186.904 165.176H325.447V165.21L295.143 220.141C294.8 220.735 294.707 221.441 294.885 222.104C295.063 222.767 295.496 223.332 296.09 223.676C296.685 224.019 297.391 224.112 298.054 223.934C298.716 223.757 299.282 223.323 299.625 222.729L325.447 175.921V221.507C325.447 222.193 325.72 222.852 326.205 223.337C326.69 223.822 327.348 224.095 328.035 224.095C328.721 224.095 329.379 223.822 329.864 223.337C330.349 222.852 330.622 222.193 330.622 221.507V166.541L331.375 165.176H332.413C333.099 165.176 333.758 164.904 334.243 164.418C334.728 163.933 335.001 163.275 335.001 162.589C335.001 161.902 334.728 161.244 334.243 160.759C333.758 160.274 333.099 160.001 332.413 160.001Z" fill="#666666"/>
<path d="M313.115 139.722C312.722 140.148 312.418 140.648 312.221 141.194C312.024 141.739 311.938 142.319 311.968 142.898C311.973 142.984 311.945 143.069 311.89 143.135C311.834 143.201 311.756 143.244 311.67 143.254L311.15 143.319C311.103 143.325 311.056 143.321 311.011 143.308C310.966 143.294 310.925 143.272 310.889 143.242C310.853 143.212 310.823 143.175 310.802 143.133C310.781 143.091 310.769 143.046 310.766 142.999C310.683 141.572 311.152 140.167 312.076 139.077C313 137.987 314.308 137.294 315.728 137.143C315.775 137.138 315.822 137.143 315.866 137.157C315.911 137.171 315.953 137.194 315.988 137.225C316.023 137.255 316.052 137.293 316.073 137.335C316.093 137.377 316.105 137.423 316.107 137.47L316.128 137.993C316.132 138.079 316.103 138.163 316.047 138.229C315.991 138.294 315.913 138.336 315.827 138.346C314.787 138.462 313.824 138.951 313.115 139.722Z" fill="#D7F2AA"/>
<path d="M313.608 140.176C314.304 139.419 315.246 138.934 316.266 138.807C316.313 138.801 316.361 138.805 316.406 138.819C316.451 138.832 316.493 138.855 316.529 138.886C316.565 138.916 316.594 138.954 316.615 138.997C316.635 139.039 316.647 139.085 316.649 139.132L316.665 139.523C316.668 139.608 316.64 139.691 316.585 139.757C316.531 139.822 316.454 139.864 316.37 139.875C315.567 139.984 314.832 140.386 314.308 141.005C313.783 141.623 313.506 142.414 313.529 143.225C313.532 143.31 313.503 143.393 313.448 143.458C313.393 143.523 313.315 143.565 313.231 143.576L312.843 143.624C312.796 143.63 312.749 143.626 312.704 143.613C312.659 143.599 312.617 143.577 312.581 143.546C312.545 143.516 312.515 143.478 312.494 143.436C312.474 143.394 312.462 143.348 312.46 143.301C312.436 142.73 312.526 142.16 312.723 141.624C312.92 141.088 313.221 140.596 313.608 140.176Z" fill="#D7F2AA"/>
<path d="M315.529 141.951C315.12 142.394 314.892 142.975 314.891 143.578C314.892 143.663 314.862 143.744 314.806 143.808C314.751 143.871 314.675 143.912 314.591 143.923L314.404 143.946C314.356 143.952 314.307 143.948 314.261 143.933C314.214 143.919 314.172 143.895 314.135 143.863C314.099 143.831 314.07 143.791 314.05 143.747C314.03 143.703 314.02 143.655 314.02 143.607C314.015 142.819 314.292 142.057 314.802 141.457C315.311 140.857 316.019 140.461 316.796 140.34C316.844 140.333 316.892 140.336 316.938 140.35C316.983 140.363 317.026 140.385 317.063 140.416C317.099 140.447 317.129 140.485 317.15 140.527C317.171 140.57 317.182 140.617 317.184 140.665L317.192 140.854C317.195 140.939 317.166 141.021 317.113 141.086C317.059 141.151 316.984 141.193 316.9 141.206C316.373 141.295 315.891 141.557 315.529 141.951Z" fill="#D7F2AA"/>
<path d="M329.884 139.722C330.277 140.148 330.581 140.648 330.778 141.194C330.975 141.739 331.061 142.319 331.031 142.898C331.026 142.984 331.054 143.069 331.11 143.135C331.165 143.201 331.243 143.244 331.329 143.254L331.849 143.319C331.896 143.325 331.943 143.321 331.988 143.308C332.033 143.294 332.074 143.272 332.11 143.242C332.146 143.212 332.176 143.175 332.197 143.133C332.218 143.091 332.23 143.046 332.233 142.999C332.316 141.572 331.847 140.167 330.923 139.077C329.999 137.987 328.691 137.294 327.271 137.143C327.224 137.138 327.177 137.143 327.133 137.157C327.088 137.171 327.047 137.194 327.011 137.225C326.976 137.255 326.947 137.293 326.926 137.335C326.906 137.377 326.894 137.423 326.892 137.47L326.871 137.993C326.868 138.079 326.896 138.163 326.952 138.229C327.008 138.294 327.086 138.336 327.172 138.346C328.212 138.462 329.175 138.951 329.884 139.722Z" fill="#D7F2AA"/>
<path d="M329.39 140.177C328.694 139.42 327.752 138.935 326.732 138.808C326.685 138.802 326.637 138.806 326.592 138.82C326.547 138.833 326.505 138.856 326.469 138.887C326.433 138.917 326.404 138.955 326.383 138.997C326.363 139.04 326.351 139.086 326.349 139.133L326.333 139.524C326.33 139.609 326.358 139.692 326.413 139.757C326.467 139.823 326.544 139.865 326.628 139.876C327.431 139.985 328.166 140.387 328.69 141.006C329.215 141.624 329.492 142.415 329.469 143.226C329.466 143.311 329.495 143.394 329.55 143.459C329.605 143.524 329.683 143.566 329.767 143.577L330.155 143.625C330.202 143.631 330.249 143.627 330.294 143.614C330.339 143.6 330.381 143.578 330.417 143.547C330.453 143.517 330.483 143.479 330.504 143.437C330.524 143.395 330.536 143.349 330.538 143.302C330.562 142.731 330.472 142.161 330.275 141.625C330.078 141.089 329.777 140.597 329.39 140.177Z" fill="#D7F2AA"/>
<path d="M327.469 141.951C327.878 142.394 328.106 142.975 328.107 143.578C328.106 143.663 328.137 143.744 328.192 143.808C328.247 143.871 328.323 143.912 328.407 143.923L328.594 143.946C328.642 143.952 328.691 143.948 328.737 143.933C328.784 143.919 328.826 143.895 328.863 143.863C328.899 143.831 328.928 143.791 328.948 143.747C328.968 143.703 328.978 143.655 328.978 143.607C328.983 142.819 328.706 142.057 328.196 141.457C327.687 140.857 326.979 140.461 326.202 140.34C326.154 140.333 326.106 140.336 326.06 140.35C326.015 140.363 325.972 140.385 325.936 140.416C325.899 140.447 325.869 140.485 325.848 140.527C325.827 140.57 325.816 140.617 325.814 140.665L325.806 140.854C325.803 140.939 325.832 141.021 325.885 141.086C325.939 141.151 326.014 141.193 326.098 141.206C326.625 141.295 327.108 141.557 327.469 141.951Z" fill="#D7F2AA"/>
<path d="M317.117 143.804C317.117 143.469 317.326 143.17 317.64 143.063C319.171 142.538 320.421 142.271 321.675 142.267C322.929 142.263 324.197 142.522 325.761 143.062C326.074 143.17 326.282 143.468 326.282 143.802V157.706C326.282 158.033 326.082 158.327 325.778 158.439C324.271 158.992 323.031 159.254 321.775 159.247C320.518 159.24 319.237 158.963 317.646 158.427C317.329 158.32 317.117 158.02 317.117 157.683V143.804Z" fill="url(#paint0_linear)" stroke="#666666" stroke-width="0.267914"/>
<circle cx="321.699" cy="150.723" r="2.57869" fill="#ABCC75" stroke="#666666" stroke-width="0.133957"/>
<rect x="321.9" y="149.413" width="0.714889" height="0.0701698" fill="white" stroke="black" stroke-width="0.00146564"/>
<rect x="321.9" y="149.413" width="0.714889" height="0.0701698" fill="white" stroke="black" stroke-width="0.00146564"/>
<rect x="320.99" y="151.233" width="0.888551" height="0.0831945" transform="rotate(-90 320.99 151.233)" fill="white" stroke="black" stroke-width="0.00146564"/>
<path fill-rule="evenodd" clip-rule="evenodd" d="M321.64 151.235L321.076 150.484V151.238H320.989V150.344H321.076V150.344L321.076 150.344L321.64 151.094V150.344H321.725V151.236H321.64V151.234L321.64 151.235Z" fill="white"/>
<path fill-rule="evenodd" clip-rule="evenodd" d="M321.074 150.478L321.64 151.232L321.643 151.23V151.234H321.723V150.346H321.643V151.101L321.076 150.347L321.074 150.348V150.346H320.991V151.236H321.074V150.478ZM321.076 151.238H320.989V150.344H321.076V150.344L321.076 150.344L321.64 151.094V150.344H321.725V151.236H321.64V151.234L321.64 151.235L321.076 150.484V151.238Z" fill="white"/>
<rect x="321.721" y="150.436" width="0.888551" height="0.0831945" transform="rotate(-90 321.721 150.436)" fill="white" stroke="black" stroke-width="0.00146564"/>
<path fill-rule="evenodd" clip-rule="evenodd" d="M321.257 151.625L321.162 151.889L320.892 151.143H320.802L320.856 151.294L320.857 151.294L321.125 152.035H321.199L321.207 152.014L321.207 152.013L321.374 151.551L321.439 151.73L321.551 152.035H321.623L321.631 152.013L321.631 152.013L321.945 151.143H321.855L321.586 151.889L321.434 151.469L321.375 151.307L321.257 151.625Z" fill="white"/>
<path fill-rule="evenodd" clip-rule="evenodd" d="M321.012 150.436H320.923V149.546H320.932H321.012H321.029V149.546L321.03 149.546L321.366 150.031L321.701 149.546L321.702 149.546V149.546H321.72H321.802H321.809V150.436H321.72V149.669L321.389 150.146L321.369 150.132L321.344 150.149L321.012 149.669V150.436Z" fill="white"/>
<path d="M321.365 150.181L321.274 150.044L321.456 150.044L321.365 150.181Z" fill="white"/>
<path fill-rule="evenodd" clip-rule="evenodd" d="M321.975 150.438L322.061 150.201H322.456L322.542 150.438H322.637L322.314 149.547L322.311 149.548V149.547H322.203L322.202 149.547L322.202 149.547H322.202V149.548L321.88 150.438H321.975ZM322.258 149.655L322.424 150.114H322.092L322.258 149.655Z" fill="white"/>
<path fill-rule="evenodd" clip-rule="evenodd" d="M321.974 151.239L322.06 151.001H322.455L322.541 151.239H322.636L322.313 150.348L322.31 150.349V150.348H322.202L322.201 150.348L322.201 150.348H322.201V150.348L321.879 151.239H321.974ZM322.257 150.455L322.423 150.915H322.091L322.257 150.455Z" fill="white"/>
<path fill-rule="evenodd" clip-rule="evenodd" d="M321.973 152.035L322.058 151.798H322.454L322.539 152.035H322.634L322.312 151.145L322.308 151.146V151.145H322.201L322.2 151.145L322.2 151.145H322.2V151.145L321.878 152.035H321.973ZM322.256 151.252L322.422 151.711H322.09L322.256 151.252Z" fill="white"/>
<circle cx="319.101" cy="156.313" r="0.214526" fill="#ABCC75" stroke="#666666" stroke-width="0.0310657"/>
<circle cx="320.389" cy="156.543" r="0.214526" fill="#ABCC75" stroke="#666666" stroke-width="0.0310657"/>
<circle cx="321.677" cy="156.681" r="0.214526" fill="#ABCC75" stroke="#666666" stroke-width="0.0310657"/>
<circle cx="322.966" cy="156.543" r="0.214526" fill="#ABCC75" stroke="#666666" stroke-width="0.0310657"/>
<circle cx="324.254" cy="156.313" r="0.214526" fill="#ABCC75" stroke="#666666" stroke-width="0.0310657"/>
<circle cx="319.101" cy="157.694" r="0.214526" fill="#ABCC75" stroke="#666666" stroke-width="0.0310657"/>
<circle cx="318.18" cy="157.143" r="0.214526" fill="#ABCC75" stroke="#666666" stroke-width="0.0310657"/>
<circle cx="320.389" cy="157.924" r="0.214526" fill="#ABCC75" stroke="#666666" stroke-width="0.0310657"/>
<circle cx="321.677" cy="158.063" r="0.214526" fill="#ABCC75" stroke="#666666" stroke-width="0.0310657"/>
<circle cx="322.966" cy="157.924" r="0.214526" fill="#ABCC75" stroke="#666666" stroke-width="0.0310657"/>
<circle cx="324.253" cy="157.694" r="0.214526" fill="#ABCC75" stroke="#666666" stroke-width="0.0310657"/>
<circle cx="325.172" cy="157.142" r="0.214526" fill="#ABCC75" stroke="#666666" stroke-width="0.0310657"/>
<defs>
<linearGradient id="paint0_linear" x1="321.7" y1="142.133" x2="321.7" y2="159.381" gradientUnits="userSpaceOnUse">
<stop stop-color="white"/>
<stop offset="1" stop-color="#E0E1E2"/>
</linearGradient>
</defs>
</svg>
