<svg width="502" height="243" viewBox="0 0 502 243" fill="none" xmlns="http://www.w3.org/2000/svg">
<path d="M449.587 80.6234L404.047 95.9499L444.352 74.5189C437.801 67.248 430.442 60.3619 422.345 53.9266L224.846 88.8345L403.244 40.4418C395.091 35.327 386.434 30.6345 377.338 26.4004L76.3953 60.8706C44.4429 89.2839 27.0246 124.578 27 160.959H480C479.982 132.744 469.491 105.032 449.587 80.6234Z" fill="#D7F2AA"/>
<path d="M352.445 16.2081C321.579 5.50941 287.681 -0.0343968 253.34 0.000160572C183.446 0.000160572 120.958 22.5231 79.4531 57.9114C150.526 46.8443 274.271 27.6864 352.445 16.2081Z" fill="#D7F2AA"/>
<ellipse cx="252.626" cy="169.506" rx="245.845" ry="59.7748" transform="rotate(2.9874 252.626 169.506)" fill="#B6CD91"/>
<g filter="url(#filter0_d)">
<path d="M359.611 196.076C359.611 191.84 363.045 188.407 367.281 188.407H424.925C429.161 188.407 432.595 191.84 432.595 196.076V202.212H359.611V196.076Z" fill="#E0E0E0" stroke="#666666" stroke-width="0.807347"/>
<path d="M71.8505 130.253L67.7578 119.056H218.893L214.956 130.259C214.561 131.383 213.843 132.366 212.892 133.084L190.33 150.116C188.228 151.702 185.667 152.561 183.033 152.561H104.656C102.092 152.561 99.5944 151.747 97.5225 150.236L73.9707 133.068C73.0006 132.36 72.2627 131.381 71.8505 130.253Z" fill="#E0E1E2" stroke="#666666" stroke-width="2.01837"/>
<rect x="106.266" y="131.973" width="76.8595" height="19.2956" rx="3.956" fill="#D6D7D9"/>
<path d="M230.719 113.285C230.719 114.382 230.243 115.534 229.177 116.741C228.105 117.954 226.478 119.173 224.3 120.366C219.944 122.751 213.576 124.931 205.619 126.773C189.723 130.455 167.712 132.742 143.364 132.742C119.016 132.742 97.0053 130.455 81.109 126.773C73.1528 124.931 66.784 122.751 62.4288 120.366C60.2508 119.173 58.6236 117.954 57.5515 116.741C56.4851 115.534 56.0092 114.382 56.0092 113.285C56.0092 112.187 56.4851 111.035 57.5515 109.828C58.6236 108.615 60.2508 107.396 62.4288 106.203C66.784 103.819 73.1528 101.639 81.109 99.7959C97.0053 96.1142 119.016 93.8275 143.364 93.8275C167.712 93.8275 189.723 96.1142 205.619 99.7959C213.576 101.639 219.944 103.819 224.3 106.203C226.478 107.396 228.105 108.615 229.177 109.828C230.243 111.035 230.719 112.187 230.719 113.285Z" fill="url(#paint0_radial)" stroke="#666666" stroke-width="2.01837"/>
<path d="M199.225 99.5563C199.222 100.186 198.924 100.857 198.237 101.57C197.547 102.285 196.502 103.002 195.104 103.701C192.311 105.1 188.233 106.369 183.146 107.434C172.982 109.56 158.92 110.843 143.375 110.767C127.83 110.692 113.781 109.272 103.638 107.047C98.5619 105.933 94.4964 104.624 91.7166 103.199C90.3258 102.485 89.2874 101.758 88.605 101.036C87.9251 100.317 87.6335 99.6431 87.6366 99.0136C87.6396 98.3841 87.9378 97.7128 88.6247 97.0004C89.314 96.2853 90.3595 95.5683 91.7572 94.8685C94.5507 93.47 98.6287 92.2007 103.716 91.1363C113.88 89.0096 127.942 87.727 143.486 87.8027C159.031 87.8783 173.08 89.2975 183.223 91.523C188.299 92.6368 192.365 93.9458 195.145 95.3714C196.535 96.0846 197.574 96.8118 198.256 97.5336C198.936 98.2527 199.228 98.9268 199.225 99.5563Z" fill="#ABCC75" stroke="#666666" stroke-width="1.21102"/>
<path d="M194.49 95.7685C194.487 96.3851 194.211 97.0363 193.585 97.7228C192.957 98.4128 192.003 99.1057 190.724 99.783C188.169 101.137 184.435 102.368 179.772 103.402C170.456 105.467 157.564 106.715 143.31 106.646C129.055 106.576 116.176 105.203 106.88 103.047C102.227 101.968 98.5057 100.701 95.9637 99.3222C94.6922 98.6325 93.7449 97.9303 93.1228 97.2342C92.504 96.5416 92.2343 95.8878 92.2373 95.2712C92.2404 94.6436 92.5259 93.9114 93.1718 93.0877C93.8152 92.2671 94.7841 91.3979 96.0672 90.5108C98.6324 88.7371 102.373 86.9463 107.031 85.351C116.341 82.1624 129.219 79.7879 143.44 79.8571C157.661 79.9263 170.515 82.4259 179.793 85.7049C184.436 87.3454 188.159 89.1725 190.707 90.971C191.981 91.8707 192.941 92.7492 193.577 93.576C194.215 94.4059 194.493 95.1409 194.49 95.7685Z" fill="url(#paint1_linear)" stroke="#666666" stroke-width="1.21102"/>
<circle cx="81.0271" cy="113.194" r="3.5036" fill="#ABCC75" stroke="#666666" stroke-width="0.484408"/>
<circle cx="102.558" cy="117.995" r="3.5036" fill="#ABCC75" stroke="#666666" stroke-width="0.484408"/>
<circle cx="130.05" cy="120.686" r="3.5036" fill="#ABCC75" stroke="#666666" stroke-width="0.484408"/>
<circle r="3.5036" transform="matrix(-1 0 0 1 208.364 113.194)" fill="#ABCC75" stroke="#666666" stroke-width="0.484408"/>
<circle r="3.5036" transform="matrix(-1 0 0 1 186.836 117.995)" fill="#ABCC75" stroke="#666666" stroke-width="0.484408"/>
<circle r="3.5036" transform="matrix(-1 0 0 1 159.34 120.686)" fill="#ABCC75" stroke="#666666" stroke-width="0.484408"/>
<g filter="url(#filter1_d)">
<circle cx="143.444" cy="142.267" r="4.56151" fill="#DDDDDD"/>
<circle cx="143.444" cy="142.267" r="4.31931" stroke="#666666" stroke-width="0.484408"/>
</g>
<path d="M161.423 140.611C161.575 140.457 161.782 140.369 161.999 140.369H173.921C174.146 140.369 174.36 140.463 174.513 140.627L175.969 142.193L176.264 141.918L175.969 142.193C176.108 142.342 176.185 142.539 176.185 142.743V143.357C176.185 143.803 175.823 144.164 175.377 144.164H160.441C159.996 144.164 159.634 143.803 159.634 143.357V142.762C159.634 142.55 159.717 142.347 159.866 142.196L161.423 140.611L161.135 140.328L161.423 140.611Z" fill="#DDDDDD" stroke="#666666" stroke-width="0.807347"/>
<line x1="162.781" y1="142.347" x2="173.035" y2="142.347" stroke="#666666" stroke-width="0.403674" stroke-dasharray="0.4 0.4"/>
<path d="M370.404 75.4588C370.404 72.1146 373.115 69.4037 376.459 69.4037H415.292C418.636 69.4037 421.347 72.1146 421.347 75.4588V202.293H370.404V75.4588Z" fill="url(#paint2_linear)" stroke="#666666" stroke-width="0.807347"/>
<path d="M374 79.4588C374 75.8917 376.892 73 380.459 73H411.542C415.109 73 418 75.8917 418 79.4588V99.7828H374V79.4588Z" fill="#ABCC75" fill-opacity="0.75"/>
<path d="M374 101.695H418V103.608H374V101.695Z" fill="#ABCC75" fill-opacity="0.75"/>
<path d="M374 105.521H418V107.435H374V105.521Z" fill="#ABCC75" fill-opacity="0.75"/>
<mask id="path-24-inside-1" fill="white">
<rect x="372.367" y="130.762" width="9.04229" height="17.2772" rx="0.484408"/>
</mask>
<rect x="372.367" y="130.762" width="9.04229" height="17.2772" rx="0.484408" fill="#EEEEEE" stroke="#666666" stroke-width="1.61469" mask="url(#path-24-inside-1)"/>
<rect x="372.517" y="131.15" width="8.74229" height="16.9772" rx="0.334408" fill="#EEEEEE" stroke="#666666" stroke-width="0.3"/>
<path d="M375 134.984C375 134.717 375.217 134.5 375.484 134.5H378.516C378.783 134.5 379 134.717 379 134.984V144.016C379 144.283 378.783 144.5 378.516 144.5H375.484C375.217 144.5 375 144.283 375 144.016V134.984Z" fill="#E0E0E0"/>
<path d="M380.668 155.667H373.335C373.243 155.667 373.168 155.742 373.168 155.834V160.167C373.168 160.259 373.243 160.334 373.335 160.334H374.001V161.167C374.001 161.259 374.076 161.334 374.168 161.334H374.668V162.167C374.668 162.259 374.743 162.334 374.835 162.334H379.168C379.26 162.334 379.335 162.259 379.335 162.167V161.334H380.001C380.093 161.334 380.168 161.259 380.168 161.167V160.334H380.668C380.76 160.334 380.835 160.259 380.835 160.167V155.834C380.835 155.742 380.76 155.667 380.668 155.667ZM380.501 160H380.001C379.909 160 379.835 160.075 379.835 160.167V161H379.168C379.076 161 379.001 161.075 379.001 161.167V162H375.001V161.167C375.001 161.075 374.927 161 374.835 161H374.335V160.167C374.335 160.075 374.26 160 374.168 160H373.501V156H374.835V157.667C374.835 157.759 374.909 157.834 375.001 157.834C375.093 157.834 375.168 157.759 375.168 157.667V156H375.501V157.667C375.501 157.759 375.576 157.834 375.668 157.834C375.76 157.834 375.835 157.759 375.835 157.667V156H376.168V157.667C376.168 157.759 376.243 157.834 376.335 157.834C376.427 157.834 376.501 157.759 376.501 157.667V156H376.835V157.667C376.835 157.759 376.909 157.834 377.001 157.834C377.093 157.834 377.168 157.759 377.168 157.667V156H377.501V157.667C377.501 157.759 377.576 157.834 377.668 157.834C377.76 157.834 377.835 157.759 377.835 157.667V156H378.168V157.667C378.168 157.759 378.243 157.834 378.335 157.834C378.427 157.834 378.501 157.759 378.501 157.667V156H378.835V157.667C378.835 157.759 378.909 157.834 379.001 157.834C379.093 157.834 379.168 157.759 379.168 157.667V156H380.501V160Z" fill="#666666"/>
<path d="M381.5 154H372.5C372.224 154 372 154.224 372 154.5V163.5C372 163.776 372.224 164 372.5 164H381.5C381.776 164 382 163.776 382 163.5V154.5C382 154.224 381.776 154 381.5 154ZM381.667 163.5C381.667 163.592 381.592 163.667 381.5 163.667H372.5C372.408 163.667 372.333 163.592 372.333 163.5V154.5C372.333 154.408 372.408 154.333 372.5 154.333H381.5C381.592 154.333 381.667 154.408 381.667 154.5V163.5Z" fill="#666666"/>
<path d="M380.668 168.667H373.335C373.243 168.667 373.168 168.742 373.168 168.834V173.167C373.168 173.259 373.243 173.334 373.335 173.334H374.001V174.167C374.001 174.259 374.076 174.334 374.168 174.334H374.668V175.167C374.668 175.259 374.743 175.334 374.835 175.334H379.168C379.26 175.334 379.335 175.259 379.335 175.167V174.334H380.001C380.093 174.334 380.168 174.259 380.168 174.167V173.334H380.668C380.76 173.334 380.835 173.259 380.835 173.167V168.834C380.835 168.742 380.76 168.667 380.668 168.667ZM380.501 173H380.001C379.909 173 379.835 173.075 379.835 173.167V174H379.168C379.076 174 379.001 174.075 379.001 174.167V175H375.001V174.167C375.001 174.075 374.927 174 374.835 174H374.335V173.167C374.335 173.075 374.26 173 374.168 173H373.501V169H374.835V170.667C374.835 170.759 374.909 170.834 375.001 170.834C375.093 170.834 375.168 170.759 375.168 170.667V169H375.501V170.667C375.501 170.759 375.576 170.834 375.668 170.834C375.76 170.834 375.835 170.759 375.835 170.667V169H376.168V170.667C376.168 170.759 376.243 170.834 376.335 170.834C376.427 170.834 376.501 170.759 376.501 170.667V169H376.835V170.667C376.835 170.759 376.909 170.834 377.001 170.834C377.093 170.834 377.168 170.759 377.168 170.667V169H377.501V170.667C377.501 170.759 377.576 170.834 377.668 170.834C377.76 170.834 377.835 170.759 377.835 170.667V169H378.168V170.667C378.168 170.759 378.243 170.834 378.335 170.834C378.427 170.834 378.501 170.759 378.501 170.667V169H378.835V170.667C378.835 170.759 378.909 170.834 379.001 170.834C379.093 170.834 379.168 170.759 379.168 170.667V169H380.501V173Z" fill="#666666"/>
<path d="M381.5 167H372.5C372.224 167 372 167.224 372 167.5V176.5C372 176.776 372.224 177 372.5 177H381.5C381.776 177 382 176.776 382 176.5V167.5C382 167.224 381.776 167 381.5 167ZM381.667 176.5C381.667 176.592 381.592 176.667 381.5 176.667H372.5C372.408 176.667 372.333 176.592 372.333 176.5V167.5C372.333 167.408 372.408 167.333 372.5 167.333H381.5C381.592 167.333 381.667 167.408 381.667 167.5V176.5Z" fill="#666666"/>
</g>
<path d="M187.602 135.944C187.43 134.986 188.073 134.072 189.033 133.91L196.899 132.578C197.848 132.418 198.749 133.054 198.914 134.002L199.511 137.413C199.638 138.142 199.293 138.873 198.649 139.237L191.303 143.393C190.253 143.987 188.931 143.366 188.718 142.178L187.602 135.944Z" fill="#C4C4C4" stroke="#666666" stroke-width="0.5"/>
<mask id="path-32-inside-2" fill="white">
<path d="M368.936 175.882L368.936 170.21C368.936 169.782 368.587 169.433 368.159 169.433L363.779 169.434L363.779 169.178C363.779 169.034 363.663 168.918 363.519 168.918L359.396 168.918L359.396 174.851C359.396 174.995 359.28 175.111 359.136 175.111C359.064 175.111 358.999 175.082 358.952 175.035C358.904 174.988 358.875 174.923 358.875 174.851L358.875 169.017L355.41 170.75C355.321 170.794 355.266 170.885 355.266 170.983L355.266 171.754L354.368 171.754C354.195 171.754 354.032 171.822 353.909 171.944C353.818 172.035 353.758 172.148 353.733 172.27L350.885 172.27C350.816 172.27 350.749 172.297 350.701 172.346C350.652 172.395 350.624 172.461 350.624 172.53L350.624 173.562C350.624 173.633 350.654 173.699 350.701 173.746C350.748 173.793 350.813 173.822 350.885 173.822L353.733 173.822C353.759 173.948 353.821 174.06 353.909 174.147C354.027 174.265 354.189 174.338 354.368 174.338H355.266V175.109C355.265 175.179 355.294 175.245 355.342 175.293C355.361 175.312 355.384 175.329 355.409 175.342L358.875 177.075V175.882C358.875 175.738 358.992 175.622 359.135 175.622C359.279 175.622 359.396 175.738 359.396 175.882V177.174L363.519 177.174C363.663 177.174 363.779 177.058 363.779 176.914L363.779 176.658L368.159 176.658C368.587 176.658 368.936 176.31 368.936 175.882ZM354.368 173.817C354.297 173.817 354.239 173.759 354.239 173.688L354.239 172.404C354.239 172.357 354.262 172.326 354.276 172.312C354.291 172.298 354.321 172.275 354.368 172.274L355.265 172.274L355.265 173.816L354.368 173.817ZM356.814 174.337C356.743 174.337 356.677 174.308 356.63 174.261C356.583 174.214 356.554 174.149 356.554 174.077L356.554 172.014C356.554 171.87 356.671 171.754 356.814 171.754C356.958 171.754 357.075 171.871 357.075 172.014L357.075 174.077C357.075 174.221 356.958 174.337 356.814 174.337ZM357.846 175.369C357.774 175.369 357.709 175.34 357.662 175.293C357.615 175.246 357.586 175.18 357.586 175.109L357.586 170.983C357.586 170.839 357.702 170.723 357.846 170.723C357.99 170.723 358.106 170.839 358.106 170.983L358.106 175.109C358.106 175.252 357.99 175.369 357.846 175.369ZM368.415 174.337L368.415 174.746V174.848L366.873 174.848L366.873 174.337L368.415 174.337ZM368.415 172.275V172.479L368.415 172.785L366.873 172.785L366.873 172.275L368.415 172.275ZM361.713 173.559C361.439 173.559 361.2 173.32 361.2 173.046C361.2 172.909 361.254 172.78 361.351 172.683C361.448 172.586 361.576 172.533 361.714 172.532H363.519L364.805 172.532L364.805 173.559L363.518 173.559L361.713 173.559ZM368.159 176.137H363.779L363.779 174.079L365.066 174.08C365.135 174.08 365.201 174.052 365.25 174.003C365.298 173.955 365.326 173.888 365.326 173.819L365.326 172.272C365.326 172.134 365.204 172.012 365.066 172.012L363.779 172.012L363.779 169.954H368.159C368.3 169.954 368.415 170.069 368.415 170.21L368.415 170.723L366.613 170.723C366.543 170.723 366.477 170.75 366.429 170.799C366.38 170.848 366.352 170.914 366.352 170.983V172.014L366.352 173.046L366.352 174.077L366.352 175.108C366.352 175.178 366.38 175.244 366.429 175.293C366.477 175.341 366.544 175.369 366.613 175.369L368.415 175.369L368.415 175.881C368.415 176.023 368.3 176.137 368.159 176.137Z"/>
</mask>
<path d="M368.936 175.882L368.936 170.21C368.936 169.782 368.587 169.433 368.159 169.433L363.779 169.434L363.779 169.178C363.779 169.034 363.663 168.918 363.519 168.918L359.396 168.918L359.396 174.851C359.396 174.995 359.28 175.111 359.136 175.111C359.064 175.111 358.999 175.082 358.952 175.035C358.904 174.988 358.875 174.923 358.875 174.851L358.875 169.017L355.41 170.75C355.321 170.794 355.266 170.885 355.266 170.983L355.266 171.754L354.368 171.754C354.195 171.754 354.032 171.822 353.909 171.944C353.818 172.035 353.758 172.148 353.733 172.27L350.885 172.27C350.816 172.27 350.749 172.297 350.701 172.346C350.652 172.395 350.624 172.461 350.624 172.53L350.624 173.562C350.624 173.633 350.654 173.699 350.701 173.746C350.748 173.793 350.813 173.822 350.885 173.822L353.733 173.822C353.759 173.948 353.821 174.06 353.909 174.147C354.027 174.265 354.189 174.338 354.368 174.338H355.266V175.109C355.265 175.179 355.294 175.245 355.342 175.293C355.361 175.312 355.384 175.329 355.409 175.342L358.875 177.075V175.882C358.875 175.738 358.992 175.622 359.135 175.622C359.279 175.622 359.396 175.738 359.396 175.882V177.174L363.519 177.174C363.663 177.174 363.779 177.058 363.779 176.914L363.779 176.658L368.159 176.658C368.587 176.658 368.936 176.31 368.936 175.882ZM354.368 173.817C354.297 173.817 354.239 173.759 354.239 173.688L354.239 172.404C354.239 172.357 354.262 172.326 354.276 172.312C354.291 172.298 354.321 172.275 354.368 172.274L355.265 172.274L355.265 173.816L354.368 173.817ZM356.814 174.337C356.743 174.337 356.677 174.308 356.63 174.261C356.583 174.214 356.554 174.149 356.554 174.077L356.554 172.014C356.554 171.87 356.671 171.754 356.814 171.754C356.958 171.754 357.075 171.871 357.075 172.014L357.075 174.077C357.075 174.221 356.958 174.337 356.814 174.337ZM357.846 175.369C357.774 175.369 357.709 175.34 357.662 175.293C357.615 175.246 357.586 175.18 357.586 175.109L357.586 170.983C357.586 170.839 357.702 170.723 357.846 170.723C357.99 170.723 358.106 170.839 358.106 170.983L358.106 175.109C358.106 175.252 357.99 175.369 357.846 175.369ZM368.415 174.337L368.415 174.746V174.848L366.873 174.848L366.873 174.337L368.415 174.337ZM368.415 172.275V172.479L368.415 172.785L366.873 172.785L366.873 172.275L368.415 172.275ZM361.713 173.559C361.439 173.559 361.2 173.32 361.2 173.046C361.2 172.909 361.254 172.78 361.351 172.683C361.448 172.586 361.576 172.533 361.714 172.532H363.519L364.805 172.532L364.805 173.559L363.518 173.559L361.713 173.559ZM368.159 176.137H363.779L363.779 174.079L365.066 174.08C365.135 174.08 365.201 174.052 365.25 174.003C365.298 173.955 365.326 173.888 365.326 173.819L365.326 172.272C365.326 172.134 365.204 172.012 365.066 172.012L363.779 172.012L363.779 169.954H368.159C368.3 169.954 368.415 170.069 368.415 170.21L368.415 170.723L366.613 170.723C366.543 170.723 366.477 170.75 366.429 170.799C366.38 170.848 366.352 170.914 366.352 170.983V172.014L366.352 173.046L366.352 174.077L366.352 175.108C366.352 175.178 366.38 175.244 366.429 175.293C366.477 175.341 366.544 175.369 366.613 175.369L368.415 175.369L368.415 175.881C368.415 176.023 368.3 176.137 368.159 176.137Z" fill="#EEEEEE" stroke="#666666" stroke-width="0.5" mask="url(#path-32-inside-2)"/>
<mask id="path-33-inside-3" fill="white">
<path d="M192.158 140.882L192.158 135.21C192.158 134.782 192.506 134.433 192.934 134.433L197.315 134.434L197.315 134.178C197.314 134.034 197.431 133.918 197.575 133.918L201.698 133.918L201.698 139.851C201.698 139.995 201.814 140.111 201.958 140.111C202.03 140.111 202.095 140.082 202.142 140.035C202.189 139.988 202.218 139.923 202.218 139.851L202.218 134.017L205.684 135.75C205.772 135.794 205.828 135.885 205.828 135.983L205.828 136.754L206.725 136.754C206.899 136.754 207.062 136.822 207.185 136.944C207.275 137.035 207.335 137.148 207.361 137.27L210.209 137.27C210.278 137.27 210.344 137.297 210.393 137.346C210.442 137.395 210.469 137.461 210.469 137.53L210.469 138.562C210.469 138.633 210.44 138.699 210.393 138.746C210.346 138.793 210.281 138.822 210.209 138.822L207.361 138.822C207.335 138.948 207.272 139.06 207.185 139.147C207.067 139.265 206.905 139.338 206.726 139.338H205.828V140.109C205.828 140.179 205.8 140.245 205.752 140.293C205.732 140.312 205.71 140.329 205.684 140.342L202.219 142.075V140.882C202.219 140.738 202.102 140.622 201.958 140.622C201.814 140.622 201.698 140.738 201.698 140.882V142.174L197.575 142.174C197.431 142.174 197.315 142.058 197.315 141.914L197.315 141.658L192.934 141.658C192.507 141.658 192.158 141.31 192.158 140.882ZM206.726 138.817C206.797 138.817 206.855 138.759 206.855 138.688L206.855 137.404C206.855 137.357 206.832 137.326 206.817 137.312C206.803 137.298 206.773 137.275 206.726 137.274L205.829 137.274L205.829 138.816L206.726 138.817ZM204.279 139.337C204.351 139.337 204.416 139.308 204.463 139.261C204.511 139.214 204.54 139.149 204.54 139.077L204.54 137.014C204.54 136.87 204.423 136.754 204.279 136.754C204.135 136.754 204.019 136.871 204.019 137.014L204.019 139.077C204.019 139.221 204.135 139.337 204.279 139.337ZM203.248 140.369C203.32 140.369 203.385 140.34 203.432 140.293C203.479 140.246 203.508 140.18 203.508 140.109L203.508 135.983C203.508 135.839 203.392 135.723 203.248 135.723C203.104 135.723 202.987 135.839 202.988 135.983L202.988 140.109C202.988 140.252 203.104 140.369 203.248 140.369ZM192.679 139.337L192.679 139.746V139.848L194.221 139.848L194.221 139.337L192.679 139.337ZM192.679 137.275V137.479L192.679 137.785L194.221 137.785L194.221 137.275L192.679 137.275ZM199.38 138.559C199.654 138.559 199.893 138.32 199.894 138.046C199.893 137.909 199.84 137.78 199.743 137.683C199.646 137.586 199.517 137.533 199.38 137.532H197.575L196.289 137.532L196.289 138.559L197.575 138.559L199.38 138.559ZM192.935 141.137H197.315L197.315 139.079L196.028 139.08C195.959 139.08 195.893 139.052 195.844 139.003C195.795 138.955 195.768 138.888 195.768 138.819L195.768 137.272C195.768 137.134 195.89 137.012 196.028 137.012L197.315 137.012L197.315 134.954H192.935C192.794 134.954 192.679 135.069 192.679 135.21L192.679 135.723L194.481 135.723C194.55 135.723 194.616 135.75 194.665 135.799C194.714 135.848 194.742 135.914 194.741 135.983V137.014L194.741 138.046L194.741 139.077L194.741 140.108C194.741 140.178 194.714 140.244 194.665 140.293C194.616 140.341 194.55 140.369 194.481 140.369L192.679 140.369L192.679 140.881C192.679 141.023 192.794 141.137 192.935 141.137Z"/>
</mask>
<path d="M192.158 140.882L192.158 135.21C192.158 134.782 192.506 134.433 192.934 134.433L197.315 134.434L197.315 134.178C197.314 134.034 197.431 133.918 197.575 133.918L201.698 133.918L201.698 139.851C201.698 139.995 201.814 140.111 201.958 140.111C202.03 140.111 202.095 140.082 202.142 140.035C202.189 139.988 202.218 139.923 202.218 139.851L202.218 134.017L205.684 135.75C205.772 135.794 205.828 135.885 205.828 135.983L205.828 136.754L206.725 136.754C206.899 136.754 207.062 136.822 207.185 136.944C207.275 137.035 207.335 137.148 207.361 137.27L210.209 137.27C210.278 137.27 210.344 137.297 210.393 137.346C210.442 137.395 210.469 137.461 210.469 137.53L210.469 138.562C210.469 138.633 210.44 138.699 210.393 138.746C210.346 138.793 210.281 138.822 210.209 138.822L207.361 138.822C207.335 138.948 207.272 139.06 207.185 139.147C207.067 139.265 206.905 139.338 206.726 139.338H205.828V140.109C205.828 140.179 205.8 140.245 205.752 140.293C205.732 140.312 205.71 140.329 205.684 140.342L202.219 142.075V140.882C202.219 140.738 202.102 140.622 201.958 140.622C201.814 140.622 201.698 140.738 201.698 140.882V142.174L197.575 142.174C197.431 142.174 197.315 142.058 197.315 141.914L197.315 141.658L192.934 141.658C192.507 141.658 192.158 141.31 192.158 140.882ZM206.726 138.817C206.797 138.817 206.855 138.759 206.855 138.688L206.855 137.404C206.855 137.357 206.832 137.326 206.817 137.312C206.803 137.298 206.773 137.275 206.726 137.274L205.829 137.274L205.829 138.816L206.726 138.817ZM204.279 139.337C204.351 139.337 204.416 139.308 204.463 139.261C204.511 139.214 204.54 139.149 204.54 139.077L204.54 137.014C204.54 136.87 204.423 136.754 204.279 136.754C204.135 136.754 204.019 136.871 204.019 137.014L204.019 139.077C204.019 139.221 204.135 139.337 204.279 139.337ZM203.248 140.369C203.32 140.369 203.385 140.34 203.432 140.293C203.479 140.246 203.508 140.18 203.508 140.109L203.508 135.983C203.508 135.839 203.392 135.723 203.248 135.723C203.104 135.723 202.987 135.839 202.988 135.983L202.988 140.109C202.988 140.252 203.104 140.369 203.248 140.369ZM192.679 139.337L192.679 139.746V139.848L194.221 139.848L194.221 139.337L192.679 139.337ZM192.679 137.275V137.479L192.679 137.785L194.221 137.785L194.221 137.275L192.679 137.275ZM199.38 138.559C199.654 138.559 199.893 138.32 199.894 138.046C199.893 137.909 199.84 137.78 199.743 137.683C199.646 137.586 199.517 137.533 199.38 137.532H197.575L196.289 137.532L196.289 138.559L197.575 138.559L199.38 138.559ZM192.935 141.137H197.315L197.315 139.079L196.028 139.08C195.959 139.08 195.893 139.052 195.844 139.003C195.795 138.955 195.768 138.888 195.768 138.819L195.768 137.272C195.768 137.134 195.89 137.012 196.028 137.012L197.315 137.012L197.315 134.954H192.935C192.794 134.954 192.679 135.069 192.679 135.21L192.679 135.723L194.481 135.723C194.55 135.723 194.616 135.75 194.665 135.799C194.714 135.848 194.742 135.914 194.741 135.983V137.014L194.741 138.046L194.741 139.077L194.741 140.108C194.741 140.178 194.714 140.244 194.665 140.293C194.616 140.341 194.55 140.369 194.481 140.369L192.679 140.369L192.679 140.881C192.679 141.023 192.794 141.137 192.935 141.137Z" fill="#EEEEEE" stroke="#666666" stroke-width="0.5" mask="url(#path-33-inside-3)"/>
<path d="M350.654 173H234.589C229.066 173 224.589 168.523 224.589 163V148C224.589 142.477 220.112 138 214.589 138H210" stroke="#666666"/>
<defs>
<filter id="filter0_d" x="49.2608" y="67.0869" width="389.477" height="145.175" filterUnits="userSpaceOnUse" color-interpolation-filters="sRGB">
<feFlood flood-opacity="0" result="BackgroundImageFix"/>
<feColorMatrix in="SourceAlpha" type="matrix" values="0 0 0 0 0 0 0 0 0 0 0 0 0 0 0 0 0 0 127 0"/>
<feOffset dy="3.82612"/>
<feGaussianBlur stdDeviation="2.86959"/>
<feColorMatrix type="matrix" values="0 0 0 0 0 0 0 0 0 0 0 0 0 0 0 0 0 0 0.15 0"/>
<feBlend mode="normal" in2="BackgroundImageFix" result="effect1_dropShadow"/>
<feBlend mode="normal" in="SourceGraphic" in2="effect1_dropShadow" result="shape"/>
</filter>
<filter id="filter1_d" x="137.672" y="137.544" width="10.334" height="9.7689" filterUnits="userSpaceOnUse" color-interpolation-filters="sRGB">
<feFlood flood-opacity="0" result="BackgroundImageFix"/>
<feColorMatrix in="SourceAlpha" type="matrix" values="0 0 0 0 0 0 0 0 0 0 0 0 0 0 0 0 0 0 127 0"/>
<feOffset dx="-0.888082" dy="0.161469"/>
<feGaussianBlur stdDeviation="0.161469"/>
<feColorMatrix type="matrix" values="0 0 0 0 0 0 0 0 0 0 0 0 0 0 0 0 0 0 0.25 0"/>
<feBlend mode="normal" in2="BackgroundImageFix" result="effect1_dropShadow"/>
<feBlend mode="normal" in="SourceGraphic" in2="effect1_dropShadow" result="shape"/>
</filter>
<radialGradient id="paint0_radial" cx="0" cy="0" r="1" gradientUnits="userSpaceOnUse" gradientTransform="translate(143.364 113.285) rotate(-3.52572) scale(108.309 467.629)">
<stop stop-color="white"/>
<stop offset="1" stop-color="#E0E1E2"/>
</radialGradient>
<linearGradient id="paint1_linear" x1="143.387" y1="107.56" x2="143.358" y2="64.7122" gradientUnits="userSpaceOnUse">
<stop stop-color="white"/>
<stop offset="1" stop-color="#E0E1E2"/>
</linearGradient>
<linearGradient id="paint2_linear" x1="395.875" y1="69" x2="395.875" y2="202.697" gradientUnits="userSpaceOnUse">
<stop stop-color="white"/>
<stop offset="1" stop-color="#EEEEEE"/>
</linearGradient>
</defs>
</svg>
