<svg width="498" height="243" viewBox="0 0 498 243" fill="none" xmlns="http://www.w3.org/2000/svg">
<path d="M449.587 80.6234L404.047 95.9499L444.352 74.5189C437.801 67.248 430.442 60.3619 422.345 53.9266L224.846 88.8345L403.244 40.4418C395.091 35.327 386.434 30.6345 377.338 26.4004L76.3953 60.8706C44.4429 89.2839 27.0246 124.578 27 160.959H480C479.982 132.744 469.491 105.032 449.587 80.6234Z" fill="#D7F2AA"/>
<path d="M352.445 16.2081C321.579 5.50941 287.681 -0.0343968 253.34 0.000160572C183.446 0.000160572 120.958 22.5231 79.4531 57.9114C150.526 46.8443 274.271 27.6864 352.445 16.2081Z" fill="#D7F2AA"/>
<ellipse cx="250.626" cy="168.506" rx="245.845" ry="59.7748" transform="rotate(2.9874 250.626 168.506)" fill="#B6CD91"/>
<g filter="url(#filter0_d)">
<path d="M359.611 196.076C359.611 191.84 363.045 188.407 367.281 188.407H424.925C429.161 188.407 432.595 191.84 432.595 196.076V202.212H359.611V196.076Z" fill="#E0E0E0" stroke="#666666" stroke-width="0.807347"/>
<rect x="364.536" y="135.687" width="6.21658" height="9.44596" rx="0.807347" fill="#EEEEEE" stroke="#666666" stroke-width="0.807347"/>
<mask id="path-6-inside-1" fill="white">
<rect x="366.477" y="137.867" width="2.34131" height="2.17984" rx="0.322939"/>
</mask>
<rect x="366.477" y="137.867" width="2.34131" height="2.17984" rx="0.322939" fill="#ABCC75" stroke="#666666" stroke-width="0.807347" mask="url(#path-6-inside-1)"/>
<mask id="path-7-inside-2" fill="white">
<rect x="366.477" y="140.854" width="2.34131" height="2.17984" rx="0.322939"/>
</mask>
<rect x="366.477" y="140.854" width="2.34131" height="2.17984" rx="0.322939" fill="#ABCC75" stroke="#666666" stroke-width="0.807347" mask="url(#path-7-inside-2)"/>
<path d="M71.8505 130.253L67.7578 119.056H218.893L214.956 130.259C214.561 131.383 213.843 132.366 212.892 133.084L190.33 150.116C188.228 151.702 185.667 152.561 183.033 152.561H104.656C102.092 152.561 99.5944 151.747 97.5225 150.236L73.9707 133.068C73.0006 132.36 72.2627 131.381 71.8505 130.253Z" fill="#E0E1E2" stroke="#666666" stroke-width="2.01837"/>
<rect x="106.266" y="131.973" width="76.8595" height="19.2956" rx="3.956" fill="#D6D7D9"/>
<path d="M230.719 113.364C230.719 114.462 230.243 115.613 229.177 116.82C228.105 118.034 226.478 119.252 224.3 120.445C219.944 122.83 213.576 125.01 205.619 126.852C189.723 130.534 167.712 132.821 143.364 132.821C119.016 132.821 97.0053 130.534 81.109 126.852C73.1528 125.01 66.784 122.83 62.4288 120.445C60.2508 119.252 58.6236 118.034 57.5515 116.82C56.4851 115.613 56.0092 114.462 56.0092 113.364C56.0092 112.266 56.4851 111.114 57.5515 109.907C58.6236 108.694 60.2508 107.475 62.4288 106.282C66.784 103.898 73.1528 101.718 81.109 99.875C97.0053 96.1933 119.016 93.9066 143.364 93.9066C167.712 93.9066 189.723 96.1933 205.619 99.875C213.576 101.718 219.944 103.898 224.3 106.282C226.478 107.475 228.105 108.694 229.177 109.907C230.243 111.114 230.719 112.266 230.719 113.364Z" fill="url(#paint0_radial)" stroke="#666666" stroke-width="2.01837"/>
<path d="M199.225 99.6354C199.222 100.265 198.924 100.936 198.237 101.649C197.547 102.364 196.502 103.081 195.104 103.78C192.311 105.179 188.233 106.448 183.146 107.513C172.982 109.639 158.92 110.922 143.375 110.846C127.83 110.771 113.781 109.352 103.638 107.126C98.5619 106.012 94.4964 104.703 91.7166 103.278C90.3258 102.564 89.2874 101.837 88.605 101.115C87.9251 100.396 87.6335 99.7222 87.6366 99.0927C87.6396 98.4632 87.9378 97.7919 88.6247 97.0795C89.314 96.3644 90.3595 95.6474 91.7572 94.9476C94.5507 93.5492 98.6287 92.2798 103.716 91.2154C113.88 89.0887 127.942 87.8062 143.486 87.8818C159.031 87.9574 173.08 89.3766 183.223 91.6021C188.299 92.7159 192.365 94.0249 195.145 95.4505C196.535 96.1637 197.574 96.8909 198.256 97.6127C198.936 98.3318 199.228 99.0059 199.225 99.6354Z" fill="#ABCC75" stroke="#666666" stroke-width="1.21102"/>
<path d="M194.49 95.7685C194.487 96.3851 194.211 97.0363 193.585 97.7228C192.957 98.4128 192.003 99.1057 190.724 99.783C188.169 101.137 184.435 102.368 179.772 103.402C170.456 105.467 157.564 106.715 143.31 106.646C129.055 106.576 116.176 105.203 106.88 103.047C102.227 101.968 98.5057 100.701 95.9637 99.3222C94.6922 98.6325 93.7449 97.9303 93.1228 97.2342C92.504 96.5416 92.2343 95.8878 92.2373 95.2712C92.2404 94.6436 92.5259 93.9114 93.1718 93.0877C93.8152 92.2671 94.7841 91.3979 96.0672 90.5108C98.6324 88.7371 102.373 86.9463 107.031 85.351C116.341 82.1624 129.219 79.7879 143.44 79.8571C157.661 79.9263 170.515 82.4259 179.793 85.7049C184.436 87.3454 188.159 89.1725 190.707 90.971C191.981 91.8707 192.941 92.7492 193.577 93.576C194.215 94.4059 194.493 95.1409 194.49 95.7685Z" fill="url(#paint1_linear)" stroke="#666666" stroke-width="1.21102"/>
<circle cx="81.0271" cy="113.194" r="3.5036" fill="#ABCC75" stroke="#666666" stroke-width="0.484408"/>
<circle cx="102.558" cy="117.995" r="3.5036" fill="#ABCC75" stroke="#666666" stroke-width="0.484408"/>
<circle cx="130.05" cy="120.686" r="3.5036" fill="#ABCC75" stroke="#666666" stroke-width="0.484408"/>
<circle r="3.5036" transform="matrix(-1 0 0 1 208.364 113.194)" fill="#ABCC75" stroke="#666666" stroke-width="0.484408"/>
<circle r="3.5036" transform="matrix(-1 0 0 1 186.836 117.995)" fill="#ABCC75" stroke="#666666" stroke-width="0.484408"/>
<circle r="3.5036" transform="matrix(-1 0 0 1 159.34 120.686)" fill="#ABCC75" stroke="#666666" stroke-width="0.484408"/>
<g filter="url(#filter1_d)">
<circle cx="143.444" cy="142.267" r="4.56151" fill="#DDDDDD"/>
<circle cx="143.444" cy="142.267" r="4.31931" stroke="#666666" stroke-width="0.484408"/>
</g>
<path d="M161.423 140.611C161.575 140.457 161.782 140.369 161.999 140.369H173.921C174.146 140.369 174.36 140.463 174.513 140.627L175.969 142.193L176.264 141.918L175.969 142.193C176.108 142.342 176.185 142.539 176.185 142.743V143.357C176.185 143.803 175.823 144.164 175.377 144.164H160.441C159.996 144.164 159.634 143.803 159.634 143.357V142.762C159.634 142.55 159.717 142.347 159.866 142.196L161.423 140.611L161.135 140.328L161.423 140.611Z" fill="#DDDDDD" stroke="#666666" stroke-width="0.807347"/>
<line x1="162.781" y1="142.348" x2="173.035" y2="142.348" stroke="#666666" stroke-width="0.403674" stroke-dasharray="0.4 0.4"/>
<mask id="path-23-inside-3" fill="white">
<rect x="162.781" y="141.661" width="9.93037" height="5.16702" rx="0.484408"/>
</mask>
<rect x="162.781" y="141.661" width="9.93037" height="5.16702" rx="0.484408" fill="#EEEEEE" stroke="#666666" stroke-width="1.61469" mask="url(#path-23-inside-3)"/>
<mask id="path-24-inside-4" fill="white">
<rect x="165.203" y="159.665" width="5.08629" height="5.16702" rx="0.484408"/>
</mask>
<rect x="165.203" y="159.665" width="5.08629" height="5.16702" rx="0.484408" fill="#EEEEEE" stroke="#666666" stroke-width="1.61469" mask="url(#path-24-inside-4)"/>
<mask id="path-25-inside-5" fill="white">
<rect x="160.52" y="145.859" width="14.4515" height="16.3892" rx="0.484408"/>
</mask>
<rect x="160.52" y="145.859" width="14.4515" height="16.3892" rx="0.484408" fill="#EEEEEE" stroke="#666666" stroke-width="1.61469" mask="url(#path-25-inside-5)"/>
<line x1="165.607" y1="153.691" x2="169.966" y2="153.691" stroke="#ABCC75" stroke-width="0.807347" stroke-linecap="round"/>
<line x1="165.607" y1="156.275" x2="169.966" y2="156.275" stroke="#ABCC75" stroke-width="0.807347" stroke-linecap="round"/>
<path d="M167.785 164.388V188.268C167.785 196.192 174.209 202.616 182.133 202.616H303.442C311.366 202.616 317.79 196.192 317.79 188.268V154.314C317.79 146.39 324.214 139.966 332.138 139.966H339.427" stroke="#666666" stroke-width="1.21102"/>
<rect x="339.911" y="137.302" width="4.35968" height="6.21658" rx="0.807347" fill="#EEEEEE" stroke="#666666" stroke-width="0.807347"/>
<rect x="342.497" y="133.184" width="22.2021" height="14.4515" rx="0.807347" fill="#EEEEEE" stroke="#666666" stroke-width="0.807347"/>
<path d="M354.036 144.419C354.325 144.226 354.404 143.838 354.21 143.549L352.956 141.668C352.764 141.38 352.374 141.302 352.087 141.494C351.905 141.615 351.807 141.814 351.807 142.017C351.807 142.136 351.842 142.257 351.913 142.364L353.167 144.245C353.359 144.533 353.749 144.611 354.036 144.419Z" fill="#666666"/>
<path d="M355.57 137.627C355.57 137.28 355.29 137 354.943 137L351.181 137C350.835 137 350.554 137.28 350.554 137.627C350.554 137.974 350.835 138.254 351.181 138.254L354.943 138.254C355.29 138.254 355.57 137.974 355.57 137.627Z" fill="#666666"/>
<path d="M361.84 140.763C361.84 140.416 361.559 140.136 361.213 140.136L347.627 140.136C347.28 140.136 347 140.416 347 140.763C347 141.109 347.28 141.39 347.627 141.39L361.213 141.39C361.559 141.39 361.84 141.109 361.84 140.763Z" fill="#666666"/>
<path d="M358.078 143.897C358.078 143.55 357.798 143.27 357.451 143.27L353.689 143.27C353.342 143.27 353.062 143.55 353.062 143.897C353.062 144.243 353.342 144.523 353.689 144.524L357.451 144.524C357.798 144.524 358.078 144.243 358.078 143.897Z" fill="#666666"/>
<path d="M350.449 139.856L351.703 137.975C351.895 137.686 351.817 137.297 351.529 137.106C351.242 136.913 350.852 136.991 350.66 137.279L349.406 139.16C349.335 139.268 349.301 139.388 349.301 139.508C349.301 139.71 349.399 139.909 349.58 140.03C349.867 140.222 350.257 140.145 350.449 139.856Z" fill="#666666"/>
<path d="M361.656 141.206C361.901 140.961 361.901 140.564 361.656 140.32L360.402 139.065C360.157 138.821 359.76 138.821 359.516 139.065C359.393 139.188 359.332 139.348 359.332 139.509C359.332 139.669 359.393 139.83 359.516 139.952L360.77 141.206C361.014 141.451 361.411 141.451 361.656 141.206Z" fill="#666666"/>
<path d="M360.402 142.46L361.656 141.206C361.901 140.961 361.901 140.564 361.656 140.319C361.411 140.075 361.014 140.075 360.77 140.319L359.516 141.573C359.393 141.696 359.332 141.856 359.332 142.017C359.332 142.177 359.393 142.338 359.516 142.46C359.76 142.705 360.157 142.705 360.402 142.46Z" fill="#666666"/>
<path d="M370.404 75.4588C370.404 72.1146 373.115 69.4037 376.459 69.4037H415.292C418.636 69.4037 421.347 72.1146 421.347 75.4588V202.293H370.404V75.4588Z" fill="url(#paint2_linear)" stroke="#666666" stroke-width="0.807347"/>
<path d="M374.48 79.2849C374.48 75.7179 377.372 72.8262 380.939 72.8262H412.022C415.589 72.8262 418.481 75.7179 418.481 79.285V99.609H374.48V79.2849Z" fill="#ABCC75" fill-opacity="0.75"/>
<path d="M374.48 101.522H418.481V103.436H374.48V101.522Z" fill="#ABCC75" fill-opacity="0.75"/>
<path d="M374.48 105.349H418.481V107.262H374.48V105.349Z" fill="#ABCC75" fill-opacity="0.75"/>
<mask id="path-42-inside-6" fill="white">
<rect x="372.367" y="130.762" width="9.04229" height="17.2772" rx="0.484408"/>
</mask>
<rect x="372.367" y="130.762" width="9.04229" height="17.2772" rx="0.484408" fill="#EEEEEE" stroke="#666666" stroke-width="1.61469" mask="url(#path-42-inside-6)"/>
<rect x="372.517" y="131.15" width="8.74229" height="16.9772" rx="0.334408" fill="#EEEEEE" stroke="#666666" stroke-width="0.3"/>
<path d="M375 134.984C375 134.717 375.217 134.5 375.484 134.5H378.516C378.783 134.5 379 134.717 379 134.984V144.016C379 144.283 378.783 144.5 378.516 144.5H375.484C375.217 144.5 375 144.283 375 144.016V134.984Z" fill="#E0E0E0"/>
<path d="M380.668 155.667H373.335C373.243 155.667 373.168 155.742 373.168 155.834V160.167C373.168 160.259 373.243 160.334 373.335 160.334H374.001V161.167C374.001 161.259 374.076 161.334 374.168 161.334H374.668V162.167C374.668 162.259 374.743 162.334 374.835 162.334H379.168C379.26 162.334 379.335 162.259 379.335 162.167V161.334H380.001C380.093 161.334 380.168 161.259 380.168 161.167V160.334H380.668C380.76 160.334 380.835 160.259 380.835 160.167V155.834C380.835 155.742 380.76 155.667 380.668 155.667ZM380.501 160H380.001C379.909 160 379.835 160.075 379.835 160.167V161H379.168C379.076 161 379.001 161.075 379.001 161.167V162H375.001V161.167C375.001 161.075 374.927 161 374.835 161H374.335V160.167C374.335 160.075 374.26 160 374.168 160H373.501V156H374.835V157.667C374.835 157.759 374.909 157.834 375.001 157.834C375.093 157.834 375.168 157.759 375.168 157.667V156H375.501V157.667C375.501 157.759 375.576 157.834 375.668 157.834C375.76 157.834 375.835 157.759 375.835 157.667V156H376.168V157.667C376.168 157.759 376.243 157.834 376.335 157.834C376.427 157.834 376.501 157.759 376.501 157.667V156H376.835V157.667C376.835 157.759 376.909 157.834 377.001 157.834C377.093 157.834 377.168 157.759 377.168 157.667V156H377.501V157.667C377.501 157.759 377.576 157.834 377.668 157.834C377.76 157.834 377.835 157.759 377.835 157.667V156H378.168V157.667C378.168 157.759 378.243 157.834 378.335 157.834C378.427 157.834 378.501 157.759 378.501 157.667V156H378.835V157.667C378.835 157.759 378.909 157.834 379.001 157.834C379.093 157.834 379.168 157.759 379.168 157.667V156H380.501V160Z" fill="#666666"/>
<path d="M381.5 154H372.5C372.224 154 372 154.224 372 154.5V163.5C372 163.776 372.224 164 372.5 164H381.5C381.776 164 382 163.776 382 163.5V154.5C382 154.224 381.776 154 381.5 154ZM381.667 163.5C381.667 163.592 381.592 163.667 381.5 163.667H372.5C372.408 163.667 372.333 163.592 372.333 163.5V154.5C372.333 154.408 372.408 154.333 372.5 154.333H381.5C381.592 154.333 381.667 154.408 381.667 154.5V163.5Z" fill="#666666"/>
<path d="M380.668 168.667H373.335C373.243 168.667 373.168 168.742 373.168 168.834V173.167C373.168 173.259 373.243 173.334 373.335 173.334H374.001V174.167C374.001 174.259 374.076 174.334 374.168 174.334H374.668V175.167C374.668 175.259 374.743 175.334 374.835 175.334H379.168C379.26 175.334 379.335 175.259 379.335 175.167V174.334H380.001C380.093 174.334 380.168 174.259 380.168 174.167V173.334H380.668C380.76 173.334 380.835 173.259 380.835 173.167V168.834C380.835 168.742 380.76 168.667 380.668 168.667ZM380.501 173H380.001C379.909 173 379.835 173.075 379.835 173.167V174H379.168C379.076 174 379.001 174.075 379.001 174.167V175H375.001V174.167C375.001 174.075 374.927 174 374.835 174H374.335V173.167C374.335 173.075 374.26 173 374.168 173H373.501V169H374.835V170.667C374.835 170.759 374.909 170.834 375.001 170.834C375.093 170.834 375.168 170.759 375.168 170.667V169H375.501V170.667C375.501 170.759 375.576 170.834 375.668 170.834C375.76 170.834 375.835 170.759 375.835 170.667V169H376.168V170.667C376.168 170.759 376.243 170.834 376.335 170.834C376.427 170.834 376.501 170.759 376.501 170.667V169H376.835V170.667C376.835 170.759 376.909 170.834 377.001 170.834C377.093 170.834 377.168 170.759 377.168 170.667V169H377.501V170.667C377.501 170.759 377.576 170.834 377.668 170.834C377.76 170.834 377.835 170.759 377.835 170.667V169H378.168V170.667C378.168 170.759 378.243 170.834 378.335 170.834C378.427 170.834 378.501 170.759 378.501 170.667V169H378.835V170.667C378.835 170.759 378.909 170.834 379.001 170.834C379.093 170.834 379.168 170.759 379.168 170.667V169H380.501V173Z" fill="#666666"/>
<path d="M381.5 167H372.5C372.224 167 372 167.224 372 167.5V176.5C372 176.776 372.224 177 372.5 177H381.5C381.776 177 382 176.776 382 176.5V167.5C382 167.224 381.776 167 381.5 167ZM381.667 176.5C381.667 176.592 381.592 176.667 381.5 176.667H372.5C372.408 176.667 372.333 176.592 372.333 176.5V167.5C372.333 167.408 372.408 167.333 372.5 167.333H381.5C381.592 167.333 381.667 167.408 381.667 167.5V176.5Z" fill="#666666"/>
<path d="M151.783 153.982C151.784 153.982 151.784 153.982 151.784 153.981V151.959C151.784 151.487 151.918 151.061 152.19 150.752C152.459 150.445 152.867 150.256 153.411 150.256C154.499 150.256 155.151 151.012 155.151 151.959V161.377C155.151 162.227 155.008 163.018 154.821 163.693C154.303 165.578 154.017 166.873 153.936 168.601C153.904 169.239 153.932 169.882 154.005 170.518L154.008 170.534C154.07 171.087 153.782 171.631 153.24 171.926C152.362 172.41 150.733 173 148.035 173C145.178 173 143.629 172.279 142.873 171.74C142.477 171.458 142.246 171.037 142.246 170.592V170.583C142.182 169.756 142.12 169.373 141.993 168.958C141.553 167.493 141.696 167.467 140.408 165.7C139.442 164.376 139.049 161.503 138.32 160.234C138.296 160.192 138.267 160.153 138.236 160.116L134.456 155.678C133.886 154.989 133.709 154.033 134.767 153.158C135.748 152.346 136.695 152.95 137.142 153.328L139.932 155.992C140.519 156.552 141.491 156.137 141.491 155.326V143.717C141.491 143.244 141.684 142.816 141.993 142.502C142.304 142.194 142.733 142 143.207 142C144.134 142 144.89 142.737 144.919 143.657V153.981C144.919 153.982 144.92 153.982 144.921 153.982C144.921 153.982 144.922 153.982 144.922 153.981L144.919 149.726C144.919 148.779 145.687 148.012 146.634 148.012C147.581 148.012 148.348 148.779 148.348 149.726L148.351 153.982V150.796C148.351 149.849 149.118 149.081 150.065 149.081C150.537 149.081 150.966 149.275 151.279 149.584C151.588 149.895 151.782 150.323 151.782 150.798V151.959V153.981C151.782 153.982 151.782 153.982 151.783 153.982Z" fill="url(#paint3_linear)"/>
</g>
<path d="M187.602 135.944C187.43 134.986 188.073 134.072 189.033 133.91L196.899 132.578C197.848 132.418 198.749 133.054 198.914 134.002L199.511 137.413C199.638 138.142 199.293 138.873 198.649 139.237L191.303 143.393C190.253 143.987 188.931 143.366 188.718 142.178L187.602 135.944Z" fill="#C4C4C4" stroke="#666666" stroke-width="0.5"/>
<defs>
<filter id="filter0_d" x="49.2608" y="67.0869" width="389.477" height="145.7" filterUnits="userSpaceOnUse" color-interpolation-filters="sRGB">
<feFlood flood-opacity="0" result="BackgroundImageFix"/>
<feColorMatrix in="SourceAlpha" type="matrix" values="0 0 0 0 0 0 0 0 0 0 0 0 0 0 0 0 0 0 127 0"/>
<feOffset dy="3.82612"/>
<feGaussianBlur stdDeviation="2.86959"/>
<feColorMatrix type="matrix" values="0 0 0 0 0 0 0 0 0 0 0 0 0 0 0 0 0 0 0.15 0"/>
<feBlend mode="normal" in2="BackgroundImageFix" result="effect1_dropShadow"/>
<feBlend mode="normal" in="SourceGraphic" in2="effect1_dropShadow" result="shape"/>
</filter>
<filter id="filter1_d" x="137.672" y="137.544" width="10.334" height="9.7689" filterUnits="userSpaceOnUse" color-interpolation-filters="sRGB">
<feFlood flood-opacity="0" result="BackgroundImageFix"/>
<feColorMatrix in="SourceAlpha" type="matrix" values="0 0 0 0 0 0 0 0 0 0 0 0 0 0 0 0 0 0 127 0"/>
<feOffset dx="-0.888082" dy="0.161469"/>
<feGaussianBlur stdDeviation="0.161469"/>
<feColorMatrix type="matrix" values="0 0 0 0 0 0 0 0 0 0 0 0 0 0 0 0 0 0 0.25 0"/>
<feBlend mode="normal" in2="BackgroundImageFix" result="effect1_dropShadow"/>
<feBlend mode="normal" in="SourceGraphic" in2="effect1_dropShadow" result="shape"/>
</filter>
<radialGradient id="paint0_radial" cx="0" cy="0" r="1" gradientUnits="userSpaceOnUse" gradientTransform="translate(143.364 113.364) rotate(-3.52572) scale(108.309 467.629)">
<stop stop-color="white"/>
<stop offset="1" stop-color="#E0E1E2"/>
</radialGradient>
<linearGradient id="paint1_linear" x1="143.387" y1="107.56" x2="143.358" y2="64.7122" gradientUnits="userSpaceOnUse">
<stop stop-color="white"/>
<stop offset="1" stop-color="#E0E1E2"/>
</linearGradient>
<linearGradient id="paint2_linear" x1="395.875" y1="69" x2="395.875" y2="202.697" gradientUnits="userSpaceOnUse">
<stop stop-color="white"/>
<stop offset="1" stop-color="#EEEEEE"/>
</linearGradient>
<linearGradient id="paint3_linear" x1="142.908" y1="141.959" x2="149.014" y2="173.643" gradientUnits="userSpaceOnUse">
<stop stop-color="#FDDAC5"/>
<stop offset="1" stop-color="#FBBC95"/>
</linearGradient>
</defs>
</svg>
