<svg width="496" height="258" viewBox="0 0 496 258" fill="none" xmlns="http://www.w3.org/2000/svg">
<path d="M442.872 94.8745L397.517 112.929L437.658 87.6834C431.134 79.1184 423.805 71.0066 415.741 63.4258L219.043 104.547L396.717 47.5407C388.598 41.5155 379.976 35.9878 370.916 31L71.1949 71.6058C39.3721 105.077 22.0245 146.653 22 189.51H473.162C473.144 156.272 462.695 123.628 442.872 94.8745Z" fill="#D7F2AA"/>
<path d="M346.125 19.0931C315.384 6.49006 281.623 -0.0405193 247.421 0.000189153C177.812 0.000189153 115.577 26.5322 74.2402 68.2194C145.025 55.1824 268.267 32.6145 346.125 19.0931Z" fill="#D7F2AA"/>
<ellipse rx="244.862" ry="60.7702" transform="matrix(0.998584 0.0531999 -0.0510546 0.998696 247.617 183.718)" fill="#B6CD91"/>
<path d="M362.709 45H141V147.277H362.709V45Z" fill="#E0E0E0"/>
<path d="M363 56H140V147H363V56Z" fill="white"/>
<path d="M200.38 79.2139C195.876 79.2139 191.473 80.5395 187.728 83.0232C183.983 85.5069 181.065 89.037 179.341 93.1672C177.617 97.2974 177.166 101.842 178.045 106.227C178.924 110.611 181.093 114.639 184.277 117.8C187.462 120.961 191.52 123.114 195.938 123.986C200.355 124.858 204.934 124.411 209.095 122.7C213.256 120.989 216.813 118.092 219.315 114.375C221.818 110.658 223.153 106.288 223.153 101.817C223.153 98.8488 222.564 95.9096 221.42 93.1672C220.275 90.4249 218.598 87.9331 216.483 85.8342C214.369 83.7353 211.858 82.0704 209.095 80.9344C206.332 79.7985 203.371 79.2139 200.38 79.2139ZM204.465 102.36V113.063H196.414V102.36C195.3 101.523 194.479 100.36 194.067 99.035C193.655 97.7098 193.672 96.2897 194.117 94.9751C194.562 93.6604 195.412 92.5176 196.546 91.7079C197.68 90.8983 199.042 90.4628 200.44 90.4628C201.837 90.4628 203.199 90.8983 204.333 91.7079C205.467 92.5176 206.317 93.6604 206.762 94.9751C207.207 96.2897 207.224 97.7098 206.812 99.035C206.4 100.36 205.579 101.523 204.465 102.36Z" fill="#A0B77B"/>
<path d="M200.313 73C194.522 73 188.861 74.7048 184.046 77.8987C179.231 81.0926 175.478 85.6323 173.262 90.9436C171.046 96.2549 170.466 102.099 171.596 107.738C172.726 113.376 175.514 118.555 179.609 122.621C183.704 126.686 188.921 129.454 194.601 130.576C200.28 131.697 206.167 131.122 211.518 128.922C216.868 126.722 221.44 122.996 224.658 118.216C227.875 113.436 229.592 107.816 229.592 102.067C229.592 94.358 226.507 86.9647 221.016 81.5135C215.525 76.0624 208.078 73 200.313 73ZM205.562 102.766V116.527H195.211V102.766C193.778 101.689 192.722 100.193 192.192 98.4887C191.661 96.7843 191.684 94.9575 192.256 93.2663C192.828 91.5752 193.92 90.105 195.379 89.0635C196.838 88.022 198.59 87.4617 200.387 87.4617C202.184 87.4617 203.935 88.022 205.394 89.0635C206.853 90.105 207.946 91.5752 208.517 93.2663C209.089 94.9575 209.112 96.7843 208.582 98.4887C208.051 100.193 206.995 101.689 205.562 102.766Z" fill="#ABCC75"/>
<path d="M332.334 122.004H297.318V131.121H332.334V122.004Z" fill="#ABCC75"/>
<path d="M244.565 110.332V98.8568H331.455V110.332H244.565Z" fill="white" stroke="#ABCC75" stroke-width="1.75853"/>
<path d="M252.695 104.545H251.084L252.517 103.126C252.542 103.099 252.557 103.064 252.557 103.028C252.557 102.991 252.542 102.956 252.517 102.93C252.504 102.917 252.488 102.907 252.471 102.9C252.454 102.893 252.436 102.889 252.418 102.889C252.4 102.889 252.381 102.893 252.364 102.9C252.348 102.907 252.332 102.917 252.319 102.93L250.887 104.351V102.75C250.887 102.714 250.872 102.679 250.846 102.653C250.82 102.627 250.785 102.612 250.748 102.612C250.711 102.613 250.676 102.628 250.65 102.654C250.624 102.679 250.61 102.714 250.609 102.75V104.351L249.179 102.921C249.166 102.909 249.151 102.898 249.134 102.891C249.117 102.884 249.099 102.881 249.081 102.881C249.062 102.881 249.044 102.884 249.027 102.891C249.01 102.898 248.995 102.909 248.982 102.921C248.956 102.948 248.942 102.983 248.942 103.019C248.942 103.056 248.956 103.091 248.982 103.117L250.414 104.536H248.801C248.765 104.537 248.73 104.552 248.704 104.577C248.678 104.603 248.663 104.638 248.662 104.674C248.662 104.711 248.677 104.746 248.703 104.772C248.729 104.798 248.764 104.812 248.801 104.812H250.414L248.982 106.234C248.956 106.26 248.942 106.295 248.942 106.332C248.942 106.368 248.956 106.404 248.982 106.43C249.009 106.455 249.044 106.469 249.081 106.469C249.117 106.469 249.153 106.455 249.179 106.43L250.609 105.008V106.607C250.609 106.643 250.624 106.678 250.65 106.704C250.676 106.73 250.711 106.745 250.748 106.745C250.785 106.745 250.82 106.73 250.846 106.704C250.872 106.678 250.887 106.643 250.887 106.607V105.008L252.319 106.43C252.346 106.455 252.381 106.469 252.418 106.469C252.455 106.469 252.49 106.455 252.517 106.43C252.542 106.404 252.557 106.368 252.557 106.332C252.557 106.295 252.542 106.26 252.517 106.234L251.084 104.812H252.695C252.732 104.812 252.767 104.798 252.793 104.772C252.819 104.746 252.834 104.711 252.834 104.674C252.832 104.639 252.816 104.606 252.79 104.582C252.764 104.558 252.73 104.544 252.695 104.545Z" fill="#ABCC75"/>
<path d="M258.535 104.543H256.924L258.357 103.124C258.382 103.098 258.397 103.062 258.397 103.026C258.397 102.989 258.382 102.954 258.357 102.928C258.344 102.915 258.328 102.905 258.311 102.898C258.294 102.891 258.276 102.887 258.258 102.887C258.239 102.887 258.221 102.891 258.204 102.898C258.187 102.905 258.172 102.915 258.159 102.928L256.727 104.349V102.748C256.727 102.712 256.712 102.677 256.686 102.651C256.66 102.625 256.625 102.61 256.588 102.61C256.551 102.611 256.516 102.626 256.49 102.652C256.464 102.677 256.449 102.712 256.449 102.748V104.349L255.019 102.92C255.006 102.907 254.991 102.896 254.974 102.889C254.957 102.882 254.939 102.879 254.92 102.879C254.902 102.879 254.884 102.882 254.867 102.889C254.85 102.896 254.835 102.907 254.822 102.92C254.796 102.946 254.782 102.981 254.782 103.018C254.782 103.054 254.796 103.089 254.822 103.115L256.254 104.534H254.641C254.604 104.535 254.569 104.55 254.543 104.576C254.518 104.601 254.503 104.636 254.502 104.672C254.502 104.709 254.517 104.744 254.543 104.77C254.569 104.796 254.604 104.81 254.641 104.81H256.254L254.822 106.232C254.796 106.258 254.782 106.293 254.782 106.33C254.782 106.367 254.796 106.402 254.822 106.428C254.849 106.453 254.884 106.467 254.92 106.467C254.957 106.467 254.992 106.453 255.019 106.428L256.449 105.006V106.605C256.449 106.641 256.463 106.676 256.489 106.702C256.516 106.728 256.551 106.743 256.588 106.743C256.625 106.743 256.66 106.728 256.686 106.702C256.712 106.676 256.727 106.641 256.727 106.605V105.006L258.159 106.428C258.186 106.453 258.221 106.467 258.258 106.467C258.294 106.467 258.33 106.453 258.357 106.428C258.382 106.402 258.397 106.367 258.397 106.33C258.397 106.293 258.382 106.258 258.357 106.232L256.924 104.81H258.535C258.571 104.81 258.607 104.796 258.633 104.77C258.659 104.744 258.674 104.709 258.674 104.672C258.671 104.637 258.656 104.604 258.63 104.58C258.604 104.556 258.57 104.543 258.535 104.543Z" fill="#ABCC75"/>
<path d="M264.374 104.623H262.764L264.196 103.204C264.222 103.178 264.236 103.142 264.236 103.106C264.236 103.069 264.222 103.034 264.196 103.008C264.183 102.995 264.168 102.985 264.151 102.978C264.134 102.971 264.116 102.967 264.098 102.967C264.079 102.967 264.061 102.971 264.044 102.978C264.027 102.985 264.012 102.995 263.999 103.008L262.567 104.429V102.828C262.567 102.792 262.552 102.757 262.526 102.731C262.5 102.705 262.464 102.69 262.428 102.69C262.391 102.691 262.356 102.706 262.33 102.732C262.304 102.757 262.289 102.792 262.289 102.828V104.429L260.859 103C260.846 102.987 260.831 102.976 260.814 102.969C260.797 102.962 260.779 102.959 260.76 102.959C260.742 102.959 260.724 102.962 260.707 102.969C260.69 102.976 260.675 102.987 260.662 103C260.636 103.026 260.622 103.061 260.622 103.098C260.622 103.134 260.636 103.169 260.662 103.196L262.094 104.614H260.481C260.444 104.615 260.409 104.63 260.383 104.656C260.357 104.681 260.343 104.716 260.342 104.752C260.342 104.789 260.356 104.824 260.383 104.85C260.409 104.876 260.444 104.89 260.481 104.89H262.094L260.662 106.312C260.636 106.338 260.622 106.373 260.622 106.41C260.622 106.447 260.636 106.482 260.662 106.508C260.688 106.533 260.724 106.547 260.76 106.547C260.797 106.547 260.832 106.533 260.859 106.508L262.289 105.086V106.685C262.289 106.721 262.303 106.756 262.329 106.782C262.355 106.808 262.391 106.823 262.428 106.823C262.464 106.823 262.5 106.808 262.526 106.782C262.552 106.756 262.567 106.721 262.567 106.685V105.086L263.999 106.508C264.026 106.533 264.061 106.547 264.098 106.547C264.134 106.547 264.17 106.533 264.196 106.508C264.222 106.482 264.236 106.447 264.236 106.41C264.236 106.373 264.222 106.338 264.196 106.312L262.764 104.89H264.374C264.411 104.89 264.447 104.876 264.473 104.85C264.499 104.824 264.513 104.789 264.513 104.752C264.511 104.717 264.496 104.684 264.47 104.66C264.444 104.636 264.41 104.623 264.374 104.623Z" fill="#ABCC75"/>
<path d="M270.214 104.543H268.604L270.036 103.124C270.062 103.098 270.076 103.062 270.076 103.026C270.076 102.989 270.062 102.954 270.036 102.928C270.023 102.915 270.008 102.905 269.991 102.898C269.974 102.891 269.956 102.887 269.937 102.887C269.919 102.887 269.901 102.891 269.884 102.898C269.867 102.905 269.852 102.915 269.839 102.928L268.407 104.349V102.748C268.407 102.712 268.392 102.677 268.366 102.651C268.34 102.625 268.304 102.61 268.267 102.61C268.231 102.611 268.196 102.626 268.17 102.652C268.144 102.677 268.129 102.712 268.128 102.748V104.349L266.699 102.92C266.686 102.907 266.671 102.896 266.654 102.889C266.637 102.882 266.619 102.879 266.6 102.879C266.582 102.879 266.564 102.882 266.547 102.889C266.53 102.896 266.514 102.907 266.501 102.92C266.476 102.946 266.461 102.981 266.461 103.018C266.461 103.054 266.476 103.089 266.501 103.115L267.934 104.534H266.321C266.284 104.535 266.249 104.55 266.223 104.576C266.197 104.601 266.182 104.636 266.182 104.672C266.182 104.709 266.196 104.744 266.222 104.77C266.248 104.796 266.284 104.81 266.321 104.81H267.934L266.501 106.232C266.476 106.258 266.461 106.293 266.461 106.33C266.461 106.367 266.476 106.402 266.501 106.428C266.528 106.453 266.564 106.467 266.6 106.467C266.637 106.467 266.672 106.453 266.699 106.428L268.128 105.006V106.605C268.128 106.641 268.143 106.676 268.169 106.702C268.195 106.728 268.231 106.743 268.267 106.743C268.304 106.743 268.34 106.728 268.366 106.702C268.392 106.676 268.407 106.641 268.407 106.605V105.006L269.839 106.428C269.866 106.453 269.901 106.467 269.937 106.467C269.974 106.467 270.009 106.453 270.036 106.428C270.062 106.402 270.076 106.367 270.076 106.33C270.076 106.293 270.062 106.258 270.036 106.232L268.604 104.81H270.214C270.251 104.81 270.286 104.796 270.313 104.77C270.339 104.744 270.353 104.709 270.353 104.672C270.351 104.637 270.336 104.604 270.31 104.58C270.284 104.556 270.25 104.543 270.214 104.543Z" fill="#ABCC75"/>
<path d="M276.054 104.543H274.444L275.876 103.124C275.902 103.098 275.916 103.062 275.916 103.026C275.916 102.989 275.902 102.954 275.876 102.928C275.863 102.915 275.848 102.905 275.831 102.898C275.814 102.891 275.796 102.887 275.777 102.887C275.759 102.887 275.741 102.891 275.724 102.898C275.707 102.905 275.692 102.915 275.679 102.928L274.246 104.349V102.748C274.246 102.712 274.232 102.677 274.206 102.651C274.18 102.625 274.144 102.61 274.107 102.61C274.071 102.611 274.036 102.626 274.01 102.652C273.984 102.677 273.969 102.712 273.968 102.748V104.349L272.539 102.92C272.526 102.907 272.51 102.896 272.494 102.889C272.477 102.882 272.458 102.879 272.44 102.879C272.422 102.879 272.403 102.882 272.387 102.889C272.37 102.896 272.354 102.907 272.341 102.92C272.316 102.946 272.301 102.981 272.301 103.018C272.301 103.054 272.316 103.089 272.341 103.115L273.774 104.534H272.161C272.124 104.535 272.089 104.55 272.063 104.576C272.037 104.601 272.022 104.636 272.021 104.672C272.021 104.709 272.036 104.744 272.062 104.77C272.088 104.796 272.124 104.81 272.161 104.81H273.774L272.341 106.232C272.316 106.258 272.301 106.293 272.301 106.33C272.301 106.367 272.316 106.402 272.341 106.428C272.368 106.453 272.403 106.467 272.44 106.467C272.477 106.467 272.512 106.453 272.539 106.428L273.968 105.006V106.605C273.968 106.641 273.983 106.676 274.009 106.702C274.035 106.728 274.07 106.743 274.107 106.743C274.144 106.743 274.18 106.728 274.206 106.702C274.232 106.676 274.246 106.641 274.246 106.605V105.006L275.679 106.428C275.705 106.453 275.741 106.467 275.777 106.467C275.814 106.467 275.849 106.453 275.876 106.428C275.902 106.402 275.916 106.367 275.916 106.33C275.916 106.293 275.902 106.258 275.876 106.232L274.444 104.81H276.054C276.091 104.81 276.126 104.796 276.152 104.77C276.178 104.744 276.193 104.709 276.193 104.672C276.191 104.637 276.175 104.604 276.15 104.58C276.124 104.556 276.09 104.543 276.054 104.543Z" fill="#ABCC75"/>
<path d="M281.896 104.543H280.286L281.718 103.124C281.744 103.098 281.758 103.062 281.758 103.026C281.758 102.989 281.744 102.954 281.718 102.928C281.705 102.915 281.69 102.905 281.673 102.898C281.656 102.891 281.637 102.887 281.619 102.887C281.601 102.887 281.583 102.891 281.566 102.898C281.549 102.905 281.533 102.915 281.52 102.928L280.088 104.349V102.748C280.088 102.712 280.073 102.677 280.047 102.651C280.021 102.625 279.986 102.61 279.949 102.61C279.912 102.611 279.877 102.626 279.852 102.652C279.826 102.677 279.811 102.712 279.81 102.748V104.349L278.381 102.92C278.368 102.907 278.352 102.896 278.335 102.889C278.318 102.882 278.3 102.879 278.282 102.879C278.263 102.879 278.245 102.882 278.228 102.889C278.211 102.896 278.196 102.907 278.183 102.92C278.157 102.946 278.143 102.981 278.143 103.018C278.143 103.054 278.157 103.089 278.183 103.115L279.615 104.534H278.002C277.966 104.535 277.931 104.55 277.905 104.576C277.879 104.601 277.864 104.636 277.863 104.672C277.863 104.709 277.878 104.744 277.904 104.77C277.93 104.796 277.965 104.81 278.002 104.81H279.615L278.183 106.232C278.157 106.258 278.143 106.293 278.143 106.33C278.143 106.367 278.157 106.402 278.183 106.428C278.21 106.453 278.245 106.467 278.282 106.467C278.318 106.467 278.354 106.453 278.381 106.428L279.81 105.006V106.605C279.81 106.641 279.825 106.676 279.851 106.702C279.877 106.728 279.912 106.743 279.949 106.743C279.986 106.743 280.021 106.728 280.047 106.702C280.073 106.676 280.088 106.641 280.088 106.605V105.006L281.52 106.428C281.547 106.453 281.582 106.467 281.619 106.467C281.656 106.467 281.691 106.453 281.718 106.428C281.744 106.402 281.758 106.367 281.758 106.33C281.758 106.293 281.744 106.258 281.718 106.232L280.286 104.81H281.896C281.933 104.81 281.968 104.796 281.994 104.77C282.02 104.744 282.035 104.709 282.035 104.672C282.033 104.637 282.017 104.604 281.991 104.58C281.965 104.556 281.931 104.543 281.896 104.543Z" fill="#ABCC75"/>
<path d="M287.736 104.543H286.125L287.558 103.124C287.583 103.098 287.598 103.062 287.598 103.026C287.598 102.989 287.583 102.954 287.558 102.928C287.545 102.915 287.529 102.905 287.512 102.898C287.495 102.891 287.477 102.887 287.459 102.887C287.441 102.887 287.422 102.891 287.405 102.898C287.389 102.905 287.373 102.915 287.36 102.928L285.928 104.349V102.748C285.928 102.712 285.913 102.677 285.887 102.651C285.861 102.625 285.826 102.61 285.789 102.61C285.752 102.611 285.717 102.626 285.691 102.652C285.665 102.677 285.651 102.712 285.65 102.748V104.349L284.22 102.92C284.207 102.907 284.192 102.896 284.175 102.889C284.158 102.882 284.14 102.879 284.122 102.879C284.103 102.879 284.085 102.882 284.068 102.889C284.051 102.896 284.036 102.907 284.023 102.92C283.997 102.946 283.983 102.981 283.983 103.018C283.983 103.054 283.997 103.089 284.023 103.115L285.455 104.534H283.842C283.806 104.535 283.771 104.55 283.745 104.576C283.719 104.601 283.704 104.636 283.703 104.672C283.703 104.709 283.718 104.744 283.744 104.77C283.77 104.796 283.805 104.81 283.842 104.81H285.455L284.023 106.232C283.997 106.258 283.983 106.293 283.983 106.33C283.983 106.367 283.997 106.402 284.023 106.428C284.05 106.453 284.085 106.467 284.122 106.467C284.158 106.467 284.194 106.453 284.22 106.428L285.65 105.006V106.605C285.65 106.641 285.665 106.676 285.691 106.702C285.717 106.728 285.752 106.743 285.789 106.743C285.826 106.743 285.861 106.728 285.887 106.702C285.913 106.676 285.928 106.641 285.928 106.605V105.006L287.36 106.428C287.387 106.453 287.422 106.467 287.459 106.467C287.496 106.467 287.531 106.453 287.558 106.428C287.583 106.402 287.598 106.367 287.598 106.33C287.598 106.293 287.583 106.258 287.558 106.232L286.125 104.81H287.736C287.773 104.81 287.808 104.796 287.834 104.77C287.86 104.744 287.875 104.709 287.875 104.672C287.873 104.637 287.857 104.604 287.831 104.58C287.805 104.556 287.771 104.543 287.736 104.543Z" fill="#ABCC75"/>
<path d="M293.574 104.543H291.963L293.396 103.124C293.421 103.098 293.436 103.062 293.436 103.026C293.436 102.989 293.421 102.954 293.396 102.928C293.383 102.915 293.367 102.905 293.35 102.898C293.333 102.891 293.315 102.887 293.297 102.887C293.279 102.887 293.26 102.891 293.243 102.898C293.226 102.905 293.211 102.915 293.198 102.928L291.766 104.349V102.748C291.766 102.712 291.751 102.677 291.725 102.651C291.699 102.625 291.664 102.61 291.627 102.61C291.59 102.611 291.555 102.626 291.529 102.652C291.503 102.677 291.488 102.712 291.488 102.748V104.349L290.058 102.92C290.045 102.907 290.03 102.896 290.013 102.889C289.996 102.882 289.978 102.879 289.96 102.879C289.941 102.879 289.923 102.882 289.906 102.889C289.889 102.896 289.874 102.907 289.861 102.92C289.835 102.946 289.821 102.981 289.821 103.018C289.821 103.054 289.835 103.089 289.861 103.115L291.293 104.534H289.68C289.643 104.535 289.608 104.55 289.583 104.576C289.557 104.601 289.542 104.636 289.541 104.672C289.541 104.709 289.556 104.744 289.582 104.77C289.608 104.796 289.643 104.81 289.68 104.81H291.293L289.861 106.232C289.835 106.258 289.821 106.293 289.821 106.33C289.821 106.367 289.835 106.402 289.861 106.428C289.888 106.453 289.923 106.467 289.96 106.467C289.996 106.467 290.032 106.453 290.058 106.428L291.488 105.006V106.605C291.488 106.641 291.502 106.676 291.528 106.702C291.555 106.728 291.59 106.743 291.627 106.743C291.664 106.743 291.699 106.728 291.725 106.702C291.751 106.676 291.766 106.641 291.766 106.605V105.006L293.198 106.428C293.225 106.453 293.26 106.467 293.297 106.467C293.334 106.467 293.369 106.453 293.396 106.428C293.421 106.402 293.436 106.367 293.436 106.33C293.436 106.293 293.421 106.258 293.396 106.232L291.963 104.81H293.574C293.61 104.81 293.646 104.796 293.672 104.77C293.698 104.744 293.713 104.709 293.713 104.672C293.711 104.637 293.695 104.604 293.669 104.58C293.643 104.556 293.609 104.543 293.574 104.543Z" fill="#ABCC75"/>
<path d="M299.417 104.543H297.807L299.239 103.124C299.265 103.098 299.279 103.062 299.279 103.026C299.279 102.989 299.265 102.954 299.239 102.928C299.226 102.915 299.211 102.905 299.194 102.898C299.177 102.891 299.159 102.887 299.141 102.887C299.122 102.887 299.104 102.891 299.087 102.898C299.07 102.905 299.055 102.915 299.042 102.928L297.61 104.349V102.748C297.61 102.712 297.595 102.677 297.569 102.651C297.543 102.625 297.507 102.61 297.471 102.61C297.434 102.611 297.399 102.626 297.373 102.652C297.347 102.677 297.332 102.712 297.332 102.748V104.349L295.902 102.92C295.889 102.907 295.874 102.896 295.857 102.889C295.84 102.882 295.822 102.879 295.803 102.879C295.785 102.879 295.767 102.882 295.75 102.889C295.733 102.896 295.718 102.907 295.705 102.92C295.679 102.946 295.665 102.981 295.665 103.018C295.665 103.054 295.679 103.089 295.705 103.115L297.137 104.534H295.524C295.487 104.535 295.452 104.55 295.426 104.576C295.4 104.601 295.385 104.636 295.385 104.672C295.385 104.709 295.399 104.744 295.425 104.77C295.452 104.796 295.487 104.81 295.524 104.81H297.137L295.705 106.232C295.679 106.258 295.665 106.293 295.665 106.33C295.665 106.367 295.679 106.402 295.705 106.428C295.731 106.453 295.767 106.467 295.803 106.467C295.84 106.467 295.875 106.453 295.902 106.428L297.332 105.006V106.605C297.332 106.641 297.346 106.676 297.372 106.702C297.398 106.728 297.434 106.743 297.471 106.743C297.507 106.743 297.543 106.728 297.569 106.702C297.595 106.676 297.61 106.641 297.61 106.605V105.006L299.042 106.428C299.069 106.453 299.104 106.467 299.141 106.467C299.177 106.467 299.213 106.453 299.239 106.428C299.265 106.402 299.279 106.367 299.279 106.33C299.279 106.293 299.265 106.258 299.239 106.232L297.807 104.81H299.417C299.454 104.81 299.49 104.796 299.516 104.77C299.542 104.744 299.556 104.709 299.556 104.672C299.554 104.637 299.539 104.604 299.513 104.58C299.487 104.556 299.453 104.543 299.417 104.543Z" fill="#ABCC75"/>
<path d="M305.255 104.543H303.645L305.077 103.124C305.103 103.098 305.117 103.062 305.117 103.026C305.117 102.989 305.103 102.954 305.077 102.928C305.064 102.915 305.049 102.905 305.032 102.898C305.015 102.891 304.997 102.887 304.979 102.887C304.96 102.887 304.942 102.891 304.925 102.898C304.908 102.905 304.893 102.915 304.88 102.928L303.448 104.349V102.748C303.448 102.712 303.433 102.677 303.407 102.651C303.381 102.625 303.345 102.61 303.308 102.61C303.272 102.611 303.237 102.626 303.211 102.652C303.185 102.677 303.17 102.712 303.169 102.748V104.349L301.74 102.92C301.727 102.907 301.712 102.896 301.695 102.889C301.678 102.882 301.66 102.879 301.641 102.879C301.623 102.879 301.605 102.882 301.588 102.889C301.571 102.896 301.555 102.907 301.542 102.92C301.517 102.946 301.502 102.981 301.502 103.018C301.502 103.054 301.517 103.089 301.542 103.115L302.975 104.534H301.362C301.325 104.535 301.29 104.55 301.264 104.576C301.238 104.601 301.223 104.636 301.223 104.672C301.223 104.709 301.237 104.744 301.263 104.77C301.289 104.796 301.325 104.81 301.362 104.81H302.975L301.542 106.232C301.517 106.258 301.502 106.293 301.502 106.33C301.502 106.367 301.517 106.402 301.542 106.428C301.569 106.453 301.605 106.467 301.641 106.467C301.678 106.467 301.713 106.453 301.74 106.428L303.169 105.006V106.605C303.169 106.641 303.184 106.676 303.21 106.702C303.236 106.728 303.272 106.743 303.308 106.743C303.345 106.743 303.381 106.728 303.407 106.702C303.433 106.676 303.448 106.641 303.448 106.605V105.006L304.88 106.428C304.907 106.453 304.942 106.467 304.979 106.467C305.015 106.467 305.05 106.453 305.077 106.428C305.103 106.402 305.117 106.367 305.117 106.33C305.117 106.293 305.103 106.258 305.077 106.232L303.645 104.81H305.255C305.292 104.81 305.327 104.796 305.354 104.77C305.38 104.744 305.394 104.709 305.394 104.672C305.392 104.637 305.377 104.604 305.351 104.58C305.325 104.556 305.291 104.543 305.255 104.543Z" fill="#ABCC75"/>
<path d="M311.097 104.623H309.487L310.919 103.204C310.945 103.178 310.959 103.142 310.959 103.106C310.959 103.069 310.945 103.034 310.919 103.008C310.906 102.995 310.891 102.985 310.874 102.978C310.857 102.971 310.839 102.967 310.82 102.967C310.802 102.967 310.784 102.971 310.767 102.978C310.75 102.985 310.734 102.995 310.722 103.008L309.289 104.429V102.828C309.289 102.792 309.275 102.757 309.249 102.731C309.222 102.705 309.187 102.69 309.15 102.69C309.114 102.691 309.079 102.706 309.053 102.732C309.027 102.757 309.012 102.792 309.011 102.828V104.429L307.582 103C307.569 102.987 307.553 102.976 307.536 102.969C307.52 102.962 307.501 102.959 307.483 102.959C307.465 102.959 307.446 102.962 307.43 102.969C307.413 102.976 307.397 102.987 307.384 103C307.359 103.026 307.344 103.061 307.344 103.098C307.344 103.134 307.359 103.169 307.384 103.196L308.817 104.614H307.204C307.167 104.615 307.132 104.63 307.106 104.656C307.08 104.681 307.065 104.716 307.064 104.752C307.064 104.789 307.079 104.824 307.105 104.85C307.131 104.876 307.167 104.89 307.204 104.89H308.817L307.384 106.312C307.359 106.338 307.344 106.373 307.344 106.41C307.344 106.447 307.359 106.482 307.384 106.508C307.411 106.533 307.446 106.547 307.483 106.547C307.52 106.547 307.555 106.533 307.582 106.508L309.011 105.086V106.685C309.011 106.721 309.026 106.756 309.052 106.782C309.078 106.808 309.113 106.823 309.15 106.823C309.187 106.823 309.222 106.808 309.249 106.782C309.275 106.756 309.289 106.721 309.289 106.685V105.086L310.722 106.508C310.748 106.533 310.784 106.547 310.82 106.547C310.857 106.547 310.892 106.533 310.919 106.508C310.945 106.482 310.959 106.447 310.959 106.41C310.959 106.373 310.945 106.338 310.919 106.312L309.487 104.89H311.097C311.134 104.89 311.169 104.876 311.195 104.85C311.221 104.824 311.236 104.789 311.236 104.752C311.234 104.717 311.218 104.684 311.192 104.66C311.167 104.636 311.132 104.623 311.097 104.623Z" fill="#ABCC75"/>
<path d="M316.849 104.623H315.239L316.671 103.204C316.697 103.178 316.711 103.142 316.711 103.106C316.711 103.069 316.697 103.034 316.671 103.008C316.658 102.995 316.643 102.985 316.626 102.978C316.609 102.971 316.591 102.967 316.572 102.967C316.554 102.967 316.536 102.971 316.519 102.978C316.502 102.985 316.486 102.995 316.473 103.008L315.041 104.429V102.828C315.041 102.792 315.027 102.757 315.001 102.731C314.974 102.705 314.939 102.69 314.902 102.69C314.866 102.691 314.831 102.706 314.805 102.732C314.779 102.757 314.764 102.792 314.763 102.828V104.429L313.334 103C313.321 102.987 313.305 102.976 313.288 102.969C313.271 102.962 313.253 102.959 313.235 102.959C313.217 102.959 313.198 102.962 313.181 102.969C313.165 102.976 313.149 102.987 313.136 103C313.111 103.026 313.096 103.061 313.096 103.098C313.096 103.134 313.111 103.169 313.136 103.196L314.568 104.614H312.955C312.919 104.615 312.884 104.63 312.858 104.656C312.832 104.681 312.817 104.716 312.816 104.752C312.816 104.789 312.831 104.824 312.857 104.85C312.883 104.876 312.919 104.89 312.955 104.89H314.568L313.136 106.312C313.111 106.338 313.096 106.373 313.096 106.41C313.096 106.447 313.111 106.482 313.136 106.508C313.163 106.533 313.198 106.547 313.235 106.547C313.272 106.547 313.307 106.533 313.334 106.508L314.763 105.086V106.685C314.763 106.721 314.778 106.756 314.804 106.782C314.83 106.808 314.865 106.823 314.902 106.823C314.939 106.823 314.974 106.808 315.001 106.782C315.027 106.756 315.041 106.721 315.041 106.685V105.086L316.473 106.508C316.5 106.533 316.536 106.547 316.572 106.547C316.609 106.547 316.644 106.533 316.671 106.508C316.697 106.482 316.711 106.447 316.711 106.41C316.711 106.373 316.697 106.338 316.671 106.312L315.239 104.89H316.849C316.886 104.89 316.921 104.876 316.947 104.85C316.973 104.824 316.988 104.789 316.988 104.752C316.986 104.717 316.97 104.684 316.944 104.66C316.919 104.636 316.884 104.623 316.849 104.623Z" fill="#ABCC75"/>
<path d="M322.587 104.623H320.977L322.409 103.204C322.435 103.178 322.449 103.142 322.449 103.106C322.449 103.069 322.435 103.034 322.409 103.008C322.396 102.995 322.381 102.985 322.364 102.978C322.347 102.971 322.329 102.967 322.311 102.967C322.292 102.967 322.274 102.971 322.257 102.978C322.24 102.985 322.225 102.995 322.212 103.008L320.78 104.429V102.828C320.78 102.792 320.765 102.757 320.739 102.731C320.713 102.705 320.677 102.69 320.64 102.69C320.604 102.691 320.569 102.706 320.543 102.732C320.517 102.757 320.502 102.792 320.501 102.828V104.429L319.072 103C319.059 102.987 319.044 102.976 319.027 102.969C319.01 102.962 318.992 102.959 318.973 102.959C318.955 102.959 318.937 102.962 318.92 102.969C318.903 102.976 318.887 102.987 318.874 103C318.849 103.026 318.834 103.061 318.834 103.098C318.834 103.134 318.849 103.169 318.874 103.196L320.307 104.614H318.694C318.657 104.615 318.622 104.63 318.596 104.656C318.57 104.681 318.555 104.716 318.555 104.752C318.555 104.789 318.569 104.824 318.595 104.85C318.621 104.876 318.657 104.89 318.694 104.89H320.307L318.874 106.312C318.849 106.338 318.834 106.373 318.834 106.41C318.834 106.447 318.849 106.482 318.874 106.508C318.901 106.533 318.937 106.547 318.973 106.547C319.01 106.547 319.045 106.533 319.072 106.508L320.501 105.086V106.685C320.501 106.721 320.516 106.756 320.542 106.782C320.568 106.808 320.604 106.823 320.64 106.823C320.677 106.823 320.713 106.808 320.739 106.782C320.765 106.756 320.78 106.721 320.78 106.685V105.086L322.212 106.508C322.239 106.533 322.274 106.547 322.311 106.547C322.347 106.547 322.382 106.533 322.409 106.508C322.435 106.482 322.449 106.447 322.449 106.41C322.449 106.373 322.435 106.338 322.409 106.312L320.977 104.89H322.587C322.624 104.89 322.659 104.876 322.686 104.85C322.712 104.824 322.726 104.789 322.726 104.752C322.724 104.717 322.709 104.684 322.683 104.66C322.657 104.636 322.623 104.623 322.587 104.623Z" fill="#ABCC75"/>
<path d="M328.327 104.623H326.717L328.149 103.204C328.175 103.178 328.189 103.142 328.189 103.106C328.189 103.069 328.175 103.034 328.149 103.008C328.137 102.995 328.121 102.985 328.104 102.978C328.087 102.971 328.069 102.967 328.051 102.967C328.032 102.967 328.014 102.971 327.997 102.978C327.98 102.985 327.965 102.995 327.952 103.008L326.52 104.429V102.828C326.52 102.792 326.505 102.757 326.479 102.731C326.453 102.705 326.418 102.69 326.381 102.69C326.344 102.691 326.309 102.706 326.283 102.732C326.257 102.757 326.242 102.792 326.242 102.828V104.429L324.812 103C324.799 102.987 324.784 102.976 324.767 102.969C324.75 102.962 324.732 102.959 324.713 102.959C324.695 102.959 324.677 102.962 324.66 102.969C324.643 102.976 324.628 102.987 324.615 103C324.589 103.026 324.575 103.061 324.575 103.098C324.575 103.134 324.589 103.169 324.615 103.196L326.047 104.614H324.434C324.397 104.615 324.362 104.63 324.336 104.656C324.31 104.681 324.296 104.716 324.295 104.752C324.295 104.789 324.31 104.824 324.336 104.85C324.362 104.876 324.397 104.89 324.434 104.89H326.047L324.615 106.312C324.589 106.338 324.575 106.373 324.575 106.41C324.575 106.447 324.589 106.482 324.615 106.508C324.642 106.533 324.677 106.547 324.713 106.547C324.75 106.547 324.785 106.533 324.812 106.508L326.242 105.086V106.685C326.242 106.721 326.256 106.756 326.282 106.782C326.308 106.808 326.344 106.823 326.381 106.823C326.418 106.823 326.453 106.808 326.479 106.782C326.505 106.756 326.52 106.721 326.52 106.685V105.086L327.952 106.508C327.979 106.533 328.014 106.547 328.051 106.547C328.087 106.547 328.123 106.533 328.149 106.508C328.175 106.482 328.189 106.447 328.189 106.41C328.189 106.373 328.175 106.338 328.149 106.312L326.717 104.89H328.327C328.364 104.89 328.4 104.876 328.426 104.85C328.452 104.824 328.467 104.789 328.467 104.752C328.464 104.717 328.449 104.684 328.423 104.66C328.397 104.636 328.363 104.623 328.327 104.623Z" fill="#ABCC75"/>
<path d="M244.565 90.483V79.0082H331.455V90.483H244.565Z" fill="white" stroke="#ABCC75" stroke-width="1.75853"/>
<rect opacity="0.5" x="247.713" y="82.9248" width="80.5898" height="3.41898" fill="#ABCC75"/>
<path d="M362.619 45H140.373V54.367H362.619V45Z" fill="#ABCC75"/>
<path d="M147.055 50.0447C147.055 50.9196 146.34 51.6309 145.455 51.6309C144.57 51.6309 143.855 50.9196 143.855 50.0447C143.855 49.1699 144.57 48.4586 145.455 48.4586C146.34 48.4586 147.055 49.1699 147.055 50.0447Z" fill="#FA5959" stroke="white" stroke-width="0.3"/>
<path d="M153.698 50.0447C153.698 50.9196 152.982 51.6309 152.098 51.6309C151.213 51.6309 150.498 50.9196 150.498 50.0447C150.498 49.1699 151.213 48.4586 152.098 48.4586C152.982 48.4586 153.698 49.1699 153.698 50.0447Z" fill="#FED253" stroke="white" stroke-width="0.3"/>
<path d="M160.34 50.0447C160.34 50.9196 159.625 51.6309 158.74 51.6309C157.855 51.6309 157.14 50.9196 157.14 50.0447C157.14 49.1699 157.855 48.4586 158.74 48.4586C159.625 48.4586 160.34 49.1699 160.34 50.0447Z" fill="#8CCF4D" stroke="white" stroke-width="0.3"/>
<path opacity="0.1" d="M144.838 147.522C145.072 148.429 175.8 149.41 176.119 149.136C176.405 148.785 176.652 148.404 176.858 148.001L144.944 145.75C144.849 146.336 144.813 146.93 144.838 147.522Z" fill="black"/>
<path d="M159.673 152.206C159.676 151.64 159.558 151.08 159.328 150.562C159.098 150.045 158.76 149.581 158.336 149.202C157.913 148.822 157.413 148.536 156.871 148.362C156.328 148.187 155.754 148.129 155.187 148.19C155.008 148.21 154.83 148.242 154.655 148.287L140.95 136.633L141.769 132.254L135.015 130.082L132.978 137.1C132.737 137.942 132.776 138.839 133.09 139.658C133.404 140.476 133.975 141.172 134.719 141.643L151.578 152.222C151.578 152.353 151.585 152.485 151.599 152.616C151.66 153.178 151.841 153.722 152.129 154.211C152.417 154.699 152.806 155.122 153.27 155.451C153.734 155.78 154.263 156.008 154.822 156.12C155.382 156.232 155.958 156.226 156.515 156.102C156.677 156.066 156.836 156.02 156.992 155.965C157.772 155.685 158.447 155.175 158.927 154.503C159.406 153.831 159.666 153.029 159.673 152.206Z" fill="#FFB774"/>
<path d="M125.601 165.723H143.27C143.27 166.227 161.481 166.635 161.481 166.635C161.767 166.849 162.027 167.094 162.257 167.366C162.949 168.184 163.327 169.219 163.325 170.287V171.017C163.324 172.227 162.84 173.388 161.977 174.244C161.114 175.1 159.944 175.581 158.724 175.581H125.601C124.381 175.58 123.211 175.099 122.349 174.243C121.486 173.387 121.001 172.227 121 171.017V170.287C121.002 169.077 121.487 167.917 122.349 167.061C123.212 166.206 124.381 165.724 125.601 165.723Z" fill="#333333"/>
<path d="M144.822 175.399H140.037V206.07H144.822V175.399Z" fill="#333333"/>
<path d="M158.438 206.452C158.438 207.027 151.188 206.675 142.245 206.675C133.301 206.675 126.051 207.027 126.051 206.452C126.051 205.878 133.301 201.324 142.245 201.324C151.188 201.324 158.438 205.878 158.438 206.452Z" fill="#333333"/>
<path d="M154.12 202.31L158.632 202.309L160.779 190.699L154.119 190.7L154.12 202.31Z" fill="#FFB774"/>
<path d="M152.969 206.649L167.518 206.648V206.466C167.518 205.728 167.371 204.997 167.087 204.316C166.802 203.634 166.385 203.015 165.859 202.493C165.334 201.971 164.709 201.558 164.022 201.275C163.335 200.993 162.599 200.848 161.855 200.848H161.855L152.969 200.848L152.969 206.649Z" fill="#2F2E41"/>
<path d="M160.869 195.111L169.864 175.099C170.615 173.412 170.698 171.507 170.097 169.762C169.495 168.017 168.253 166.561 166.619 165.684L147.107 155.304L138.204 154.553L129.991 153.812L129.932 153.912C129.856 154.039 128.09 157.065 129.284 160.383C130.189 162.899 132.545 164.865 136.284 166.225C145.012 169.4 155.094 172.114 159.024 173.133C159.197 173.177 159.36 173.257 159.5 173.368C159.64 173.479 159.755 173.618 159.838 173.776C159.92 173.932 159.969 174.103 159.981 174.279C159.994 174.455 159.97 174.631 159.91 174.798L151.553 193.425C151.466 193.661 151.434 193.914 151.461 194.164C151.488 194.414 151.572 194.655 151.708 194.868C151.843 195.08 152.026 195.259 152.242 195.391C152.459 195.522 152.702 195.603 152.955 195.626L159.199 196.077C159.252 196.082 159.305 196.085 159.358 196.085C159.677 196.084 159.99 195.992 160.259 195.82C160.527 195.647 160.739 195.401 160.869 195.111Z" fill="#888888"/>
<path d="M150.821 202.347L155.333 202.346L157.48 190.736L150.82 190.737L150.821 202.347Z" fill="#FFB774"/>
<path d="M150.024 206.649L164.573 206.648V206.466C164.573 205.728 164.426 204.997 164.142 204.316C163.857 203.634 163.44 203.015 162.914 202.493C162.388 201.971 161.764 201.558 161.077 201.275C160.39 200.993 159.654 200.848 158.91 200.848H158.909L150.023 200.848L150.024 206.649Z" fill="#2F2E41"/>
<path d="M157.556 196.206L166.551 176.194C167.302 174.507 167.385 172.601 166.784 170.857C166.182 169.112 164.941 167.656 163.306 166.779L143.794 156.399L134.891 155.648L128.458 155.094L128.459 155.007C128.384 155.134 126.618 158.16 127.811 161.478C128.717 163.994 129.232 165.96 132.971 167.32C141.699 170.495 151.781 173.209 155.711 174.228C155.885 174.272 156.047 174.352 156.187 174.463C156.327 174.573 156.442 174.712 156.525 174.87C156.607 175.027 156.656 175.198 156.669 175.374C156.681 175.55 156.657 175.726 156.597 175.892L148.24 194.519C148.153 194.756 148.121 195.009 148.148 195.259C148.175 195.509 148.259 195.75 148.395 195.962C148.53 196.175 148.713 196.354 148.929 196.486C149.146 196.617 149.389 196.698 149.642 196.721L155.886 197.172C155.939 197.177 155.992 197.179 156.045 197.179C156.365 197.179 156.677 197.087 156.946 196.914C157.214 196.742 157.426 196.495 157.556 196.206Z" fill="#888888"/>
<path d="M140.604 155.671C141.035 155.368 147.228 158.592 148.332 156.036C143.18 143.257 146.73 137.738 143.574 130.41C143.018 129.146 142.181 128.023 141.125 127.126C140.069 126.23 138.822 125.582 137.477 125.232L129.288 124.822L129.246 124.843C127.398 125.741 125.891 127.205 124.948 129.02C124.006 130.834 123.677 132.902 124.012 134.916C124.042 142.892 128.852 148.974 127.17 154.759C127.099 155.001 127.079 155.255 127.109 155.505C127.14 155.755 127.221 155.996 127.348 156.214C127.471 156.425 127.636 156.608 127.833 156.753C128.03 156.898 128.256 157.002 128.495 157.057L139.307 155.626C139.56 155.686 139.822 155.691 140.077 155.642C140.332 155.593 140.573 155.491 140.785 155.342L140.604 155.671Z" fill="#333333"/>
<path d="M132.022 121.576C137.014 121.576 141.061 117.56 141.061 112.608C141.061 107.655 137.014 103.64 132.022 103.64C127.03 103.64 122.982 107.655 122.982 112.608C122.982 117.56 127.03 121.576 132.022 121.576Z" fill="#FFB774"/>
<path d="M129.141 120.839C129.621 121.048 130.605 117.251 130.164 116.491C129.509 115.362 129.548 115.37 129.113 114.623C128.678 113.876 128.58 112.853 129.144 112.196C129.707 111.538 131.01 111.626 131.267 112.45C131.102 110.884 132.663 109.626 134.209 109.272C135.755 108.919 137.386 109.138 138.941 108.823C140.745 108.458 142.622 106.958 141.903 104.989C141.779 104.662 141.594 104.36 141.358 104.1C140.526 103.173 139.362 102.777 138.225 102.393C135.858 101.597 133.427 100.79 130.929 100.878C126.826 101.022 122.947 103.837 121.564 107.672C121.392 108.151 121.259 108.643 121.165 109.142C120.308 113.715 122.985 118.226 127.332 119.967L129.141 120.839Z" fill="#333333"/>
<path d="M176.546 135.26L177.583 141.366C177.595 141.434 177.587 141.504 177.561 141.568L169.429 161.728C169.396 161.808 169.338 161.874 169.262 161.916C169.186 161.958 169.099 161.973 169.013 161.959C168.928 161.944 168.85 161.901 168.793 161.837C168.735 161.772 168.702 161.69 168.698 161.604L168.354 153.503C168.352 153.449 168.361 153.395 168.381 153.345L175.822 135.181C175.853 135.105 175.908 135.041 175.979 134.999C176.05 134.957 176.132 134.94 176.214 134.949C176.296 134.957 176.373 134.993 176.433 135.049C176.493 135.105 176.533 135.179 176.546 135.26Z" fill="#333333"/>
<path d="M175.972 135.729L176.957 140.976L169.74 159.372L168.803 153.454L175.972 135.729Z" fill="#ABCC75"/>
<path d="M144.523 161.57C144.701 162.258 168.014 163.002 168.256 162.794C168.472 162.528 168.66 162.239 168.816 161.934C169.061 161.501 169.287 161.067 169.287 161.067L168.904 153.752L145.939 151.317C145.939 151.317 144.923 157.421 144.604 160.226C144.532 160.67 144.505 161.121 144.523 161.57Z" fill="#3F3D56"/>
<path opacity="0.25" d="M165.771 154.591L165.773 160.893L155.615 160.176L156.065 153.906L165.771 154.591Z" fill="#333333"/>
<path opacity="0.25" d="M152.856 155.583L152.918 155.575L152.438 158.254L146.795 157.856L146.988 155.169L152.856 155.583Z" fill="#333333"/>
<path d="M135.035 150.712L154.7 154.352C154.749 154.475 154.805 154.594 154.866 154.711C155.134 155.21 155.504 155.647 155.952 155.994C156.401 156.342 156.918 156.592 157.471 156.728C158.026 156.867 158.604 156.886 159.167 156.785C159.729 156.684 160.264 156.464 160.734 156.142C161.587 155.561 162.183 154.679 162.401 153.677C162.619 152.674 162.442 151.627 161.906 150.75C161.371 149.872 160.517 149.231 159.521 148.958C158.524 148.685 157.46 148.801 156.547 149.281C156.388 149.366 156.235 149.461 156.089 149.567L139.008 143.778L138.134 139.409L131.049 139.874L131.783 147.198C131.872 148.053 132.236 148.856 132.822 149.489C133.408 150.122 134.184 150.551 135.035 150.712Z" fill="#FFB774"/>
<path d="M130.749 143.502L141.044 140.145L138.642 133.304C138.324 132.396 137.691 131.628 136.857 131.138C136.023 130.647 135.041 130.465 134.085 130.623C133.118 130.783 132.24 131.281 131.61 132.027C130.98 132.773 130.64 133.717 130.651 134.69L130.749 143.502Z" fill="#333333"/>
<path d="M365.479 213C378.535 213 389.118 210.965 389.118 208.455C389.118 205.944 378.535 203.909 365.479 203.909C352.424 203.909 341.84 205.944 341.84 208.455C341.84 210.965 352.424 213 365.479 213Z" fill="#9AB869"/>
<path d="M365.872 210.127C367.392 210.127 368.623 208.514 368.623 206.525C368.623 204.535 367.392 202.923 365.872 202.923C364.353 202.923 363.121 204.535 363.121 206.525C363.121 208.514 364.353 210.127 365.872 210.127Z" fill="#414764"/>
<path d="M365.872 205.722C367.392 205.722 368.623 204.11 368.623 202.12C368.623 200.131 367.392 198.519 365.872 198.519C364.353 198.519 363.121 200.131 363.121 202.12C363.121 204.11 364.353 205.722 365.872 205.722Z" fill="#414764"/>
<path d="M365.872 201.317C367.392 201.317 368.623 199.704 368.623 197.715C368.623 195.726 367.392 194.113 365.872 194.113C364.353 194.113 363.121 195.726 363.121 197.715C363.121 199.704 364.353 201.317 365.872 201.317Z" fill="#414764"/>
<path d="M365.872 196.914C367.392 196.914 368.623 195.301 368.623 193.312C368.623 191.323 367.392 189.71 365.872 189.71C364.353 189.71 363.121 191.323 363.121 193.312C363.121 195.301 364.353 196.914 365.872 196.914Z" fill="#414764"/>
<path d="M365.876 192.512C367.396 192.512 368.627 190.9 368.627 188.911C368.627 186.921 367.396 185.309 365.876 185.309C364.357 185.309 363.125 186.921 363.125 188.911C363.125 190.9 364.357 192.512 365.876 192.512Z" fill="#414764"/>
<path d="M355.569 149.968C355.193 149.488 354.849 148.984 354.541 148.458L361.776 147.273L353.955 147.332C353.204 145.7 352.794 143.932 352.75 142.136C352.706 140.34 353.028 138.554 353.698 136.887L364.193 142.329L354.52 135.213C355.428 133.649 356.649 132.288 358.105 131.216C359.561 130.143 361.223 129.382 362.986 128.979C364.749 128.576 366.577 128.54 368.354 128.873C370.132 129.207 371.822 129.902 373.319 130.917C374.817 131.931 376.089 133.243 377.058 134.77C378.027 136.298 378.671 138.008 378.95 139.795C379.23 141.582 379.138 143.407 378.682 145.157C378.226 146.907 377.414 148.545 376.298 149.968C376.884 150.712 377.388 151.518 377.8 152.371L368.412 157.256L378.422 153.896C379.124 155.973 379.298 158.191 378.927 160.352C378.556 162.512 377.653 164.546 376.298 166.27C377.828 168.215 378.78 170.551 379.044 173.011C379.309 175.471 378.876 177.955 377.795 180.181C376.714 182.407 375.029 184.283 372.931 185.596C370.834 186.909 368.41 187.605 365.935 187.605C363.461 187.605 361.036 186.909 358.939 185.596C356.842 184.283 355.156 182.407 354.075 180.181C352.994 177.955 352.561 175.471 352.826 173.011C353.091 170.551 354.042 168.215 355.572 166.27C353.745 163.946 352.751 161.075 352.751 158.119C352.751 155.162 353.745 152.292 355.572 149.968H355.569Z" fill="#ABCC75"/>
<path opacity="0.1" d="M379.126 158.118C379.128 161.076 378.132 163.949 376.298 166.27C377.828 168.215 378.78 170.551 379.044 173.011C379.309 175.471 378.876 177.956 377.795 180.181C376.714 182.407 375.028 184.283 372.931 185.596C370.834 186.909 368.409 187.605 365.935 187.605C363.461 187.605 361.036 186.909 358.939 185.596C356.841 184.283 355.156 182.407 354.075 180.181C352.994 177.956 352.561 175.471 352.826 173.011C353.09 170.551 354.042 168.215 355.572 166.27C353.803 164.026 379.126 156.639 379.126 158.118Z" fill="black"/>
<path d="M329.382 188.493C337.265 188.493 343.656 187.264 343.656 185.749C343.656 184.233 337.265 183.004 329.382 183.004C321.498 183.004 315.107 184.233 315.107 185.749C315.107 187.264 321.498 188.493 329.382 188.493Z" fill="#9AB869"/>
<path d="M329.62 186.758C330.538 186.758 331.281 185.784 331.281 184.583C331.281 183.382 330.538 182.408 329.62 182.408C328.703 182.408 327.959 183.382 327.959 184.583C327.959 185.784 328.703 186.758 329.62 186.758Z" fill="#414764"/>
<path d="M329.62 184.099C330.538 184.099 331.281 183.125 331.281 181.924C331.281 180.723 330.538 179.749 329.62 179.749C328.703 179.749 327.959 180.723 327.959 181.924C327.959 183.125 328.703 184.099 329.62 184.099Z" fill="#414764"/>
<path d="M329.62 181.44C330.538 181.44 331.281 180.466 331.281 179.265C331.281 178.064 330.538 177.09 329.62 177.09C328.703 177.09 327.959 178.064 327.959 179.265C327.959 180.466 328.703 181.44 329.62 181.44Z" fill="#414764"/>
<path d="M329.62 178.78C330.538 178.78 331.281 177.806 331.281 176.605C331.281 175.403 330.538 174.43 329.62 174.43C328.703 174.43 327.959 175.403 327.959 176.605C327.959 177.806 328.703 178.78 329.62 178.78Z" fill="#414764"/>
<path d="M329.622 176.122C330.54 176.122 331.283 175.149 331.283 173.947C331.283 172.746 330.54 171.772 329.622 171.772C328.705 171.772 327.961 172.746 327.961 173.947C327.961 175.149 328.705 176.122 329.622 176.122Z" fill="#414764"/>
<path d="M323.398 150.433C323.171 150.143 322.963 149.839 322.777 149.521L327.146 148.806L322.423 148.841C321.97 147.856 321.722 146.788 321.696 145.703C321.669 144.619 321.864 143.54 322.268 142.534L328.606 145.82L322.765 141.523C323.313 140.579 324.05 139.757 324.929 139.109C325.809 138.462 326.812 138.002 327.877 137.759C328.941 137.515 330.045 137.494 331.118 137.695C332.192 137.896 333.212 138.316 334.116 138.929C335.021 139.542 335.789 140.334 336.374 141.256C336.959 142.178 337.348 143.211 337.516 144.29C337.685 145.369 337.63 146.471 337.355 147.528C337.079 148.584 336.589 149.573 335.915 150.433C336.269 150.882 336.573 151.369 336.822 151.884L331.153 154.834L337.197 152.805C337.622 154.059 337.726 155.398 337.502 156.703C337.279 158.008 336.733 159.236 335.915 160.277C336.839 161.451 337.413 162.861 337.573 164.347C337.733 165.832 337.472 167.333 336.819 168.677C336.166 170.02 335.148 171.153 333.882 171.946C332.616 172.739 331.152 173.159 329.657 173.159C328.163 173.159 326.699 172.739 325.433 171.946C324.166 171.153 323.149 170.02 322.496 168.677C321.843 167.333 321.582 165.832 321.742 164.347C321.901 162.861 322.476 161.451 323.4 160.277C322.296 158.873 321.697 157.14 321.697 155.355C321.697 153.569 322.296 151.836 323.4 150.433H323.398Z" fill="#ABCC75"/>
<path opacity="0.1" d="M337.622 155.353C337.624 157.14 337.022 158.874 335.915 160.276C336.838 161.451 337.413 162.861 337.573 164.346C337.733 165.832 337.471 167.332 336.818 168.676C336.166 170.02 335.148 171.153 333.881 171.946C332.615 172.739 331.151 173.159 329.657 173.159C328.163 173.159 326.699 172.739 325.432 171.946C324.166 171.153 323.148 170.02 322.495 168.676C321.843 167.332 321.581 165.832 321.741 164.346C321.901 162.861 322.476 161.451 323.399 160.276C322.331 158.921 337.622 154.461 337.622 155.353Z" fill="black"/>
</svg>
