<svg width="496" height="256" viewBox="0 0 496 256" fill="none" xmlns="http://www.w3.org/2000/svg">
<path d="M442.872 94.9741L397.517 113.029L437.658 87.783C431.134 79.218 423.805 71.1062 415.741 63.5254L219.043 104.647L396.717 47.6404C388.598 41.6151 379.976 36.0874 370.916 31.0996L71.1949 71.7054C39.3721 105.176 22.0245 146.753 22 189.609H473.162C473.144 156.372 462.695 123.727 442.872 94.9741Z" fill="#D7F2AA"/>
<path d="M346.124 19.0931C315.383 6.49006 281.622 -0.0405193 247.42 0.000189153C177.811 0.000189153 115.576 26.5322 74.2393 68.2194C145.024 55.1824 268.266 32.6145 346.124 19.0931Z" fill="#D7F2AA"/>
<ellipse rx="244.862" ry="48.7192" transform="matrix(0.998584 0.0531999 -0.0510546 0.998696 247.232 186.247)" fill="#B6CD91"/>
<ellipse rx="244.862" ry="60.7702" transform="matrix(0.998584 0.0531999 -0.0510546 0.998696 247.617 182.718)" fill="#B6CD91"/>
<path d="M231.8 82.2136H230.986V59.9092C230.986 58.2139 230.653 56.5353 230.005 54.9691C229.357 53.4028 228.407 51.9797 227.21 50.781C226.013 49.5823 224.591 48.6314 223.027 47.9826C221.463 47.3339 219.786 47 218.093 47H170.894C169.201 47 167.524 47.3339 165.96 47.9826C164.395 48.6314 162.974 49.5823 161.777 50.781C160.579 51.9797 159.629 53.4028 158.981 54.9691C158.334 56.5353 158 58.2139 158 59.9092V182.273C158 183.968 158.334 185.647 158.981 187.213C159.629 188.779 160.579 190.202 161.777 191.401C162.974 192.6 164.395 193.551 165.96 194.2C167.524 194.848 169.201 195.182 170.894 195.182H218.093C219.786 195.182 221.463 194.848 223.027 194.2C224.591 193.551 226.013 192.6 227.21 191.401C228.407 190.202 229.357 188.779 230.005 187.213C230.653 185.647 230.986 183.968 230.986 182.273V98.0903H231.8V82.2136Z" fill="#3F3D56"/>
<path d="M218.613 50.3584H212.452C212.735 51.0539 212.843 51.8084 212.767 52.5556C212.69 53.3027 212.431 54.0196 212.013 54.643C211.594 55.2663 211.029 55.7771 210.367 56.1303C209.705 56.4835 208.966 56.6683 208.216 56.6684H181.177C180.426 56.6683 179.688 56.4835 179.026 56.1303C178.364 55.7771 177.798 55.2663 177.38 54.643C176.962 54.0196 176.703 53.3027 176.626 52.5556C176.55 51.8084 176.658 51.0539 176.941 50.3584H171.187C169.922 50.3584 168.67 50.6078 167.502 51.0922C166.334 51.5767 165.272 52.2868 164.378 53.182C163.484 54.0772 162.774 55.14 162.291 56.3096C161.807 57.4792 161.558 58.7328 161.558 59.9988V182.183C161.558 183.449 161.807 184.703 162.291 185.872C162.774 187.042 163.484 188.105 164.378 189C165.272 189.895 166.334 190.605 167.502 191.09C168.67 191.574 169.922 191.824 171.187 191.824H218.613C219.877 191.824 221.129 191.574 222.298 191.09C223.466 190.605 224.527 189.895 225.421 189C226.316 188.105 227.025 187.042 227.509 185.872C227.993 184.703 228.242 183.449 228.242 182.183V59.9988C228.242 58.7328 227.993 57.4792 227.509 56.3096C227.025 55.14 226.316 54.0772 225.421 53.182C224.527 52.2868 223.466 51.5767 222.298 51.0922C221.129 50.6078 219.877 50.3584 218.613 50.3584Z" fill="#ABCC75"/>
<g filter="url(#filter0_d)">
<path d="M236.605 98.1641H154.395C153.23 98.1627 152.113 97.6992 151.289 96.8752C150.465 96.0512 150.001 94.9339 150 93.7685V67.3955C150.001 66.2301 150.465 65.1129 151.289 64.2889C152.113 63.4648 153.23 63.0013 154.395 63H236.605C237.77 63.0013 238.887 63.4648 239.711 64.2889C240.535 65.1129 240.999 66.2301 241 67.3955V93.7685C240.999 94.9339 240.535 96.0512 239.711 96.8752C238.887 97.6992 237.77 98.1627 236.605 98.1641Z" fill="white"/>
<path d="M231.835 90.4505H160.165C159.591 90.4499 159.04 90.2532 158.635 89.9034C158.229 89.5536 158.001 89.0793 158 88.5847V73.8658C158.001 73.3711 158.229 72.8969 158.635 72.5471C159.04 72.1973 159.591 72.0005 160.165 72H231.835C232.409 72.0005 232.96 72.1973 233.365 72.5471C233.771 72.8969 233.999 73.3711 234 73.8658V88.5847C233.999 89.0793 233.771 89.5536 233.365 89.9034C232.96 90.2532 232.409 90.4499 231.835 90.4505ZM160.165 72.4146C159.718 72.4151 159.29 72.5681 158.975 72.8402C158.659 73.1122 158.482 73.481 158.481 73.8658V88.5847C158.482 88.9694 158.659 89.3382 158.975 89.6103C159.29 89.8823 159.718 90.0354 160.165 90.0358H231.835C232.282 90.0354 232.71 89.8823 233.025 89.6103C233.341 89.3382 233.518 88.9694 233.519 88.5847V73.8658C233.518 73.481 233.341 73.1122 233.025 72.8402C232.71 72.5681 232.282 72.4151 231.835 72.4146H160.165Z" fill="#ABCC75"/>
<path d="M167.747 81.6987H167.164V83H166.432V79.4453H167.752C168.172 79.4453 168.496 79.5389 168.724 79.7261C168.952 79.9132 169.066 80.1777 169.066 80.5195C169.066 80.762 169.013 80.9647 168.907 81.1274C168.803 81.2886 168.644 81.4172 168.431 81.5132L169.2 82.9658V83H168.414L167.747 81.6987ZM167.164 81.1055H167.755C167.939 81.1055 168.081 81.0591 168.182 80.9663C168.283 80.8719 168.333 80.7425 168.333 80.5781C168.333 80.4105 168.285 80.2786 168.189 80.1826C168.095 80.0866 167.949 80.0386 167.752 80.0386H167.164V81.1055ZM172.545 81.3032C172.545 81.6532 172.483 81.96 172.359 82.2236C172.236 82.4873 172.058 82.6908 171.827 82.834C171.598 82.9772 171.334 83.0488 171.036 83.0488C170.741 83.0488 170.479 82.978 170.247 82.8364C170.016 82.6948 169.837 82.493 169.71 82.231C169.583 81.9673 169.519 81.6646 169.517 81.3228V81.147C169.517 80.797 169.58 80.4894 169.705 80.2241C169.832 79.9572 170.011 79.7529 170.24 79.6113C170.471 79.4681 170.735 79.3965 171.031 79.3965C171.327 79.3965 171.59 79.4681 171.82 79.6113C172.051 79.7529 172.229 79.9572 172.354 80.2241C172.481 80.4894 172.545 80.7962 172.545 81.1445V81.3032ZM171.803 81.1421C171.803 80.7694 171.736 80.4862 171.602 80.2925C171.469 80.0988 171.279 80.002 171.031 80.002C170.785 80.002 170.596 80.098 170.462 80.29C170.329 80.4805 170.261 80.7604 170.26 81.1299V81.3032C170.26 81.6662 170.326 81.9478 170.46 82.1479C170.593 82.3481 170.785 82.4482 171.036 82.4482C171.282 82.4482 171.471 82.3522 171.602 82.1602C171.734 81.9665 171.801 81.6849 171.803 81.3154V81.1421ZM175.997 81.3032C175.997 81.6532 175.935 81.96 175.811 82.2236C175.688 82.4873 175.51 82.6908 175.279 82.834C175.05 82.9772 174.786 83.0488 174.488 83.0488C174.194 83.0488 173.931 82.978 173.7 82.8364C173.468 82.6948 173.289 82.493 173.163 82.231C173.036 81.9673 172.971 81.6646 172.97 81.3228V81.147C172.97 80.797 173.032 80.4894 173.158 80.2241C173.285 79.9572 173.463 79.7529 173.692 79.6113C173.923 79.4681 174.187 79.3965 174.483 79.3965C174.78 79.3965 175.042 79.4681 175.272 79.6113C175.503 79.7529 175.681 79.9572 175.807 80.2241C175.933 80.4894 175.997 80.7962 175.997 81.1445V81.3032ZM175.255 81.1421C175.255 80.7694 175.188 80.4862 175.055 80.2925C174.921 80.0988 174.731 80.002 174.483 80.002C174.238 80.002 174.048 80.098 173.914 80.29C173.781 80.4805 173.713 80.7604 173.712 81.1299V81.3032C173.712 81.6662 173.779 81.9478 173.912 82.1479C174.045 82.3481 174.238 82.4482 174.488 82.4482C174.734 82.4482 174.923 82.3522 175.055 82.1602C175.186 81.9665 175.253 81.6849 175.255 81.3154V81.1421ZM177.486 79.4453L178.399 82.0234L179.308 79.4453H180.269V83H179.535V82.0283L179.608 80.3511L178.648 83H178.145L177.188 80.3535L177.262 82.0283V83H176.529V79.4453H177.486ZM183.997 82.0674C183.997 81.929 183.949 81.8232 183.851 81.75C183.753 81.6751 183.578 81.597 183.324 81.5156C183.07 81.4326 182.869 81.3512 182.721 81.2715C182.317 81.0534 182.115 80.7596 182.115 80.3901C182.115 80.1981 182.169 80.0272 182.276 79.8774C182.385 79.7261 182.541 79.6081 182.743 79.5234C182.946 79.4388 183.174 79.3965 183.426 79.3965C183.68 79.3965 183.906 79.4429 184.105 79.5356C184.303 79.6268 184.457 79.7562 184.566 79.9238C184.677 80.0915 184.732 80.2819 184.732 80.4951H184C184 80.3324 183.949 80.2062 183.846 80.1167C183.744 80.0256 183.6 79.98 183.414 79.98C183.235 79.98 183.096 80.0182 182.996 80.0947C182.897 80.1696 182.848 80.2689 182.848 80.3926C182.848 80.5081 182.905 80.605 183.021 80.6831C183.138 80.7612 183.31 80.8345 183.536 80.9028C183.953 81.0282 184.256 81.1836 184.447 81.3691C184.637 81.5547 184.732 81.7858 184.732 82.0625C184.732 82.3701 184.616 82.6118 184.383 82.7876C184.15 82.9618 183.837 83.0488 183.443 83.0488C183.17 83.0488 182.921 82.9992 182.696 82.8999C182.472 82.799 182.3 82.6615 182.181 82.4873C182.064 82.3132 182.005 82.1113 182.005 81.8818H182.74C182.74 82.2741 182.975 82.4702 183.443 82.4702C183.617 82.4702 183.753 82.4352 183.851 82.3652C183.949 82.2936 183.997 82.1943 183.997 82.0674ZM187.369 81.4595H185.963V82.4116H187.613V83H185.23V79.4453H187.608V80.0386H185.963V80.8857H187.369V81.4595ZM190.933 83H190.201L188.775 80.6611V83H188.043V79.4453H188.775L190.204 81.7891V79.4453H190.933V83ZM193.416 82.0674C193.416 81.929 193.368 81.8232 193.27 81.75C193.172 81.6751 192.996 81.597 192.743 81.5156C192.489 81.4326 192.288 81.3512 192.14 81.2715C191.736 81.0534 191.534 80.7596 191.534 80.3901C191.534 80.1981 191.588 80.0272 191.695 79.8774C191.804 79.7261 191.96 79.6081 192.162 79.5234C192.365 79.4388 192.593 79.3965 192.845 79.3965C193.099 79.3965 193.325 79.4429 193.524 79.5356C193.722 79.6268 193.876 79.7562 193.985 79.9238C194.096 80.0915 194.151 80.2819 194.151 80.4951H193.419C193.419 80.3324 193.368 80.2062 193.265 80.1167C193.163 80.0256 193.018 79.98 192.833 79.98C192.654 79.98 192.515 80.0182 192.415 80.0947C192.316 80.1696 192.267 80.2689 192.267 80.3926C192.267 80.5081 192.324 80.605 192.44 80.6831C192.557 80.7612 192.729 80.8345 192.955 80.9028C193.372 81.0282 193.675 81.1836 193.866 81.3691C194.056 81.5547 194.151 81.7858 194.151 82.0625C194.151 82.3701 194.035 82.6118 193.802 82.7876C193.569 82.9618 193.256 83.0488 192.862 83.0488C192.589 83.0488 192.34 82.9992 192.115 82.8999C191.891 82.799 191.719 82.6615 191.6 82.4873C191.483 82.3132 191.424 82.1113 191.424 81.8818H192.159C192.159 82.2741 192.393 82.4702 192.862 82.4702C193.036 82.4702 193.172 82.4352 193.27 82.3652C193.368 82.2936 193.416 82.1943 193.416 82.0674ZM197.569 81.3032C197.569 81.6532 197.507 81.96 197.384 82.2236C197.26 82.4873 197.083 82.6908 196.851 82.834C196.622 82.9772 196.358 83.0488 196.06 83.0488C195.766 83.0488 195.503 82.978 195.272 82.8364C195.041 82.6948 194.862 82.493 194.735 82.231C194.608 81.9673 194.544 81.6646 194.542 81.3228V81.147C194.542 80.797 194.605 80.4894 194.73 80.2241C194.857 79.9572 195.035 79.7529 195.265 79.6113C195.496 79.4681 195.759 79.3965 196.056 79.3965C196.352 79.3965 196.615 79.4681 196.844 79.6113C197.075 79.7529 197.253 79.9572 197.379 80.2241C197.506 80.4894 197.569 80.7962 197.569 81.1445V81.3032ZM196.827 81.1421C196.827 80.7694 196.76 80.4862 196.627 80.2925C196.493 80.0988 196.303 80.002 196.056 80.002C195.81 80.002 195.62 80.098 195.487 80.29C195.353 80.4805 195.286 80.7604 195.284 81.1299V81.3032C195.284 81.6662 195.351 81.9478 195.484 82.1479C195.618 82.3481 195.81 82.4482 196.06 82.4482C196.306 82.4482 196.495 82.3522 196.627 82.1602C196.759 81.9665 196.825 81.6849 196.827 81.3154V81.1421ZM199.417 81.6987H198.834V83H198.101V79.4453H199.422C199.842 79.4453 200.166 79.5389 200.394 79.7261C200.622 79.9132 200.736 80.1777 200.736 80.5195C200.736 80.762 200.683 80.9647 200.577 81.1274C200.473 81.2886 200.314 81.4172 200.101 81.5132L200.87 82.9658V83H200.084L199.417 81.6987ZM198.834 81.1055H199.425C199.609 81.1055 199.751 81.0591 199.852 80.9663C199.953 80.8719 200.003 80.7425 200.003 80.5781C200.003 80.4105 199.955 80.2786 199.859 80.1826C199.765 80.0866 199.619 80.0386 199.422 80.0386H198.834V81.1055ZM202.54 83V79.4453H203.785C204.216 79.4453 204.544 79.5283 204.767 79.6943C204.989 79.8587 205.101 80.1004 205.101 80.4194C205.101 80.5936 205.056 80.7474 204.967 80.8809C204.877 81.0127 204.753 81.1095 204.593 81.1714C204.775 81.217 204.919 81.3089 205.023 81.4473C205.129 81.5856 205.182 81.7549 205.182 81.9551C205.182 82.2969 205.072 82.5557 204.854 82.7314C204.636 82.9072 204.325 82.9967 203.922 83H202.54ZM203.272 81.4521V82.4116H203.9C204.072 82.4116 204.207 82.3709 204.303 82.2896C204.4 82.2065 204.449 82.0926 204.449 81.9478C204.449 81.6222 204.281 81.457 203.944 81.4521H203.272ZM203.272 80.9346H203.814C204.184 80.9281 204.369 80.7808 204.369 80.4927C204.369 80.3315 204.321 80.216 204.227 80.146C204.134 80.0744 203.987 80.0386 203.785 80.0386H203.272V80.9346ZM207.872 81.4595H206.466V82.4116H208.116V83H205.733V79.4453H208.111V80.0386H206.466V80.8857H207.872V81.4595ZM208.546 83V79.4453H209.64C209.952 79.4453 210.231 79.5161 210.477 79.6577C210.724 79.7977 210.917 79.9979 211.056 80.2583C211.194 80.5171 211.263 80.8117 211.263 81.1421V81.3057C211.263 81.6361 211.195 81.9299 211.058 82.187C210.923 82.4442 210.732 82.6436 210.484 82.7852C210.237 82.9268 209.958 82.9984 209.647 83H208.546ZM209.278 80.0386V82.4116H209.632C209.919 82.4116 210.138 82.318 210.289 82.1309C210.44 81.9437 210.518 81.6759 210.521 81.3276V81.1396C210.521 80.7783 210.446 80.5049 210.296 80.3193C210.147 80.1322 209.928 80.0386 209.64 80.0386H209.278ZM213.114 81.6987H212.53V83H211.798V79.4453H213.119C213.538 79.4453 213.862 79.5389 214.09 79.7261C214.318 79.9132 214.432 80.1777 214.432 80.5195C214.432 80.762 214.379 80.9647 214.273 81.1274C214.169 81.2886 214.01 81.4172 213.797 81.5132L214.566 82.9658V83H213.78L213.114 81.6987ZM212.53 81.1055H213.121C213.305 81.1055 213.447 81.0591 213.548 80.9663C213.649 80.8719 213.7 80.7425 213.7 80.5781C213.7 80.4105 213.652 80.2786 213.556 80.1826C213.461 80.0866 213.315 80.0386 213.119 80.0386H212.53V81.1055ZM217.911 81.3032C217.911 81.6532 217.849 81.96 217.725 82.2236C217.602 82.4873 217.424 82.6908 217.193 82.834C216.964 82.9772 216.7 83.0488 216.402 83.0488C216.108 83.0488 215.845 82.978 215.614 82.8364C215.383 82.6948 215.204 82.493 215.077 82.231C214.95 81.9673 214.885 81.6646 214.884 81.3228V81.147C214.884 80.797 214.946 80.4894 215.072 80.2241C215.199 79.9572 215.377 79.7529 215.606 79.6113C215.837 79.4681 216.101 79.3965 216.397 79.3965C216.694 79.3965 216.956 79.4681 217.186 79.6113C217.417 79.7529 217.595 79.9572 217.721 80.2241C217.848 80.4894 217.911 80.7962 217.911 81.1445V81.3032ZM217.169 81.1421C217.169 80.7694 217.102 80.4862 216.969 80.2925C216.835 80.0988 216.645 80.002 216.397 80.002C216.152 80.002 215.962 80.098 215.829 80.29C215.695 80.4805 215.628 80.7604 215.626 81.1299V81.3032C215.626 81.6662 215.693 81.9478 215.826 82.1479C215.96 82.3481 216.152 82.4482 216.402 82.4482C216.648 82.4482 216.837 82.3522 216.969 82.1602C217.1 81.9665 217.167 81.6849 217.169 81.3154V81.1421ZM221.363 81.3032C221.363 81.6532 221.301 81.96 221.178 82.2236C221.054 82.4873 220.877 82.6908 220.645 82.834C220.416 82.9772 220.152 83.0488 219.854 83.0488C219.56 83.0488 219.297 82.978 219.066 82.8364C218.835 82.6948 218.656 82.493 218.529 82.231C218.402 81.9673 218.337 81.6646 218.336 81.3228V81.147C218.336 80.797 218.399 80.4894 218.524 80.2241C218.651 79.9572 218.829 79.7529 219.058 79.6113C219.29 79.4681 219.553 79.3965 219.85 79.3965C220.146 79.3965 220.409 79.4681 220.638 79.6113C220.869 79.7529 221.047 79.9572 221.173 80.2241C221.3 80.4894 221.363 80.7962 221.363 81.1445V81.3032ZM220.621 81.1421C220.621 80.7694 220.554 80.4862 220.421 80.2925C220.287 80.0988 220.097 80.002 219.85 80.002C219.604 80.002 219.414 80.098 219.281 80.29C219.147 80.4805 219.08 80.7604 219.078 81.1299V81.3032C219.078 81.6662 219.145 81.9478 219.278 82.1479C219.412 82.3481 219.604 82.4482 219.854 82.4482C220.1 82.4482 220.289 82.3522 220.421 82.1602C220.553 81.9665 220.619 81.6849 220.621 81.3154V81.1421ZM222.852 79.4453L223.766 82.0234L224.674 79.4453H225.636V83H224.901V82.0283L224.974 80.3511L224.015 83H223.512L222.555 80.3535L222.628 82.0283V83H221.895V79.4453H222.852Z" fill="black"/>
<path d="M236.605 98.1641H154.395C153.23 98.1627 152.113 97.6992 151.289 96.8752C150.465 96.0512 150.001 94.9339 150 93.7685V67.3955C150.001 66.2301 150.465 65.1129 151.289 64.2889C152.113 63.4648 153.23 63.0013 154.395 63H236.605C237.77 63.0013 238.887 63.4648 239.711 64.2889C240.535 65.1129 240.999 66.2301 241 67.3955V93.7685C240.999 94.9339 240.535 96.0512 239.711 96.8752C238.887 97.6992 237.77 98.1627 236.605 98.1641ZM154.395 63.5171C153.367 63.5183 152.381 63.9273 151.654 64.6544C150.927 65.3814 150.518 66.3673 150.517 67.3955V93.7685C150.518 94.7968 150.927 95.7826 151.654 96.5097C152.381 97.2368 153.367 97.6458 154.395 97.6469H236.605C237.633 97.6458 238.619 97.2368 239.346 96.5097C240.073 95.7826 240.482 94.7968 240.483 93.7685V67.3955C240.482 66.3673 240.073 65.3814 239.346 64.6544C238.619 63.9273 237.633 63.5183 236.605 63.5171H154.395Z" fill="#ABCC75"/>
</g>
<g opacity="0.85" clip-path="url(#clip0)">
<rect width="114.213" height="77.4111" transform="translate(248 115)" fill="url(#paint0_linear)"/>
<path d="M362.213 115H248V192.411H362.213V115Z" fill="#E9EAEE"/>
<g filter="url(#filter1_d)">
<path d="M263.228 160.686H251.172C250.121 160.686 249.269 161.538 249.269 162.589V171.472C249.269 172.524 250.121 173.376 251.172 173.376H263.228C264.279 173.376 265.131 172.524 265.131 171.472V162.589C265.131 161.538 264.279 160.686 263.228 160.686Z" fill="black"/>
</g>
<path d="M263.228 160.686H251.172C250.121 160.686 249.269 161.538 249.269 162.589V171.472C249.269 172.524 250.121 173.376 251.172 173.376H263.228C264.279 173.376 265.131 172.524 265.131 171.472V162.589C265.131 161.538 264.279 160.686 263.228 160.686Z" fill="#CBCED5"/>
<path fill-rule="evenodd" clip-rule="evenodd" d="M257.325 163.982C257.256 163.913 257.144 163.913 257.075 163.982L254.011 167.046C253.9 167.157 253.979 167.347 254.136 167.347H255.297V169.951C255.297 170.09 255.409 170.203 255.549 170.203H258.851C258.991 170.203 259.103 170.09 259.103 169.951V167.347H260.264C260.421 167.347 260.5 167.157 260.389 167.046L257.325 163.982Z" stroke="#3D3D3F" stroke-width="0.634517"/>
<g filter="url(#filter2_d)">
<path d="M359.04 160.686H346.985C345.933 160.686 345.081 161.538 345.081 162.589V171.472C345.081 172.524 345.933 173.376 346.985 173.376H359.04C360.092 173.376 360.944 172.524 360.944 171.472V162.589C360.944 161.538 360.092 160.686 359.04 160.686Z" fill="black"/>
</g>
<path d="M359.04 160.686H346.985C345.933 160.686 345.081 161.538 345.081 162.589V171.472C345.081 172.524 345.933 173.376 346.985 173.376H359.04C360.092 173.376 360.944 172.524 360.944 171.472V162.589C360.944 161.538 360.092 160.686 359.04 160.686Z" fill="#CBCED5"/>
<path fill-rule="evenodd" clip-rule="evenodd" d="M356.503 169.569H351.358L349.592 167.031L351.358 164.493H356.503V169.569ZM356.82 163.858H351.192C351.089 163.858 350.991 163.909 350.932 163.995L348.946 166.85C348.87 166.959 348.87 167.103 348.946 167.212L350.932 170.067C350.991 170.153 351.089 170.204 351.192 170.204H356.82C356.995 170.204 357.137 170.061 357.137 169.886V164.176C357.137 164.001 356.995 163.858 356.82 163.858ZM352.313 168.286C352.375 168.348 352.456 168.379 352.537 168.379C352.618 168.379 352.7 168.348 352.762 168.286L353.568 167.48L354.375 168.286C354.437 168.348 354.518 168.379 354.599 168.379C354.681 168.379 354.762 168.348 354.824 168.286C354.948 168.162 354.948 167.962 354.824 167.838L354.017 167.031L354.824 166.224C354.948 166.1 354.948 165.9 354.824 165.776C354.7 165.652 354.499 165.652 354.375 165.776L353.568 166.582L352.762 165.776C352.637 165.652 352.437 165.652 352.313 165.776C352.189 165.9 352.189 166.1 352.313 166.224L353.12 167.031L352.313 167.838C352.189 167.962 352.189 168.162 352.313 168.286Z" fill="#3D3D3F"/>
<g filter="url(#filter3_d)">
<path d="M274.65 160.687H268.94C267.888 160.687 267.036 161.539 267.036 162.59V171.473C267.036 172.525 267.888 173.377 268.94 173.377H274.65C275.702 173.377 276.554 172.525 276.554 171.473V162.59C276.554 161.539 275.702 160.687 274.65 160.687Z" fill="black"/>
</g>
<path d="M274.65 160.687H268.94C267.888 160.687 267.036 161.539 267.036 162.59V171.473C267.036 172.525 267.888 173.377 268.94 173.377H274.65C275.702 173.377 276.554 172.525 276.554 171.473V162.59C276.554 161.539 275.702 160.687 274.65 160.687Z" fill="white"/>
<path d="M270.869 168.689H273.966V169.272H270.025V168.737L272.992 164.447H270.073V163.859H273.847V164.383L270.869 168.689Z" fill="black"/>
<g filter="url(#filter4_d)">
<path d="M285.754 160.686H280.043C278.992 160.686 278.14 161.538 278.14 162.589V171.472C278.14 172.524 278.992 173.376 280.043 173.376H285.754C286.805 173.376 287.657 172.524 287.657 171.472V162.589C287.657 161.538 286.805 160.686 285.754 160.686Z" fill="black"/>
</g>
<path d="M285.754 160.686H280.043C278.992 160.686 278.14 161.538 278.14 162.589V171.472C278.14 172.524 278.992 173.376 280.043 173.376H285.754C286.805 173.376 287.657 172.524 287.657 171.472V162.589C287.657 161.538 286.805 160.686 285.754 160.686Z" fill="white"/>
<path d="M283.096 165.934L284.394 163.859H285.234L283.524 166.544L285.275 169.272H284.427L283.096 167.161L281.758 169.272H280.914L282.669 166.544L280.955 163.859H281.791L283.096 165.934Z" fill="black"/>
<g filter="url(#filter5_d)">
<path d="M296.857 160.686H291.147C290.095 160.686 289.243 161.538 289.243 162.589V171.472C289.243 172.524 290.095 173.376 291.147 173.376H296.857C297.909 173.376 298.761 172.524 298.761 171.472V162.589C298.761 161.538 297.909 160.686 296.857 160.686Z" fill="black"/>
</g>
<path d="M296.857 160.686H291.147C290.095 160.686 289.243 161.538 289.243 162.589V171.472C289.243 172.524 290.095 173.376 291.147 173.376H296.857C297.909 173.376 298.761 172.524 298.761 171.472V162.589C298.761 161.538 297.909 160.686 296.857 160.686Z" fill="white"/>
<path d="M296.325 167.555C296.258 168.127 296.046 168.57 295.689 168.882C295.335 169.192 294.863 169.347 294.273 169.347C293.633 169.347 293.12 169.118 292.734 168.659C292.349 168.2 292.157 167.587 292.157 166.819V166.298C292.157 165.795 292.246 165.353 292.425 164.971C292.606 164.589 292.861 164.297 293.191 164.093C293.52 163.888 293.902 163.785 294.336 163.785C294.911 163.785 295.372 163.946 295.719 164.268C296.066 164.588 296.268 165.032 296.325 165.599H295.607C295.545 165.168 295.41 164.856 295.202 164.662C294.996 164.469 294.708 164.372 294.336 164.372C293.88 164.372 293.522 164.541 293.261 164.878C293.004 165.215 292.875 165.695 292.875 166.317V166.841C292.875 167.428 292.998 167.896 293.243 168.243C293.488 168.59 293.832 168.763 294.273 168.763C294.669 168.763 294.973 168.674 295.184 168.495C295.397 168.314 295.538 168.001 295.607 167.555H296.325Z" fill="black"/>
<g filter="url(#filter6_d)">
<path d="M307.962 160.686H302.251C301.2 160.686 300.348 161.538 300.348 162.589V171.472C300.348 172.524 301.2 173.376 302.251 173.376H307.962C309.013 173.376 309.865 172.524 309.865 171.472V162.589C309.865 161.538 309.013 160.686 307.962 160.686Z" fill="black"/>
</g>
<path d="M307.962 160.686H302.251C301.2 160.686 300.348 161.538 300.348 162.589V171.472C300.348 172.524 301.2 173.376 302.251 173.376H307.962C309.013 173.376 309.865 172.524 309.865 171.472V162.589C309.865 161.538 309.013 160.686 307.962 160.686Z" fill="white"/>
<path d="M305.294 168.324L306.841 163.859H307.622L305.614 169.272H304.982L302.978 163.859H303.755L305.294 168.324Z" fill="black"/>
<g filter="url(#filter7_d)">
<path d="M319.066 160.686H313.356C312.304 160.686 311.452 161.538 311.452 162.589V171.472C311.452 172.524 312.304 173.376 313.356 173.376H319.066C320.118 173.376 320.97 172.524 320.97 171.472V162.589C320.97 161.538 320.118 160.686 319.066 160.686Z" fill="black"/>
</g>
<path d="M319.066 160.686H313.356C312.304 160.686 311.452 161.538 311.452 162.589V171.472C311.452 172.524 312.304 173.376 313.356 173.376H319.066C320.118 173.376 320.97 172.524 320.97 171.472V162.589C320.97 161.538 320.118 160.686 319.066 160.686Z" fill="white"/>
<path d="M314.66 169.272V163.859H316.429C317.017 163.859 317.458 163.981 317.753 164.224C318.05 164.466 318.199 164.826 318.199 165.302C318.199 165.555 318.127 165.779 317.983 165.975C317.84 166.168 317.644 166.318 317.396 166.425C317.688 166.506 317.919 166.663 318.087 166.893C318.258 167.121 318.344 167.394 318.344 167.711C318.344 168.197 318.187 168.578 317.872 168.856C317.557 169.134 317.112 169.272 316.537 169.272H314.66ZM315.373 166.741V168.689H316.552C316.884 168.689 317.146 168.603 317.336 168.432C317.53 168.259 317.626 168.021 317.626 167.718C317.626 167.067 317.272 166.741 316.563 166.741H315.373ZM315.373 166.168H316.452C316.764 166.168 317.013 166.09 317.199 165.934C317.387 165.778 317.481 165.566 317.481 165.298C317.481 165.001 317.395 164.785 317.221 164.651C317.048 164.515 316.784 164.447 316.429 164.447H315.373V166.168Z" fill="black"/>
<g filter="url(#filter8_d)">
<path d="M330.17 160.686H324.459C323.408 160.686 322.556 161.538 322.556 162.589V171.472C322.556 172.524 323.408 173.376 324.459 173.376H330.17C331.221 173.376 332.073 172.524 332.073 171.472V162.589C332.073 161.538 331.221 160.686 330.17 160.686Z" fill="black"/>
</g>
<path d="M330.17 160.686H324.459C323.408 160.686 322.556 161.538 322.556 162.589V171.472C322.556 172.524 323.408 173.376 324.459 173.376H330.17C331.221 173.376 332.073 172.524 332.073 171.472V162.589C332.073 161.538 331.221 160.686 330.17 160.686Z" fill="white"/>
<path d="M329.58 169.272H328.862L326.137 165.101V169.272H325.419V163.859H326.137L328.87 168.049V163.859H329.58V169.272Z" fill="black"/>
<g filter="url(#filter9_d)">
<path d="M341.274 160.686H335.564C334.512 160.686 333.66 161.538 333.66 162.589V171.472C333.66 172.524 334.512 173.376 335.564 173.376H341.274C342.326 173.376 343.178 172.524 343.178 171.472V162.589C343.178 161.538 342.326 160.686 341.274 160.686Z" fill="black"/>
</g>
<path d="M341.274 160.686H335.564C334.512 160.686 333.66 161.538 333.66 162.589V171.472C333.66 172.524 334.512 173.376 335.564 173.376H341.274C342.326 173.376 343.178 172.524 343.178 171.472V162.589C343.178 161.538 342.326 160.686 341.274 160.686Z" fill="white"/>
<path d="M336.836 163.859L338.605 168.276L340.375 163.859H341.301V169.272H340.587V167.164L340.654 164.889L338.877 169.272H338.33L336.557 164.9L336.627 167.164V169.272H335.913V163.859H336.836Z" fill="black"/>
<g filter="url(#filter10_d)">
<path d="M262.594 146.092H256.883C255.832 146.092 254.979 146.944 254.979 147.995V156.879C254.979 157.93 255.832 158.782 256.883 158.782H262.594C263.645 158.782 264.497 157.93 264.497 156.879V147.995C264.497 146.944 263.645 146.092 262.594 146.092Z" fill="black"/>
</g>
<path d="M262.594 146.092H256.883C255.832 146.092 254.979 146.944 254.979 147.995V156.879C254.979 157.93 255.832 158.782 256.883 158.782H262.594C263.645 158.782 264.497 157.93 264.497 156.879V147.995C264.497 146.944 263.645 146.092 262.594 146.092Z" fill="white"/>
<path d="M261.063 153.265H258.795L258.286 154.678H257.549L259.617 149.265H260.241L262.312 154.678H261.58L261.063 153.265ZM259.011 152.678H260.851L259.929 150.146L259.011 152.678Z" fill="black"/>
<g filter="url(#filter11_d)">
<path d="M274.016 146.092H268.305C267.254 146.092 266.401 146.944 266.401 147.995V156.879C266.401 157.93 267.254 158.782 268.305 158.782H274.016C275.067 158.782 275.919 157.93 275.919 156.879V147.995C275.919 146.944 275.067 146.092 274.016 146.092Z" fill="black"/>
</g>
<path d="M274.016 146.092H268.305C267.254 146.092 266.401 146.944 266.401 147.995V156.879C266.401 157.93 267.254 158.782 268.305 158.782H274.016C275.067 158.782 275.919 157.93 275.919 156.879V147.995C275.919 146.944 275.067 146.092 274.016 146.092Z" fill="white"/>
<path d="M271.315 152.266C270.703 152.09 270.257 151.874 269.977 151.619C269.699 151.361 269.56 151.044 269.56 150.667C269.56 150.241 269.73 149.889 270.07 149.611C270.412 149.331 270.855 149.191 271.401 149.191C271.772 149.191 272.103 149.263 272.393 149.407C272.686 149.551 272.911 149.749 273.07 150.002C273.231 150.254 273.312 150.531 273.312 150.831H272.594C272.594 150.504 272.49 150.247 272.282 150.061C272.074 149.873 271.78 149.779 271.401 149.779C271.049 149.779 270.774 149.857 270.575 150.013C270.379 150.166 270.282 150.381 270.282 150.656C270.282 150.877 270.374 151.064 270.56 151.217C270.749 151.369 271.067 151.507 271.516 151.634C271.967 151.76 272.319 151.9 272.572 152.054C272.827 152.205 273.015 152.382 273.137 152.586C273.261 152.789 273.323 153.028 273.323 153.303C273.323 153.742 273.152 154.094 272.81 154.359C272.468 154.622 272.01 154.753 271.438 154.753C271.066 154.753 270.719 154.682 270.397 154.541C270.075 154.397 269.825 154.202 269.649 153.954C269.476 153.706 269.389 153.425 269.389 153.11H270.107C270.107 153.437 270.227 153.696 270.467 153.887C270.71 154.075 271.034 154.169 271.438 154.169C271.815 154.169 272.103 154.093 272.304 153.939C272.505 153.785 272.605 153.576 272.605 153.311C272.605 153.045 272.512 152.841 272.326 152.697C272.14 152.551 271.803 152.407 271.315 152.266Z" fill="black"/>
<g filter="url(#filter12_d)">
<path d="M285.436 146.092H279.726C278.675 146.092 277.822 146.944 277.822 147.995V156.879C277.822 157.93 278.675 158.782 279.726 158.782H285.436C286.488 158.782 287.34 157.93 287.34 156.879V147.995C287.34 146.944 286.488 146.092 285.436 146.092Z" fill="black"/>
</g>
<path d="M285.436 146.092H279.726C278.675 146.092 277.822 146.944 277.822 147.995V156.879C277.822 157.93 278.675 158.782 279.726 158.782H285.436C286.488 158.782 287.34 157.93 287.34 156.879V147.995C287.34 146.944 286.488 146.092 285.436 146.092Z" fill="white"/>
<path d="M280.904 154.679V149.265H282.432C282.903 149.265 283.319 149.37 283.681 149.578C284.043 149.786 284.322 150.082 284.517 150.466C284.716 150.851 284.816 151.292 284.819 151.79V152.136C284.819 152.646 284.719 153.094 284.521 153.478C284.325 153.862 284.044 154.157 283.677 154.363C283.313 154.568 282.888 154.674 282.402 154.679H280.904ZM281.618 149.853V154.095H282.369C282.919 154.095 283.346 153.924 283.651 153.582C283.959 153.24 284.112 152.753 284.112 152.121V151.805C284.112 151.19 283.967 150.713 283.677 150.373C283.39 150.031 282.981 149.858 282.45 149.853H281.618Z" fill="black"/>
<g filter="url(#filter13_d)">
<path d="M296.541 146.092H290.83C289.779 146.092 288.927 146.944 288.927 147.995V156.879C288.927 157.93 289.779 158.782 290.83 158.782H296.541C297.592 158.782 298.445 157.93 298.445 156.879V147.995C298.445 146.944 297.592 146.092 296.541 146.092Z" fill="black"/>
</g>
<path d="M296.541 146.092H290.83C289.779 146.092 288.927 146.944 288.927 147.995V156.879C288.927 157.93 289.779 158.782 290.83 158.782H296.541C297.592 158.782 298.445 157.93 298.445 156.879V147.995C298.445 146.944 297.592 146.092 296.541 146.092Z" fill="white"/>
<path d="M295.385 152.288H293.114V154.679H292.4V149.265H295.753V149.853H293.114V151.704H295.385V152.288Z" fill="black"/>
<g filter="url(#filter14_d)">
<path d="M307.962 146.092H302.251C301.2 146.092 300.348 146.944 300.348 147.995V156.879C300.348 157.93 301.2 158.782 302.251 158.782H307.962C309.013 158.782 309.865 157.93 309.865 156.879V147.995C309.865 146.944 309.013 146.092 307.962 146.092Z" fill="black"/>
</g>
<path d="M307.962 146.092H302.251C301.2 146.092 300.348 146.944 300.348 147.995V156.879C300.348 157.93 301.2 158.782 302.251 158.782H307.962C309.013 158.782 309.865 157.93 309.865 156.879V147.995C309.865 146.944 309.013 146.092 307.962 146.092Z" fill="white"/>
<path d="M307.329 153.969C307.146 154.231 306.889 154.428 306.56 154.56C306.232 154.689 305.851 154.753 305.414 154.753C304.973 154.753 304.582 154.65 304.24 154.444C303.898 154.236 303.632 153.941 303.444 153.56C303.258 153.178 303.163 152.736 303.158 152.232V151.76C303.158 150.945 303.347 150.313 303.727 149.864C304.108 149.415 304.644 149.191 305.333 149.191C305.898 149.191 306.353 149.336 306.697 149.626C307.042 149.914 307.252 150.323 307.329 150.853H306.615C306.481 150.137 306.055 149.779 305.336 149.779C304.858 149.779 304.495 149.947 304.247 150.284C304.002 150.619 303.878 151.105 303.875 151.742V152.184C303.875 152.791 304.014 153.275 304.292 153.634C304.569 153.991 304.945 154.169 305.418 154.169C305.686 154.169 305.92 154.14 306.121 154.08C306.322 154.021 306.488 153.92 306.619 153.779V152.563H305.366V151.983H307.329V153.969Z" fill="black"/>
<g filter="url(#filter15_d)">
<path d="M319.383 146.092H313.672C312.621 146.092 311.769 146.944 311.769 147.995V156.879C311.769 157.93 312.621 158.782 313.672 158.782H319.383C320.434 158.782 321.286 157.93 321.286 156.879V147.995C321.286 146.944 320.434 146.092 319.383 146.092Z" fill="black"/>
</g>
<path d="M319.383 146.092H313.672C312.621 146.092 311.769 146.944 311.769 147.995V156.879C311.769 157.93 312.621 158.782 313.672 158.782H319.383C320.434 158.782 321.286 157.93 321.286 156.879V147.995C321.286 146.944 320.434 146.092 319.383 146.092Z" fill="white"/>
<path d="M318.793 154.679H318.075V152.177H315.346V154.679H314.632V149.265H315.346V151.593H318.075V149.265H318.793V154.679Z" fill="black"/>
<g filter="url(#filter16_d)">
<path d="M330.805 146.092H325.094C324.043 146.092 323.19 146.944 323.19 147.995V156.879C323.19 157.93 324.043 158.782 325.094 158.782H330.805C331.856 158.782 332.708 157.93 332.708 156.879V147.995C332.708 146.944 331.856 146.092 330.805 146.092Z" fill="black"/>
</g>
<path d="M330.805 146.092H325.094C324.043 146.092 323.19 146.944 323.19 147.995V156.879C323.19 157.93 324.043 158.782 325.094 158.782H330.805C331.856 158.782 332.708 157.93 332.708 156.879V147.995C332.708 146.944 331.856 146.092 330.805 146.092Z" fill="white"/>
<path d="M328.935 149.265H329.653V153.099C329.653 153.617 329.497 154.022 329.184 154.314C328.875 154.607 328.461 154.753 327.943 154.753C327.405 154.753 326.986 154.616 326.686 154.34C326.386 154.065 326.236 153.68 326.236 153.184H326.95C326.95 153.494 327.034 153.736 327.203 153.909C327.374 154.083 327.62 154.169 327.943 154.169C328.238 154.169 328.476 154.076 328.656 153.891C328.84 153.705 328.933 153.444 328.935 153.11V149.265Z" fill="black"/>
<g filter="url(#filter17_d)">
<path d="M341.908 146.092H336.197C335.146 146.092 334.294 146.944 334.294 147.995V156.879C334.294 157.93 335.146 158.782 336.197 158.782H341.908C342.959 158.782 343.812 157.93 343.812 156.879V147.995C343.812 146.944 342.959 146.092 341.908 146.092Z" fill="black"/>
</g>
<path d="M341.908 146.092H336.197C335.146 146.092 334.294 146.944 334.294 147.995V156.879C334.294 157.93 335.146 158.782 336.197 158.782H341.908C342.959 158.782 343.812 157.93 343.812 156.879V147.995C343.812 146.944 342.959 146.092 341.908 146.092Z" fill="white"/>
<path d="M338.86 152.162L338.199 152.85V154.679H337.485V149.265H338.199V151.942L340.604 149.265H341.467L339.336 151.656L341.634 154.679H340.779L338.86 152.162Z" fill="black"/>
<g filter="url(#filter18_d)">
<path d="M353.33 146.092H347.619C346.568 146.092 345.716 146.944 345.716 147.995V156.879C345.716 157.93 346.568 158.782 347.619 158.782H353.33C354.381 158.782 355.234 157.93 355.234 156.879V147.995C355.234 146.944 354.381 146.092 353.33 146.092Z" fill="black"/>
</g>
<path d="M353.33 146.092H347.619C346.568 146.092 345.716 146.944 345.716 147.995V156.879C345.716 157.93 346.568 158.782 347.619 158.782H353.33C354.381 158.782 355.234 157.93 355.234 156.879V147.995C355.234 146.944 354.381 146.092 353.33 146.092Z" fill="white"/>
<path d="M349.962 154.095H352.527V154.679H349.245V149.265H349.962V154.095Z" fill="black"/>
<g filter="url(#filter19_d)">
<path d="M256.883 131.497H251.172C250.121 131.497 249.269 132.349 249.269 133.401V142.284C249.269 143.335 250.121 144.187 251.172 144.187H256.883C257.934 144.187 258.786 143.335 258.786 142.284V133.401C258.786 132.349 257.934 131.497 256.883 131.497Z" fill="black"/>
</g>
<path d="M256.883 131.497H251.172C250.121 131.497 249.269 132.349 249.269 133.401V142.284C249.269 143.335 250.121 144.187 251.172 144.187H256.883C257.934 144.187 258.786 143.335 258.786 142.284V133.401C258.786 132.349 257.934 131.497 256.883 131.497Z" fill="white"/>
<path d="M256.363 137.552C256.363 138.075 256.28 138.526 256.114 138.905C255.948 139.282 255.715 139.577 255.415 139.79L256.382 140.549L255.895 140.999L254.753 140.091C254.575 140.136 254.387 140.158 254.188 140.158C253.762 140.158 253.384 140.054 253.054 139.846C252.725 139.635 252.468 139.337 252.285 138.95C252.104 138.561 252.011 138.111 252.006 137.6V137.21C252.006 136.69 252.096 136.23 252.277 135.831C252.458 135.432 252.713 135.127 253.043 134.916C253.375 134.703 253.754 134.596 254.181 134.596C254.617 134.596 255 134.702 255.33 134.912C255.662 135.123 255.917 135.427 256.095 135.823C256.274 136.217 256.363 136.678 256.363 137.206V137.552ZM255.649 137.203C255.649 136.566 255.522 136.075 255.266 135.73C255.014 135.383 254.652 135.21 254.181 135.21C253.732 135.21 253.378 135.382 253.117 135.727C252.86 136.069 252.727 136.545 252.72 137.154V137.552C252.72 138.172 252.849 138.66 253.106 139.017C253.367 139.374 253.727 139.552 254.188 139.552C254.649 139.552 255.006 139.385 255.259 139.05C255.512 138.713 255.642 138.231 255.649 137.604V137.203Z" fill="black"/>
<g filter="url(#filter20_d)">
<path d="M268.305 131.497H262.594C261.543 131.497 260.69 132.349 260.69 133.401V142.284C260.69 143.335 261.543 144.187 262.594 144.187H268.305C269.356 144.187 270.208 143.335 270.208 142.284V133.401C270.208 132.349 269.356 131.497 268.305 131.497Z" fill="black"/>
</g>
<path d="M268.305 131.497H262.594C261.543 131.497 260.69 132.349 260.69 133.401V142.284C260.69 143.335 261.543 144.187 262.594 144.187H268.305C269.356 144.187 270.208 143.335 270.208 142.284V133.401C270.208 132.349 269.356 131.497 268.305 131.497Z" fill="white"/>
<path d="M264.057 138.377L264.162 139.091L264.314 138.448L265.385 134.671H265.987L267.032 138.448L267.18 139.102L267.296 138.374L268.136 134.671H268.854L267.541 140.084H266.89L265.775 136.139L265.69 135.727L265.604 136.139L264.448 140.084H263.797L262.489 134.671H263.202L264.057 138.377Z" fill="black"/>
<g filter="url(#filter21_d)">
<path d="M279.726 131.497H274.015C272.964 131.497 272.111 132.349 272.111 133.401V142.284C272.111 143.335 272.964 144.187 274.015 144.187H279.726C280.777 144.187 281.629 143.335 281.629 142.284V133.401C281.629 132.349 280.777 131.497 279.726 131.497Z" fill="black"/>
</g>
<path d="M279.726 131.497H274.015C272.964 131.497 272.111 132.349 272.111 133.401V142.284C272.111 143.335 272.964 144.187 274.015 144.187H279.726C280.777 144.187 281.629 143.335 281.629 142.284V133.401C281.629 132.349 280.777 131.497 279.726 131.497Z" fill="white"/>
<path d="M278.586 137.582H276.24V139.5H278.965V140.084H275.526V134.671H278.928V135.258H276.24V136.998H278.586V137.582Z" fill="black"/>
<g filter="url(#filter22_d)">
<path d="M290.83 131.497H285.119C284.068 131.497 283.216 132.349 283.216 133.401V142.284C283.216 143.335 284.068 144.187 285.119 144.187H290.83C291.881 144.187 292.734 143.335 292.734 142.284V133.401C292.734 132.349 291.881 131.497 290.83 131.497Z" fill="black"/>
</g>
<path d="M290.83 131.497H285.119C284.068 131.497 283.216 132.349 283.216 133.401V142.284C283.216 143.335 284.068 144.187 285.119 144.187H290.83C291.881 144.187 292.734 143.335 292.734 142.284V133.401C292.734 132.349 291.881 131.497 290.83 131.497Z" fill="white"/>
<path d="M288.434 137.894H287.162V140.084H286.445V134.671H288.237C288.847 134.671 289.315 134.81 289.642 135.087C289.972 135.365 290.137 135.769 290.137 136.299C290.137 136.636 290.045 136.93 289.862 137.18C289.681 137.431 289.428 137.618 289.103 137.742L290.375 140.039V140.084H289.609L288.434 137.894ZM287.162 137.31H288.259C288.614 137.31 288.895 137.219 289.103 137.035C289.314 136.852 289.419 136.607 289.419 136.299C289.419 135.965 289.319 135.708 289.118 135.53C288.92 135.351 288.632 135.261 288.256 135.258H287.162V137.31Z" fill="black"/>
<g filter="url(#filter23_d)">
<path d="M302.251 131.497H296.54C295.489 131.497 294.637 132.349 294.637 133.401V142.284C294.637 143.335 295.489 144.187 296.54 144.187H302.251C303.302 144.187 304.154 143.335 304.154 142.284V133.401C304.154 132.349 303.302 131.497 302.251 131.497Z" fill="black"/>
</g>
<path d="M302.251 131.497H296.54C295.489 131.497 294.637 132.349 294.637 133.401V142.284C294.637 143.335 295.489 144.187 296.54 144.187H302.251C303.302 144.187 304.154 143.335 304.154 142.284V133.401C304.154 132.349 303.302 131.497 302.251 131.497Z" fill="white"/>
<path d="M301.683 135.258H299.943V140.084H299.233V135.258H297.497V134.671H301.683V135.258Z" fill="black"/>
<g filter="url(#filter24_d)">
<path d="M313.355 131.497H307.645C306.593 131.497 305.741 132.349 305.741 133.401V142.284C305.741 143.335 306.593 144.187 307.645 144.187H313.355C314.407 144.187 315.259 143.335 315.259 142.284V133.401C315.259 132.349 314.407 131.497 313.355 131.497Z" fill="black"/>
</g>
<path d="M313.355 131.497H307.645C306.593 131.497 305.741 132.349 305.741 133.401V142.284C305.741 143.335 306.593 144.187 307.645 144.187H313.355C314.407 144.187 315.259 143.335 315.259 142.284V133.401C315.259 132.349 314.407 131.497 313.355 131.497Z" fill="white"/>
<path d="M310.682 137.389L312.095 134.671H312.906L311.039 138.065V140.084H310.325V138.065L308.459 134.671H309.277L310.682 137.389Z" fill="black"/>
<g filter="url(#filter25_d)">
<path d="M325.094 131.497H319.383C318.332 131.497 317.479 132.349 317.479 133.401V142.284C317.479 143.335 318.332 144.187 319.383 144.187H325.094C326.145 144.187 326.997 143.335 326.997 142.284V133.401C326.997 132.349 326.145 131.497 325.094 131.497Z" fill="black"/>
</g>
<path d="M325.094 131.497H319.383C318.332 131.497 317.479 132.349 317.479 133.401V142.284C317.479 143.335 318.332 144.187 319.383 144.187H325.094C326.145 144.187 326.997 143.335 326.997 142.284V133.401C326.997 132.349 326.145 131.497 325.094 131.497Z" fill="white"/>
<path d="M324.399 134.671V138.351C324.397 138.862 324.236 139.28 323.916 139.604C323.599 139.929 323.167 140.111 322.622 140.151L322.432 140.158C321.84 140.158 321.368 139.998 321.016 139.679C320.664 139.359 320.485 138.919 320.48 138.359V134.671H321.187V138.337C321.187 138.728 321.295 139.033 321.51 139.251C321.726 139.467 322.033 139.575 322.432 139.575C322.836 139.575 323.145 139.467 323.358 139.251C323.574 139.036 323.682 138.732 323.682 138.34V134.671H324.399Z" fill="black"/>
<g filter="url(#filter26_d)">
<path d="M336.515 131.497H330.804C329.753 131.497 328.9 132.349 328.9 133.401V142.284C328.9 143.335 329.753 144.187 330.804 144.187H336.515C337.566 144.187 338.418 143.335 338.418 142.284V133.401C338.418 132.349 337.566 131.497 336.515 131.497Z" fill="black"/>
</g>
<path d="M336.515 131.497H330.804C329.753 131.497 328.9 132.349 328.9 133.401V142.284C328.9 143.335 329.753 144.187 330.804 144.187H336.515C337.566 144.187 338.418 143.335 338.418 142.284V133.401C338.418 132.349 337.566 131.497 336.515 131.497Z" fill="white"/>
<path d="M334.209 140.084H333.495V134.671H334.209V140.084Z" fill="black"/>
<g filter="url(#filter27_d)">
<path d="M347.936 131.497H342.226C341.175 131.497 340.322 132.349 340.322 133.401V142.284C340.322 143.335 341.175 144.187 342.226 144.187H347.936C348.988 144.187 349.84 143.335 349.84 142.284V133.401C349.84 132.349 348.988 131.497 347.936 131.497Z" fill="black"/>
</g>
<path d="M347.936 131.497H342.226C341.175 131.497 340.322 132.349 340.322 133.401V142.284C340.322 143.335 341.175 144.187 342.226 144.187H347.936C348.988 144.187 349.84 143.335 349.84 142.284V133.401C349.84 132.349 348.988 131.497 347.936 131.497Z" fill="white"/>
<path d="M347.446 137.552C347.446 138.083 347.356 138.546 347.178 138.943C347 139.337 346.747 139.638 346.42 139.846C346.092 140.054 345.711 140.158 345.274 140.158C344.848 140.158 344.47 140.054 344.14 139.846C343.811 139.635 343.554 139.337 343.371 138.95C343.19 138.561 343.097 138.111 343.092 137.6V137.21C343.092 136.69 343.182 136.23 343.363 135.831C343.544 135.432 343.8 135.127 344.129 134.916C344.461 134.703 344.841 134.596 345.267 134.596C345.701 134.596 346.082 134.702 346.412 134.912C346.744 135.121 347 135.424 347.178 135.823C347.356 136.22 347.446 136.682 347.446 137.21V137.552ZM346.736 137.203C346.736 136.561 346.607 136.069 346.349 135.727C346.091 135.382 345.73 135.21 345.267 135.21C344.816 135.21 344.46 135.382 344.2 135.727C343.942 136.069 343.81 136.545 343.802 137.154V137.552C343.802 138.174 343.932 138.664 344.193 139.021C344.455 139.375 344.816 139.552 345.274 139.552C345.735 139.552 346.092 139.385 346.345 139.05C346.598 138.713 346.728 138.231 346.736 137.604V137.203Z" fill="black"/>
<g filter="url(#filter28_d)">
<path d="M359.04 131.497H353.329C352.278 131.497 351.426 132.349 351.426 133.401V142.284C351.426 143.335 352.278 144.187 353.329 144.187H359.04C360.091 144.187 360.944 143.335 360.944 142.284V133.401C360.944 132.349 360.091 131.497 359.04 131.497Z" fill="black"/>
</g>
<path d="M359.04 131.497H353.329C352.278 131.497 351.426 132.349 351.426 133.401V142.284C351.426 143.335 352.278 144.187 353.329 144.187H359.04C360.091 144.187 360.944 143.335 360.944 142.284V133.401C360.944 132.349 360.091 131.497 359.04 131.497Z" fill="white"/>
<path d="M355.316 137.965V140.084H354.602V134.671H356.598C357.191 134.671 357.654 134.822 357.989 135.124C358.326 135.427 358.495 135.827 358.495 136.325C358.495 136.851 358.33 137.256 358 137.541C357.673 137.824 357.203 137.965 356.591 137.965H355.316ZM355.316 137.381H356.598C356.98 137.381 357.273 137.292 357.476 137.113C357.679 136.932 357.781 136.672 357.781 136.333C357.781 136.01 357.679 135.753 357.476 135.559C357.273 135.366 356.994 135.266 356.639 135.258H355.316V137.381Z" fill="black"/>
<g filter="url(#filter29_d)">
<path d="M256.883 117.539H251.172C250.121 117.539 249.269 118.391 249.269 119.443V127.691C249.269 128.743 250.121 129.595 251.172 129.595H256.883C257.934 129.595 258.786 128.743 258.786 127.691V119.443C258.786 118.391 257.934 117.539 256.883 117.539Z" fill="black"/>
</g>
<path d="M256.883 117.539H251.172C250.121 117.539 249.269 118.391 249.269 119.443V127.691C249.269 128.743 250.121 129.595 251.172 129.595H256.883C257.934 129.595 258.786 128.743 258.786 127.691V119.443C258.786 118.391 257.934 117.539 256.883 117.539Z" fill="white"/>
<path d="M255.152 125.808H254.46V121.223L253.073 121.733V121.108L255.044 120.368H255.152V125.808Z" fill="black"/>
<g filter="url(#filter30_d)">
<path d="M268.305 117.538H262.594C261.543 117.538 260.69 118.39 260.69 119.442V127.69C260.69 128.742 261.543 129.594 262.594 129.594H268.305C269.356 129.594 270.208 128.742 270.208 127.69V119.442C270.208 118.39 269.356 117.538 268.305 117.538Z" fill="black"/>
</g>
<path d="M268.305 117.538H262.594C261.543 117.538 260.69 118.39 260.69 119.442V127.69C260.69 128.742 261.543 129.594 262.594 129.594H268.305C269.356 129.594 270.208 128.742 270.208 127.69V119.442C270.208 118.39 269.356 117.538 268.305 117.538Z" fill="white"/>
<path d="M267.542 125.808H263.995V125.313L265.869 123.231C266.146 122.916 266.337 122.661 266.441 122.465C266.548 122.267 266.601 122.062 266.601 121.852C266.601 121.569 266.516 121.337 266.344 121.157C266.173 120.976 265.945 120.885 265.66 120.885C265.318 120.885 265.052 120.983 264.861 121.179C264.673 121.372 264.578 121.642 264.578 121.989H263.891C263.891 121.491 264.051 121.088 264.37 120.781C264.693 120.474 265.123 120.32 265.66 120.32C266.164 120.32 266.561 120.453 266.854 120.718C267.146 120.981 267.293 121.331 267.293 121.77C267.293 122.303 266.953 122.937 266.274 123.674L264.824 125.246H267.542V125.808Z" fill="black"/>
<g filter="url(#filter31_d)">
<path d="M279.408 117.538H273.697C272.646 117.538 271.794 118.39 271.794 119.442V127.69C271.794 128.742 272.646 129.594 273.697 129.594H279.408C280.459 129.594 281.312 128.742 281.312 127.69V119.442C281.312 118.39 280.459 117.538 279.408 117.538Z" fill="black"/>
</g>
<path d="M279.408 117.538H273.697C272.646 117.538 271.794 118.39 271.794 119.442V127.69C271.794 128.742 272.646 129.594 273.697 129.594H279.408C280.459 129.594 281.312 128.742 281.312 127.69V119.442C281.312 118.39 280.459 117.538 279.408 117.538Z" fill="white"/>
<path d="M276.099 122.766H276.616C276.941 122.761 277.196 122.676 277.382 122.51C277.568 122.344 277.661 122.119 277.661 121.837C277.661 121.202 277.345 120.885 276.713 120.885C276.415 120.885 276.177 120.971 275.999 121.142C275.823 121.31 275.735 121.535 275.735 121.815H275.047C275.047 121.386 275.203 121.03 275.516 120.748C275.83 120.463 276.23 120.32 276.713 120.32C277.223 120.32 277.624 120.455 277.914 120.725C278.204 120.995 278.349 121.371 278.349 121.852C278.349 122.087 278.272 122.315 278.118 122.536C277.967 122.756 277.76 122.921 277.497 123.03C277.795 123.125 278.024 123.281 278.185 123.499C278.349 123.717 278.43 123.983 278.43 124.298C278.43 124.784 278.272 125.169 277.955 125.454C277.637 125.739 277.225 125.882 276.717 125.882C276.208 125.882 275.795 125.744 275.475 125.469C275.158 125.194 274.999 124.831 274.999 124.38H275.69C275.69 124.665 275.783 124.893 275.969 125.064C276.155 125.235 276.404 125.321 276.717 125.321C277.049 125.321 277.303 125.234 277.479 125.06C277.655 124.887 277.743 124.638 277.743 124.313C277.743 123.998 277.646 123.757 277.453 123.588C277.259 123.42 276.981 123.333 276.616 123.328H276.099V122.766Z" fill="black"/>
<g filter="url(#filter32_d)">
<path d="M290.83 117.538H285.119C284.068 117.538 283.216 118.39 283.216 119.442V127.69C283.216 128.742 284.068 129.594 285.119 129.594H290.83C291.881 129.594 292.734 128.742 292.734 127.69V119.442C292.734 118.39 291.881 117.538 290.83 117.538Z" fill="black"/>
</g>
<path d="M290.83 117.538H285.119C284.068 117.538 283.216 118.39 283.216 119.442V127.69C283.216 128.742 284.068 129.594 285.119 129.594H290.83C291.881 129.594 292.734 128.742 292.734 127.69V119.442C292.734 118.39 291.881 117.538 290.83 117.538Z" fill="white"/>
<path d="M289.424 123.99H290.175V124.551H289.424V125.808H288.732V124.551H286.267V124.146L288.691 120.394H289.424V123.99ZM287.048 123.99H288.732V121.335L288.651 121.484L287.048 123.99Z" fill="black"/>
<g filter="url(#filter33_d)">
<path d="M301.934 117.538H296.223C295.172 117.538 294.319 118.39 294.319 119.442V127.69C294.319 128.742 295.172 129.594 296.223 129.594H301.934C302.985 129.594 303.837 128.742 303.837 127.69V119.442C303.837 118.39 302.985 117.538 301.934 117.538Z" fill="black"/>
</g>
<path d="M301.934 117.538H296.223C295.172 117.538 294.319 118.39 294.319 119.442V127.69C294.319 128.742 295.172 129.594 296.223 129.594H301.934C302.985 129.594 303.837 128.742 303.837 127.69V119.442C303.837 118.39 302.985 117.538 301.934 117.538Z" fill="white"/>
<path d="M297.942 123.094L298.217 120.394H300.99V121.03H298.8L298.637 122.506C298.902 122.35 299.203 122.272 299.54 122.272C300.034 122.272 300.425 122.436 300.715 122.763C301.005 123.087 301.15 123.527 301.15 124.083C301.15 124.64 300.999 125.08 300.697 125.402C300.397 125.722 299.977 125.882 299.436 125.882C298.958 125.882 298.568 125.749 298.265 125.484C297.963 125.219 297.79 124.852 297.748 124.384H298.399C298.441 124.693 298.551 124.928 298.73 125.086C298.908 125.243 299.144 125.321 299.436 125.321C299.756 125.321 300.006 125.212 300.187 124.993C300.371 124.775 300.462 124.474 300.462 124.09C300.462 123.728 300.363 123.438 300.165 123.22C299.969 122.999 299.708 122.889 299.38 122.889C299.081 122.889 298.845 122.955 298.674 123.086L298.492 123.235L297.942 123.094Z" fill="black"/>
<g filter="url(#filter34_d)">
<path d="M313.355 117.538H307.645C306.593 117.538 305.741 118.39 305.741 119.442V127.69C305.741 128.742 306.593 129.594 307.645 129.594H313.355C314.407 129.594 315.259 128.742 315.259 127.69V119.442C315.259 118.39 314.407 117.538 313.355 117.538Z" fill="black"/>
</g>
<path d="M313.355 117.538H307.645C306.593 117.538 305.741 118.39 305.741 119.442V127.69C305.741 128.742 306.593 129.594 307.645 129.594H313.355C314.407 129.594 315.259 128.742 315.259 127.69V119.442C315.259 118.39 314.407 117.538 313.355 117.538Z" fill="white"/>
<path d="M311.745 120.391V120.974H311.618C311.083 120.984 310.657 121.143 310.339 121.45C310.022 121.758 309.839 122.19 309.789 122.748C310.074 122.421 310.463 122.257 310.957 122.257C311.427 122.257 311.803 122.423 312.083 122.755C312.366 123.087 312.507 123.516 312.507 124.042C312.507 124.599 312.354 125.045 312.05 125.38C311.747 125.715 311.341 125.882 310.83 125.882C310.312 125.882 309.892 125.684 309.57 125.287C309.248 124.888 309.086 124.375 309.086 123.748V123.484C309.086 122.488 309.298 121.727 309.722 121.201C310.149 120.673 310.782 120.403 311.622 120.391H311.745ZM310.841 122.83C310.606 122.83 310.389 122.9 310.191 123.042C309.992 123.183 309.855 123.36 309.778 123.573V123.826C309.778 124.272 309.878 124.632 310.079 124.904C310.28 125.177 310.53 125.313 310.83 125.313C311.14 125.313 311.383 125.199 311.559 124.971C311.737 124.743 311.827 124.444 311.827 124.075C311.827 123.703 311.736 123.403 311.555 123.175C311.377 122.945 311.139 122.83 310.841 122.83Z" fill="black"/>
<g filter="url(#filter35_d)">
<path d="M324.776 117.538H319.066C318.014 117.538 317.162 118.39 317.162 119.442V127.69C317.162 128.742 318.014 129.594 319.066 129.594H324.776C325.828 129.594 326.68 128.742 326.68 127.69V119.442C326.68 118.39 325.828 117.538 324.776 117.538Z" fill="black"/>
</g>
<path d="M324.776 117.538H319.066C318.014 117.538 317.162 118.39 317.162 119.442V127.69C317.162 128.742 318.014 129.594 319.066 129.594H324.776C325.828 129.594 326.68 128.742 326.68 127.69V119.442C326.68 118.39 325.828 117.538 324.776 117.538Z" fill="white"/>
<path d="M323.962 120.781L321.72 125.808H320.999L323.234 120.96H320.304V120.394H323.962V120.781Z" fill="black"/>
<g filter="url(#filter36_d)">
<path d="M336.198 117.538H330.488C329.436 117.538 328.584 118.39 328.584 119.442V127.69C328.584 128.742 329.436 129.594 330.488 129.594H336.198C337.249 129.594 338.102 128.742 338.102 127.69V119.442C338.102 118.39 337.249 117.538 336.198 117.538Z" fill="black"/>
</g>
<path d="M336.198 117.538H330.488C329.436 117.538 328.584 118.39 328.584 119.442V127.69C328.584 128.742 329.436 129.594 330.488 129.594H336.198C337.249 129.594 338.102 128.742 338.102 127.69V119.442C338.102 118.39 337.249 117.538 336.198 117.538Z" fill="white"/>
<path d="M335.172 121.807C335.172 122.077 335.1 122.318 334.957 122.528C334.815 122.739 334.623 122.904 334.38 123.023C334.663 123.144 334.886 123.322 335.05 123.555C335.216 123.788 335.299 124.052 335.299 124.346C335.299 124.815 335.14 125.188 334.823 125.466C334.508 125.743 334.093 125.882 333.577 125.882C333.057 125.882 332.639 125.743 332.324 125.466C332.012 125.185 331.856 124.812 331.856 124.346C331.856 124.054 331.935 123.79 332.094 123.555C332.255 123.319 332.477 123.141 332.759 123.019C332.519 122.9 332.329 122.735 332.19 122.525C332.052 122.314 331.982 122.075 331.982 121.807C331.982 121.351 332.128 120.989 332.421 120.722C332.713 120.454 333.099 120.32 333.577 120.32C334.053 120.32 334.437 120.454 334.73 120.722C335.025 120.989 335.172 121.351 335.172 121.807ZM334.611 124.332C334.611 124.029 334.514 123.783 334.321 123.592C334.13 123.401 333.88 123.305 333.57 123.305C333.26 123.305 333.011 123.4 332.823 123.588C332.637 123.776 332.544 124.024 332.544 124.332C332.544 124.639 332.634 124.881 332.815 125.057C332.998 125.233 333.253 125.321 333.577 125.321C333.899 125.321 334.152 125.233 334.336 125.057C334.519 124.878 334.611 124.636 334.611 124.332ZM333.577 120.885C333.307 120.885 333.088 120.969 332.919 121.138C332.753 121.304 332.67 121.531 332.67 121.818C332.67 122.093 332.752 122.317 332.915 122.488C333.082 122.656 333.302 122.74 333.577 122.74C333.852 122.74 334.072 122.656 334.235 122.488C334.401 122.317 334.484 122.093 334.484 121.818C334.484 121.543 334.399 121.319 334.228 121.145C334.057 120.972 333.84 120.885 333.577 120.885Z" fill="black"/>
<g filter="url(#filter37_d)">
<path d="M347.619 117.538H341.908C340.857 117.538 340.005 118.39 340.005 119.442V127.69C340.005 128.742 340.857 129.594 341.908 129.594H347.619C348.67 129.594 349.523 128.742 349.523 127.69V119.442C349.523 118.39 348.67 117.538 347.619 117.538Z" fill="black"/>
</g>
<path d="M347.619 117.538H341.908C340.857 117.538 340.005 118.39 340.005 119.442V127.69C340.005 128.742 340.857 129.594 341.908 129.594H347.619C348.67 129.594 349.523 128.742 349.523 127.69V119.442C349.523 118.39 348.67 117.538 347.619 117.538Z" fill="white"/>
<path d="M345.946 123.428C345.802 123.599 345.63 123.737 345.429 123.841C345.231 123.945 345.013 123.997 344.775 123.997C344.463 123.997 344.19 123.92 343.957 123.767C343.727 123.613 343.548 123.397 343.422 123.12C343.295 122.84 343.232 122.531 343.232 122.194C343.232 121.832 343.3 121.506 343.437 121.216C343.575 120.926 343.771 120.704 344.024 120.551C344.277 120.397 344.572 120.32 344.909 120.32C345.444 120.32 345.866 120.521 346.173 120.922C346.483 121.321 346.638 121.867 346.638 122.558V122.759C346.638 123.812 346.43 124.582 346.013 125.068C345.597 125.551 344.968 125.799 344.128 125.811H343.994V125.231H344.139C344.707 125.221 345.143 125.074 345.448 124.789C345.753 124.501 345.919 124.048 345.946 123.428ZM344.887 123.428C345.117 123.428 345.329 123.358 345.522 123.216C345.718 123.075 345.861 122.9 345.95 122.692V122.417C345.95 121.966 345.852 121.599 345.656 121.316C345.46 121.034 345.213 120.893 344.913 120.893C344.61 120.893 344.367 121.009 344.184 121.242C344 121.473 343.909 121.777 343.909 122.157C343.909 122.526 343.997 122.831 344.173 123.071C344.351 123.309 344.589 123.428 344.887 123.428Z" fill="black"/>
<g filter="url(#filter38_d)">
<path d="M359.04 117.538H353.329C352.278 117.538 351.426 118.39 351.426 119.442V127.69C351.426 128.742 352.278 129.594 353.329 129.594H359.04C360.091 129.594 360.944 128.742 360.944 127.69V119.442C360.944 118.39 360.091 117.538 359.04 117.538Z" fill="black"/>
</g>
<path d="M359.04 117.538H353.329C352.278 117.538 351.426 118.39 351.426 119.442V127.69C351.426 128.742 352.278 129.594 353.329 129.594H359.04C360.091 129.594 360.944 128.742 360.944 127.69V119.442C360.944 118.39 360.091 117.538 359.04 117.538Z" fill="white"/>
<path d="M358.127 123.499C358.127 124.304 357.989 124.903 357.714 125.295C357.439 125.686 357.009 125.882 356.424 125.882C355.846 125.882 355.419 125.691 355.141 125.309C354.863 124.925 354.72 124.353 354.71 123.592V122.673C354.71 121.878 354.847 121.287 355.122 120.9C355.398 120.513 355.829 120.32 356.416 120.32C356.999 120.32 357.428 120.507 357.703 120.881C357.978 121.253 358.119 121.828 358.127 122.607V123.499ZM357.439 122.558C357.439 121.976 357.357 121.552 357.193 121.287C357.03 121.019 356.771 120.885 356.416 120.885C356.064 120.885 355.808 121.018 355.647 121.283C355.486 121.548 355.403 121.956 355.398 122.506V123.607C355.398 124.192 355.482 124.624 355.65 124.904C355.821 125.182 356.079 125.321 356.424 125.321C356.763 125.321 357.015 125.189 357.178 124.926C357.345 124.664 357.431 124.25 357.439 123.685V122.558Z" fill="black"/>
<g filter="url(#filter39_d)">
<path d="M263.228 175.915H251.172C250.121 175.915 249.269 176.767 249.269 177.819V187.971C249.269 189.022 250.121 189.874 251.172 189.874H263.228C264.279 189.874 265.131 189.022 265.131 187.971V177.819C265.131 176.767 264.279 175.915 263.228 175.915Z" fill="black"/>
</g>
<path d="M263.228 175.915H251.172C250.121 175.915 249.269 176.767 249.269 177.819V187.971C249.269 189.022 250.121 189.874 251.172 189.874H263.228C264.279 189.874 265.131 189.022 265.131 187.971V177.819C265.131 176.767 264.279 175.915 263.228 175.915Z" fill="#CBCED5"/>
<path d="M252.771 183.705C252.774 183.509 252.796 183.354 252.838 183.239C252.879 183.125 252.963 182.999 253.09 182.86L253.415 182.526C253.554 182.369 253.623 182.2 253.623 182.02C253.623 181.847 253.578 181.711 253.487 181.614C253.396 181.514 253.264 181.465 253.09 181.465C252.922 181.465 252.786 181.509 252.684 181.599C252.581 181.688 252.53 181.808 252.53 181.958H252.072C252.075 181.69 252.17 181.475 252.357 181.311C252.545 181.146 252.79 181.063 253.09 181.063C253.403 181.063 253.646 181.148 253.819 181.316C253.994 181.483 254.082 181.713 254.082 182.005C254.082 182.294 253.948 182.579 253.68 182.86L253.41 183.128C253.289 183.262 253.229 183.454 253.229 183.705H252.771ZM252.751 184.491C252.751 184.417 252.773 184.355 252.818 184.305C252.864 184.254 252.932 184.228 253.021 184.228C253.11 184.228 253.178 184.254 253.224 184.305C253.27 184.355 253.294 184.417 253.294 184.491C253.294 184.566 253.27 184.627 253.224 184.677C253.178 184.725 253.11 184.749 253.021 184.749C252.932 184.749 252.864 184.725 252.818 184.677C252.773 184.627 252.751 184.566 252.751 184.491ZM256.092 184.722H255.631V181.666L254.706 182.005V181.589L256.02 181.096H256.092V184.722ZM259.8 184.722H257.435V184.392L258.684 183.004C258.87 182.794 258.997 182.624 259.066 182.493C259.137 182.361 259.173 182.225 259.173 182.084C259.173 181.896 259.116 181.742 259.002 181.621C258.888 181.5 258.736 181.44 258.546 181.44C258.318 181.44 258.14 181.505 258.013 181.636C257.887 181.765 257.824 181.945 257.824 182.176H257.366C257.366 181.844 257.472 181.576 257.686 181.371C257.9 181.166 258.187 181.063 258.546 181.063C258.881 181.063 259.146 181.152 259.341 181.328C259.536 181.504 259.634 181.737 259.634 182.03C259.634 182.385 259.407 182.808 258.955 183.299L257.988 184.347H259.8V184.722ZM260.952 182.694H261.297C261.513 182.691 261.684 182.634 261.808 182.523C261.931 182.412 261.993 182.263 261.993 182.075C261.993 181.652 261.783 181.44 261.361 181.44C261.163 181.44 261.004 181.497 260.885 181.611C260.768 181.723 260.709 181.873 260.709 182.06H260.251C260.251 181.774 260.355 181.537 260.563 181.348C260.773 181.158 261.039 181.063 261.361 181.063C261.702 181.063 261.969 181.153 262.162 181.333C262.355 181.514 262.452 181.764 262.452 182.084C262.452 182.241 262.401 182.393 262.298 182.541C262.197 182.688 262.06 182.797 261.884 182.87C262.083 182.933 262.235 183.037 262.343 183.182C262.452 183.328 262.506 183.506 262.506 183.715C262.506 184.039 262.401 184.296 262.189 184.486C261.978 184.676 261.703 184.771 261.364 184.771C261.025 184.771 260.749 184.68 260.536 184.496C260.324 184.313 260.219 184.071 260.219 183.77H260.68C260.68 183.96 260.742 184.112 260.866 184.226C260.99 184.34 261.156 184.397 261.364 184.397C261.585 184.397 261.755 184.339 261.872 184.223C261.989 184.108 262.048 183.942 262.048 183.725C262.048 183.515 261.983 183.354 261.855 183.242C261.726 183.13 261.54 183.072 261.297 183.068H260.952V182.694Z" fill="black"/>
<g filter="url(#filter40_d)">
<path d="M274.016 175.914H268.305C267.254 175.914 266.401 176.766 266.401 177.818V187.97C266.401 189.021 267.254 189.873 268.305 189.873H274.016C275.067 189.873 275.919 189.021 275.919 187.97V177.818C275.919 176.766 275.067 175.914 274.016 175.914Z" fill="black"/>
</g>
<path d="M274.016 175.914H268.305C267.254 175.914 266.401 176.766 266.401 177.818V187.97C266.401 189.021 267.254 189.873 268.305 189.873H274.016C275.067 189.873 275.919 189.021 275.919 187.97V177.818C275.919 176.766 275.067 175.914 274.016 175.914Z" fill="white"/>
<path d="M270.952 186.937L270.627 186.713C270.821 186.443 270.922 186.164 270.931 185.877V185.36H271.491V185.809C271.491 186.017 271.44 186.226 271.336 186.435C271.235 186.643 271.107 186.811 270.952 186.937Z" fill="black"/>
<g filter="url(#filter41_d)">
<path d="M342.227 175.914H336.516C335.465 175.914 334.612 176.766 334.612 177.818V187.97C334.612 189.021 335.465 189.873 336.516 189.873H342.227C343.278 189.873 344.13 189.021 344.13 187.97V177.818C344.13 176.766 343.278 175.914 342.227 175.914Z" fill="black"/>
</g>
<path d="M342.227 175.914H336.516C335.465 175.914 334.612 176.766 334.612 177.818V187.97C334.612 189.021 335.465 189.873 336.516 189.873H342.227C343.278 189.873 344.13 189.021 344.13 187.97V177.818C344.13 176.766 343.278 175.914 342.227 175.914Z" fill="#CBCED5"/>
<path d="M338.982 185.738C338.982 185.638 339.011 185.556 339.069 185.49C339.129 185.424 339.218 185.391 339.335 185.391C339.453 185.391 339.542 185.424 339.602 185.49C339.664 185.556 339.695 185.638 339.695 185.738C339.695 185.833 339.664 185.912 339.602 185.976C339.542 186.04 339.453 186.072 339.335 186.072C339.218 186.072 339.129 186.04 339.069 185.976C339.011 185.912 338.982 185.833 338.982 185.738Z" fill="black"/>
<g filter="url(#filter42_d)">
<path d="M331.439 175.914H279.091C278.04 175.914 277.188 176.766 277.188 177.818V187.97C277.188 189.021 278.04 189.873 279.091 189.873H331.439C332.49 189.873 333.342 189.021 333.342 187.97V177.818C333.342 176.766 332.49 175.914 331.439 175.914Z" fill="black"/>
</g>
<path d="M331.439 175.914H279.091C278.04 175.914 277.188 176.766 277.188 177.818V187.97C277.188 189.021 278.04 189.873 279.091 189.873H331.439C332.49 189.873 333.342 189.021 333.342 187.97V177.818C333.342 176.766 332.49 175.914 331.439 175.914Z" fill="white"/>
<path d="M300.115 182.579H298.747V183.698H300.336V184.038H298.33V180.88H300.315V181.223H298.747V182.238H300.115V182.579ZM303.282 184.038H302.863L301.273 181.605V184.038H300.855V180.88H301.273L302.867 183.325V180.88H303.282V184.038ZM305.056 182.364C305.056 182.238 305.095 182.135 305.175 182.054C305.256 181.973 305.363 181.932 305.496 181.932C305.628 181.932 305.735 181.972 305.817 182.052C305.899 182.13 305.941 182.236 305.941 182.37V182.451C305.941 182.576 305.901 182.679 305.821 182.759C305.742 182.838 305.634 182.878 305.498 182.878C305.364 182.878 305.256 182.838 305.175 182.759C305.095 182.678 305.056 182.573 305.056 182.446V182.364ZM308.14 183.698H309.636V184.038H307.721V180.88H308.14V183.698ZM310.775 183.485L311.677 180.88H312.132L310.961 184.038H310.593L309.424 180.88H309.877L310.775 183.485Z" fill="black"/>
<g filter="url(#filter43_d)">
<path d="M359.041 175.913H347.302C346.251 175.913 345.398 176.765 345.398 177.817V187.969C345.398 189.02 346.251 189.872 347.302 189.872H359.041C360.092 189.872 360.944 189.02 360.944 187.969V177.817C360.944 176.765 360.092 175.913 359.041 175.913Z" fill="black"/>
</g>
<path d="M359.041 175.913H347.302C346.251 175.913 345.398 176.765 345.398 177.817V187.969C345.398 189.02 346.251 189.872 347.302 189.872H359.041C360.092 189.872 360.944 189.02 360.944 187.969V177.817C360.944 176.765 360.092 175.913 359.041 175.913Z" fill="#1A73E9"/>
<path fill-rule="evenodd" clip-rule="evenodd" d="M356.502 180.989V184.796H355.868V180.989H356.502ZM353.439 181.098L354.785 182.444L355.233 182.893L354.916 183.21L354.785 183.342L353.439 184.688L352.99 184.239L354.019 183.21H349.84V182.576H354.019L352.99 181.547L353.439 181.098Z" fill="white"/>
</g>
<path d="M300.707 220.391H303.258L304.472 210.551L300.707 210.551L300.707 220.391Z" fill="#FFB774"/>
<path d="M300.057 219.558L305.08 219.558H305.08C305.501 219.558 305.917 219.64 306.305 219.801C306.694 219.962 307.047 220.198 307.344 220.495C307.641 220.793 307.877 221.146 308.038 221.534C308.199 221.923 308.282 222.339 308.282 222.759V222.863L300.057 222.864L300.057 219.558Z" fill="#2F2E41"/>
<path d="M290.512 220.391H293.063L294.276 210.551L290.512 210.551L290.512 220.391Z" fill="#FFB774"/>
<path d="M289.861 219.558L294.885 219.558H294.885C295.305 219.558 295.722 219.64 296.11 219.801C296.498 219.962 296.851 220.198 297.149 220.495C297.446 220.793 297.682 221.146 297.843 221.534C298.003 221.923 298.086 222.339 298.086 222.759V222.863L289.861 222.864L289.861 219.558Z" fill="#2F2E41"/>
<path d="M301.217 152.265C304.039 152.265 306.327 149.977 306.327 147.154C306.327 144.331 304.039 142.043 301.217 142.043C298.394 142.043 296.106 144.331 296.106 147.154C296.106 149.977 298.394 152.265 301.217 152.265Z" fill="#FFB774"/>
<path d="M304.653 218.267H299.919C299.795 218.267 299.672 218.242 299.558 218.194C299.444 218.147 299.34 218.077 299.253 217.988C299.166 217.9 299.097 217.796 299.051 217.681C299.004 217.566 298.981 217.443 298.983 217.319L299.258 194.839C299.259 194.759 299.229 194.682 299.175 194.623C299.121 194.564 299.046 194.529 298.967 194.523C298.887 194.518 298.808 194.543 298.747 194.594C298.685 194.645 298.646 194.718 298.636 194.797L295.881 217.444C295.853 217.671 295.743 217.88 295.572 218.031C295.401 218.183 295.18 218.267 294.952 218.267H290.173C290.044 218.267 289.916 218.24 289.798 218.188C289.679 218.137 289.573 218.061 289.485 217.966C289.398 217.871 289.33 217.759 289.288 217.638C289.246 217.516 289.229 217.386 289.239 217.257L292.395 176.872L292.481 176.863L307.592 175.23L305.588 217.375C305.577 217.615 305.473 217.842 305.299 218.008C305.125 218.174 304.893 218.267 304.653 218.267Z" fill="#2F2E41"/>
<path d="M289.971 178.163C289.73 178.135 289.509 178.014 289.355 177.826C289.201 177.639 289.127 177.398 289.146 177.156C289.352 174.61 290.207 165.814 292.571 159.554C293.216 157.844 294.394 156.387 295.931 155.398C297.469 154.409 299.283 153.941 301.107 154.063C302.903 154.168 304.621 154.836 306.017 155.973C307.413 157.109 308.415 158.656 308.882 160.395C310.836 167.675 312.455 176.558 309.07 177.539C304.633 178.824 293.374 178.345 290.029 178.167C290.009 178.166 289.99 178.165 289.971 178.163Z" fill="#ABCC75"/>
<path d="M312.11 141.988C312.19 142.071 312.277 142.147 312.369 142.216L311.833 152.522L309.602 153.664L310.885 157.258L315.032 155.619C315.367 155.486 315.65 155.249 315.839 154.942C316.027 154.635 316.111 154.275 316.078 153.917L314.991 142.226C315.347 141.961 315.613 141.594 315.755 141.173C315.897 140.753 315.907 140.299 315.785 139.873C315.662 139.447 315.413 139.068 315.07 138.786C314.727 138.505 314.307 138.335 313.865 138.298C313.423 138.262 312.98 138.361 312.596 138.582C312.212 138.803 311.904 139.137 311.713 139.537C311.523 139.938 311.459 140.387 311.529 140.825C311.6 141.262 311.803 141.668 312.11 141.988H312.11Z" fill="#FFB774"/>
<path d="M289.975 141.988C289.895 142.071 289.808 142.147 289.716 142.216L290.252 152.522L292.483 153.664L291.199 157.258L287.053 155.619C286.718 155.486 286.435 155.249 286.246 154.942C286.058 154.635 285.974 154.275 286.007 153.917L287.093 142.226C286.738 141.961 286.472 141.594 286.33 141.173C286.188 140.753 286.178 140.299 286.3 139.873C286.422 139.447 286.672 139.068 287.015 138.786C287.357 138.505 287.778 138.335 288.22 138.298C288.662 138.262 289.105 138.361 289.489 138.582C289.873 138.803 290.181 139.137 290.372 139.537C290.562 139.938 290.626 140.387 290.555 140.825C290.485 141.262 290.282 141.668 289.975 141.988Z" fill="#FFB774"/>
<path d="M303.202 148.026C303.175 147.374 303.338 146.728 303.672 146.168C304.006 145.607 304.496 145.156 305.083 144.869C306.636 144.067 307.612 142.357 307.184 140.795C306.637 138.795 303.916 137.498 301.711 138.186C301.114 138.398 300.539 138.665 299.992 138.985L298.552 139.757C297.937 140.065 297.343 140.416 296.776 140.806C295.927 141.432 295.261 142.274 294.849 143.245C294.436 144.216 294.292 145.28 294.431 146.326C294.715 148.359 296.046 150.223 297.868 151.5C298.565 152.02 299.37 152.378 300.223 152.547C301.096 152.691 302.069 152.527 302.707 151.984C303.705 151.135 303.602 149.713 303.279 148.526C303.237 148.362 303.211 148.195 303.202 148.026Z" fill="#2F2E41"/>
<circle cx="179.5" cy="114.5" r="11.5" fill="#D7F2AA" fill-opacity="0.3"/>
<circle cx="212.5" cy="114.5" r="11.5" fill="#D7F2AA" fill-opacity="0.3"/>
<rect x="168" y="131" width="23" height="7" fill="#D7F2AA" fill-opacity="0.3"/>
<rect x="201" y="131" width="23" height="7" fill="#D7F2AA" fill-opacity="0.3"/>
<rect x="168" y="140" width="23" height="2" fill="#D7F2AA" fill-opacity="0.3"/>
<rect x="168" y="151" width="56" height="2" fill="#D7F2AA" fill-opacity="0.3"/>
<rect x="168" y="158" width="56" height="2" fill="#D7F2AA" fill-opacity="0.3"/>
<rect x="168" y="165" width="56" height="2" fill="#D7F2AA" fill-opacity="0.3"/>
<rect x="168" y="175" width="56" height="7" fill="#D7F2AA" fill-opacity="0.3"/>
<rect x="201" y="140" width="23" height="2" fill="#D7F2AA" fill-opacity="0.3"/>
<path d="M313.5 109.5V81H255" stroke="#B6CD91" stroke-width="3" stroke-linecap="round" stroke-linejoin="round" stroke-dasharray="10 10"/>
<path d="M255 87L247 81L255 75" stroke="#B6CD91" stroke-width="3" stroke-linecap="round" stroke-linejoin="round"/>
<defs>
<filter id="filter0_d" x="148" y="63" width="95" height="39.1641" filterUnits="userSpaceOnUse" color-interpolation-filters="sRGB">
<feFlood flood-opacity="0" result="BackgroundImageFix"/>
<feColorMatrix in="SourceAlpha" type="matrix" values="0 0 0 0 0 0 0 0 0 0 0 0 0 0 0 0 0 0 127 0"/>
<feOffset dy="2"/>
<feGaussianBlur stdDeviation="1"/>
<feColorMatrix type="matrix" values="0 0 0 0 0 0 0 0 0 0 0 0 0 0 0 0 0 0 0.15 0"/>
<feBlend mode="normal" in2="BackgroundImageFix" result="effect1_dropShadow"/>
<feBlend mode="normal" in="SourceGraphic" in2="effect1_dropShadow" result="shape"/>
</filter>
<filter id="filter1_d" x="248.951" y="160.686" width="16.4975" height="13.3249" filterUnits="userSpaceOnUse" color-interpolation-filters="sRGB">
<feFlood flood-opacity="0" result="BackgroundImageFix"/>
<feColorMatrix in="SourceAlpha" type="matrix" values="0 0 0 0 0 0 0 0 0 0 0 0 0 0 0 0 0 0 127 0"/>
<feOffset dy="0.317259"/>
<feGaussianBlur stdDeviation="0.158629"/>
<feColorMatrix type="matrix" values="0 0 0 0 0 0 0 0 0 0 0 0 0 0 0 0 0 0 0.36 0"/>
<feBlend mode="normal" in2="BackgroundImageFix" result="effect1_dropShadow"/>
<feBlend mode="normal" in="SourceGraphic" in2="effect1_dropShadow" result="shape"/>
</filter>
<filter id="filter2_d" x="344.764" y="160.686" width="16.4975" height="13.3249" filterUnits="userSpaceOnUse" color-interpolation-filters="sRGB">
<feFlood flood-opacity="0" result="BackgroundImageFix"/>
<feColorMatrix in="SourceAlpha" type="matrix" values="0 0 0 0 0 0 0 0 0 0 0 0 0 0 0 0 0 0 127 0"/>
<feOffset dy="0.317259"/>
<feGaussianBlur stdDeviation="0.158629"/>
<feColorMatrix type="matrix" values="0 0 0 0 0 0 0 0 0 0 0 0 0 0 0 0 0 0 0.36 0"/>
<feBlend mode="normal" in2="BackgroundImageFix" result="effect1_dropShadow"/>
<feBlend mode="normal" in="SourceGraphic" in2="effect1_dropShadow" result="shape"/>
</filter>
<filter id="filter3_d" x="266.719" y="160.687" width="10.1523" height="13.3249" filterUnits="userSpaceOnUse" color-interpolation-filters="sRGB">
<feFlood flood-opacity="0" result="BackgroundImageFix"/>
<feColorMatrix in="SourceAlpha" type="matrix" values="0 0 0 0 0 0 0 0 0 0 0 0 0 0 0 0 0 0 127 0"/>
<feOffset dy="0.317259"/>
<feGaussianBlur stdDeviation="0.158629"/>
<feColorMatrix type="matrix" values="0 0 0 0 0 0 0 0 0 0 0 0 0 0 0 0 0 0 0.36 0"/>
<feBlend mode="normal" in2="BackgroundImageFix" result="effect1_dropShadow"/>
<feBlend mode="normal" in="SourceGraphic" in2="effect1_dropShadow" result="shape"/>
</filter>
<filter id="filter4_d" x="277.822" y="160.686" width="10.1523" height="13.3249" filterUnits="userSpaceOnUse" color-interpolation-filters="sRGB">
<feFlood flood-opacity="0" result="BackgroundImageFix"/>
<feColorMatrix in="SourceAlpha" type="matrix" values="0 0 0 0 0 0 0 0 0 0 0 0 0 0 0 0 0 0 127 0"/>
<feOffset dy="0.317259"/>
<feGaussianBlur stdDeviation="0.158629"/>
<feColorMatrix type="matrix" values="0 0 0 0 0 0 0 0 0 0 0 0 0 0 0 0 0 0 0.36 0"/>
<feBlend mode="normal" in2="BackgroundImageFix" result="effect1_dropShadow"/>
<feBlend mode="normal" in="SourceGraphic" in2="effect1_dropShadow" result="shape"/>
</filter>
<filter id="filter5_d" x="288.926" y="160.686" width="10.1523" height="13.3249" filterUnits="userSpaceOnUse" color-interpolation-filters="sRGB">
<feFlood flood-opacity="0" result="BackgroundImageFix"/>
<feColorMatrix in="SourceAlpha" type="matrix" values="0 0 0 0 0 0 0 0 0 0 0 0 0 0 0 0 0 0 127 0"/>
<feOffset dy="0.317259"/>
<feGaussianBlur stdDeviation="0.158629"/>
<feColorMatrix type="matrix" values="0 0 0 0 0 0 0 0 0 0 0 0 0 0 0 0 0 0 0.36 0"/>
<feBlend mode="normal" in2="BackgroundImageFix" result="effect1_dropShadow"/>
<feBlend mode="normal" in="SourceGraphic" in2="effect1_dropShadow" result="shape"/>
</filter>
<filter id="filter6_d" x="300.03" y="160.686" width="10.1523" height="13.3249" filterUnits="userSpaceOnUse" color-interpolation-filters="sRGB">
<feFlood flood-opacity="0" result="BackgroundImageFix"/>
<feColorMatrix in="SourceAlpha" type="matrix" values="0 0 0 0 0 0 0 0 0 0 0 0 0 0 0 0 0 0 127 0"/>
<feOffset dy="0.317259"/>
<feGaussianBlur stdDeviation="0.158629"/>
<feColorMatrix type="matrix" values="0 0 0 0 0 0 0 0 0 0 0 0 0 0 0 0 0 0 0.36 0"/>
<feBlend mode="normal" in2="BackgroundImageFix" result="effect1_dropShadow"/>
<feBlend mode="normal" in="SourceGraphic" in2="effect1_dropShadow" result="shape"/>
</filter>
<filter id="filter7_d" x="311.135" y="160.686" width="10.1523" height="13.3249" filterUnits="userSpaceOnUse" color-interpolation-filters="sRGB">
<feFlood flood-opacity="0" result="BackgroundImageFix"/>
<feColorMatrix in="SourceAlpha" type="matrix" values="0 0 0 0 0 0 0 0 0 0 0 0 0 0 0 0 0 0 127 0"/>
<feOffset dy="0.317259"/>
<feGaussianBlur stdDeviation="0.158629"/>
<feColorMatrix type="matrix" values="0 0 0 0 0 0 0 0 0 0 0 0 0 0 0 0 0 0 0.36 0"/>
<feBlend mode="normal" in2="BackgroundImageFix" result="effect1_dropShadow"/>
<feBlend mode="normal" in="SourceGraphic" in2="effect1_dropShadow" result="shape"/>
</filter>
<filter id="filter8_d" x="322.238" y="160.686" width="10.1523" height="13.3249" filterUnits="userSpaceOnUse" color-interpolation-filters="sRGB">
<feFlood flood-opacity="0" result="BackgroundImageFix"/>
<feColorMatrix in="SourceAlpha" type="matrix" values="0 0 0 0 0 0 0 0 0 0 0 0 0 0 0 0 0 0 127 0"/>
<feOffset dy="0.317259"/>
<feGaussianBlur stdDeviation="0.158629"/>
<feColorMatrix type="matrix" values="0 0 0 0 0 0 0 0 0 0 0 0 0 0 0 0 0 0 0.36 0"/>
<feBlend mode="normal" in2="BackgroundImageFix" result="effect1_dropShadow"/>
<feBlend mode="normal" in="SourceGraphic" in2="effect1_dropShadow" result="shape"/>
</filter>
<filter id="filter9_d" x="333.343" y="160.686" width="10.1523" height="13.3249" filterUnits="userSpaceOnUse" color-interpolation-filters="sRGB">
<feFlood flood-opacity="0" result="BackgroundImageFix"/>
<feColorMatrix in="SourceAlpha" type="matrix" values="0 0 0 0 0 0 0 0 0 0 0 0 0 0 0 0 0 0 127 0"/>
<feOffset dy="0.317259"/>
<feGaussianBlur stdDeviation="0.158629"/>
<feColorMatrix type="matrix" values="0 0 0 0 0 0 0 0 0 0 0 0 0 0 0 0 0 0 0.36 0"/>
<feBlend mode="normal" in2="BackgroundImageFix" result="effect1_dropShadow"/>
<feBlend mode="normal" in="SourceGraphic" in2="effect1_dropShadow" result="shape"/>
</filter>
<filter id="filter10_d" x="254.662" y="146.092" width="10.1523" height="13.3249" filterUnits="userSpaceOnUse" color-interpolation-filters="sRGB">
<feFlood flood-opacity="0" result="BackgroundImageFix"/>
<feColorMatrix in="SourceAlpha" type="matrix" values="0 0 0 0 0 0 0 0 0 0 0 0 0 0 0 0 0 0 127 0"/>
<feOffset dy="0.317259"/>
<feGaussianBlur stdDeviation="0.158629"/>
<feColorMatrix type="matrix" values="0 0 0 0 0 0 0 0 0 0 0 0 0 0 0 0 0 0 0.36 0"/>
<feBlend mode="normal" in2="BackgroundImageFix" result="effect1_dropShadow"/>
<feBlend mode="normal" in="SourceGraphic" in2="effect1_dropShadow" result="shape"/>
</filter>
<filter id="filter11_d" x="266.084" y="146.092" width="10.1523" height="13.3249" filterUnits="userSpaceOnUse" color-interpolation-filters="sRGB">
<feFlood flood-opacity="0" result="BackgroundImageFix"/>
<feColorMatrix in="SourceAlpha" type="matrix" values="0 0 0 0 0 0 0 0 0 0 0 0 0 0 0 0 0 0 127 0"/>
<feOffset dy="0.317259"/>
<feGaussianBlur stdDeviation="0.158629"/>
<feColorMatrix type="matrix" values="0 0 0 0 0 0 0 0 0 0 0 0 0 0 0 0 0 0 0.36 0"/>
<feBlend mode="normal" in2="BackgroundImageFix" result="effect1_dropShadow"/>
<feBlend mode="normal" in="SourceGraphic" in2="effect1_dropShadow" result="shape"/>
</filter>
<filter id="filter12_d" x="277.505" y="146.092" width="10.1523" height="13.3249" filterUnits="userSpaceOnUse" color-interpolation-filters="sRGB">
<feFlood flood-opacity="0" result="BackgroundImageFix"/>
<feColorMatrix in="SourceAlpha" type="matrix" values="0 0 0 0 0 0 0 0 0 0 0 0 0 0 0 0 0 0 127 0"/>
<feOffset dy="0.317259"/>
<feGaussianBlur stdDeviation="0.158629"/>
<feColorMatrix type="matrix" values="0 0 0 0 0 0 0 0 0 0 0 0 0 0 0 0 0 0 0.36 0"/>
<feBlend mode="normal" in2="BackgroundImageFix" result="effect1_dropShadow"/>
<feBlend mode="normal" in="SourceGraphic" in2="effect1_dropShadow" result="shape"/>
</filter>
<filter id="filter13_d" x="288.609" y="146.092" width="10.1523" height="13.3249" filterUnits="userSpaceOnUse" color-interpolation-filters="sRGB">
<feFlood flood-opacity="0" result="BackgroundImageFix"/>
<feColorMatrix in="SourceAlpha" type="matrix" values="0 0 0 0 0 0 0 0 0 0 0 0 0 0 0 0 0 0 127 0"/>
<feOffset dy="0.317259"/>
<feGaussianBlur stdDeviation="0.158629"/>
<feColorMatrix type="matrix" values="0 0 0 0 0 0 0 0 0 0 0 0 0 0 0 0 0 0 0.36 0"/>
<feBlend mode="normal" in2="BackgroundImageFix" result="effect1_dropShadow"/>
<feBlend mode="normal" in="SourceGraphic" in2="effect1_dropShadow" result="shape"/>
</filter>
<filter id="filter14_d" x="300.03" y="146.092" width="10.1523" height="13.3249" filterUnits="userSpaceOnUse" color-interpolation-filters="sRGB">
<feFlood flood-opacity="0" result="BackgroundImageFix"/>
<feColorMatrix in="SourceAlpha" type="matrix" values="0 0 0 0 0 0 0 0 0 0 0 0 0 0 0 0 0 0 127 0"/>
<feOffset dy="0.317259"/>
<feGaussianBlur stdDeviation="0.158629"/>
<feColorMatrix type="matrix" values="0 0 0 0 0 0 0 0 0 0 0 0 0 0 0 0 0 0 0.36 0"/>
<feBlend mode="normal" in2="BackgroundImageFix" result="effect1_dropShadow"/>
<feBlend mode="normal" in="SourceGraphic" in2="effect1_dropShadow" result="shape"/>
</filter>
<filter id="filter15_d" x="311.451" y="146.092" width="10.1523" height="13.3249" filterUnits="userSpaceOnUse" color-interpolation-filters="sRGB">
<feFlood flood-opacity="0" result="BackgroundImageFix"/>
<feColorMatrix in="SourceAlpha" type="matrix" values="0 0 0 0 0 0 0 0 0 0 0 0 0 0 0 0 0 0 127 0"/>
<feOffset dy="0.317259"/>
<feGaussianBlur stdDeviation="0.158629"/>
<feColorMatrix type="matrix" values="0 0 0 0 0 0 0 0 0 0 0 0 0 0 0 0 0 0 0.36 0"/>
<feBlend mode="normal" in2="BackgroundImageFix" result="effect1_dropShadow"/>
<feBlend mode="normal" in="SourceGraphic" in2="effect1_dropShadow" result="shape"/>
</filter>
<filter id="filter16_d" x="322.873" y="146.092" width="10.1523" height="13.3249" filterUnits="userSpaceOnUse" color-interpolation-filters="sRGB">
<feFlood flood-opacity="0" result="BackgroundImageFix"/>
<feColorMatrix in="SourceAlpha" type="matrix" values="0 0 0 0 0 0 0 0 0 0 0 0 0 0 0 0 0 0 127 0"/>
<feOffset dy="0.317259"/>
<feGaussianBlur stdDeviation="0.158629"/>
<feColorMatrix type="matrix" values="0 0 0 0 0 0 0 0 0 0 0 0 0 0 0 0 0 0 0.36 0"/>
<feBlend mode="normal" in2="BackgroundImageFix" result="effect1_dropShadow"/>
<feBlend mode="normal" in="SourceGraphic" in2="effect1_dropShadow" result="shape"/>
</filter>
<filter id="filter17_d" x="333.977" y="146.092" width="10.1523" height="13.3249" filterUnits="userSpaceOnUse" color-interpolation-filters="sRGB">
<feFlood flood-opacity="0" result="BackgroundImageFix"/>
<feColorMatrix in="SourceAlpha" type="matrix" values="0 0 0 0 0 0 0 0 0 0 0 0 0 0 0 0 0 0 127 0"/>
<feOffset dy="0.317259"/>
<feGaussianBlur stdDeviation="0.158629"/>
<feColorMatrix type="matrix" values="0 0 0 0 0 0 0 0 0 0 0 0 0 0 0 0 0 0 0.36 0"/>
<feBlend mode="normal" in2="BackgroundImageFix" result="effect1_dropShadow"/>
<feBlend mode="normal" in="SourceGraphic" in2="effect1_dropShadow" result="shape"/>
</filter>
<filter id="filter18_d" x="345.399" y="146.092" width="10.1523" height="13.3249" filterUnits="userSpaceOnUse" color-interpolation-filters="sRGB">
<feFlood flood-opacity="0" result="BackgroundImageFix"/>
<feColorMatrix in="SourceAlpha" type="matrix" values="0 0 0 0 0 0 0 0 0 0 0 0 0 0 0 0 0 0 127 0"/>
<feOffset dy="0.317259"/>
<feGaussianBlur stdDeviation="0.158629"/>
<feColorMatrix type="matrix" values="0 0 0 0 0 0 0 0 0 0 0 0 0 0 0 0 0 0 0.36 0"/>
<feBlend mode="normal" in2="BackgroundImageFix" result="effect1_dropShadow"/>
<feBlend mode="normal" in="SourceGraphic" in2="effect1_dropShadow" result="shape"/>
</filter>
<filter id="filter19_d" x="248.951" y="131.497" width="10.1523" height="13.3249" filterUnits="userSpaceOnUse" color-interpolation-filters="sRGB">
<feFlood flood-opacity="0" result="BackgroundImageFix"/>
<feColorMatrix in="SourceAlpha" type="matrix" values="0 0 0 0 0 0 0 0 0 0 0 0 0 0 0 0 0 0 127 0"/>
<feOffset dy="0.317259"/>
<feGaussianBlur stdDeviation="0.158629"/>
<feColorMatrix type="matrix" values="0 0 0 0 0 0 0 0 0 0 0 0 0 0 0 0 0 0 0.36 0"/>
<feBlend mode="normal" in2="BackgroundImageFix" result="effect1_dropShadow"/>
<feBlend mode="normal" in="SourceGraphic" in2="effect1_dropShadow" result="shape"/>
</filter>
<filter id="filter20_d" x="260.373" y="131.497" width="10.1523" height="13.3249" filterUnits="userSpaceOnUse" color-interpolation-filters="sRGB">
<feFlood flood-opacity="0" result="BackgroundImageFix"/>
<feColorMatrix in="SourceAlpha" type="matrix" values="0 0 0 0 0 0 0 0 0 0 0 0 0 0 0 0 0 0 127 0"/>
<feOffset dy="0.317259"/>
<feGaussianBlur stdDeviation="0.158629"/>
<feColorMatrix type="matrix" values="0 0 0 0 0 0 0 0 0 0 0 0 0 0 0 0 0 0 0.36 0"/>
<feBlend mode="normal" in2="BackgroundImageFix" result="effect1_dropShadow"/>
<feBlend mode="normal" in="SourceGraphic" in2="effect1_dropShadow" result="shape"/>
</filter>
<filter id="filter21_d" x="271.794" y="131.497" width="10.1523" height="13.3249" filterUnits="userSpaceOnUse" color-interpolation-filters="sRGB">
<feFlood flood-opacity="0" result="BackgroundImageFix"/>
<feColorMatrix in="SourceAlpha" type="matrix" values="0 0 0 0 0 0 0 0 0 0 0 0 0 0 0 0 0 0 127 0"/>
<feOffset dy="0.317259"/>
<feGaussianBlur stdDeviation="0.158629"/>
<feColorMatrix type="matrix" values="0 0 0 0 0 0 0 0 0 0 0 0 0 0 0 0 0 0 0.36 0"/>
<feBlend mode="normal" in2="BackgroundImageFix" result="effect1_dropShadow"/>
<feBlend mode="normal" in="SourceGraphic" in2="effect1_dropShadow" result="shape"/>
</filter>
<filter id="filter22_d" x="282.899" y="131.497" width="10.1523" height="13.3249" filterUnits="userSpaceOnUse" color-interpolation-filters="sRGB">
<feFlood flood-opacity="0" result="BackgroundImageFix"/>
<feColorMatrix in="SourceAlpha" type="matrix" values="0 0 0 0 0 0 0 0 0 0 0 0 0 0 0 0 0 0 127 0"/>
<feOffset dy="0.317259"/>
<feGaussianBlur stdDeviation="0.158629"/>
<feColorMatrix type="matrix" values="0 0 0 0 0 0 0 0 0 0 0 0 0 0 0 0 0 0 0.36 0"/>
<feBlend mode="normal" in2="BackgroundImageFix" result="effect1_dropShadow"/>
<feBlend mode="normal" in="SourceGraphic" in2="effect1_dropShadow" result="shape"/>
</filter>
<filter id="filter23_d" x="294.319" y="131.497" width="10.1523" height="13.3249" filterUnits="userSpaceOnUse" color-interpolation-filters="sRGB">
<feFlood flood-opacity="0" result="BackgroundImageFix"/>
<feColorMatrix in="SourceAlpha" type="matrix" values="0 0 0 0 0 0 0 0 0 0 0 0 0 0 0 0 0 0 127 0"/>
<feOffset dy="0.317259"/>
<feGaussianBlur stdDeviation="0.158629"/>
<feColorMatrix type="matrix" values="0 0 0 0 0 0 0 0 0 0 0 0 0 0 0 0 0 0 0.36 0"/>
<feBlend mode="normal" in2="BackgroundImageFix" result="effect1_dropShadow"/>
<feBlend mode="normal" in="SourceGraphic" in2="effect1_dropShadow" result="shape"/>
</filter>
<filter id="filter24_d" x="305.424" y="131.497" width="10.1523" height="13.3249" filterUnits="userSpaceOnUse" color-interpolation-filters="sRGB">
<feFlood flood-opacity="0" result="BackgroundImageFix"/>
<feColorMatrix in="SourceAlpha" type="matrix" values="0 0 0 0 0 0 0 0 0 0 0 0 0 0 0 0 0 0 127 0"/>
<feOffset dy="0.317259"/>
<feGaussianBlur stdDeviation="0.158629"/>
<feColorMatrix type="matrix" values="0 0 0 0 0 0 0 0 0 0 0 0 0 0 0 0 0 0 0.36 0"/>
<feBlend mode="normal" in2="BackgroundImageFix" result="effect1_dropShadow"/>
<feBlend mode="normal" in="SourceGraphic" in2="effect1_dropShadow" result="shape"/>
</filter>
<filter id="filter25_d" x="317.162" y="131.497" width="10.1523" height="13.3249" filterUnits="userSpaceOnUse" color-interpolation-filters="sRGB">
<feFlood flood-opacity="0" result="BackgroundImageFix"/>
<feColorMatrix in="SourceAlpha" type="matrix" values="0 0 0 0 0 0 0 0 0 0 0 0 0 0 0 0 0 0 127 0"/>
<feOffset dy="0.317259"/>
<feGaussianBlur stdDeviation="0.158629"/>
<feColorMatrix type="matrix" values="0 0 0 0 0 0 0 0 0 0 0 0 0 0 0 0 0 0 0.36 0"/>
<feBlend mode="normal" in2="BackgroundImageFix" result="effect1_dropShadow"/>
<feBlend mode="normal" in="SourceGraphic" in2="effect1_dropShadow" result="shape"/>
</filter>
<filter id="filter26_d" x="328.583" y="131.497" width="10.1523" height="13.3249" filterUnits="userSpaceOnUse" color-interpolation-filters="sRGB">
<feFlood flood-opacity="0" result="BackgroundImageFix"/>
<feColorMatrix in="SourceAlpha" type="matrix" values="0 0 0 0 0 0 0 0 0 0 0 0 0 0 0 0 0 0 127 0"/>
<feOffset dy="0.317259"/>
<feGaussianBlur stdDeviation="0.158629"/>
<feColorMatrix type="matrix" values="0 0 0 0 0 0 0 0 0 0 0 0 0 0 0 0 0 0 0.36 0"/>
<feBlend mode="normal" in2="BackgroundImageFix" result="effect1_dropShadow"/>
<feBlend mode="normal" in="SourceGraphic" in2="effect1_dropShadow" result="shape"/>
</filter>
<filter id="filter27_d" x="340.005" y="131.497" width="10.1523" height="13.3249" filterUnits="userSpaceOnUse" color-interpolation-filters="sRGB">
<feFlood flood-opacity="0" result="BackgroundImageFix"/>
<feColorMatrix in="SourceAlpha" type="matrix" values="0 0 0 0 0 0 0 0 0 0 0 0 0 0 0 0 0 0 127 0"/>
<feOffset dy="0.317259"/>
<feGaussianBlur stdDeviation="0.158629"/>
<feColorMatrix type="matrix" values="0 0 0 0 0 0 0 0 0 0 0 0 0 0 0 0 0 0 0.36 0"/>
<feBlend mode="normal" in2="BackgroundImageFix" result="effect1_dropShadow"/>
<feBlend mode="normal" in="SourceGraphic" in2="effect1_dropShadow" result="shape"/>
</filter>
<filter id="filter28_d" x="351.109" y="131.497" width="10.1523" height="13.3249" filterUnits="userSpaceOnUse" color-interpolation-filters="sRGB">
<feFlood flood-opacity="0" result="BackgroundImageFix"/>
<feColorMatrix in="SourceAlpha" type="matrix" values="0 0 0 0 0 0 0 0 0 0 0 0 0 0 0 0 0 0 127 0"/>
<feOffset dy="0.317259"/>
<feGaussianBlur stdDeviation="0.158629"/>
<feColorMatrix type="matrix" values="0 0 0 0 0 0 0 0 0 0 0 0 0 0 0 0 0 0 0.36 0"/>
<feBlend mode="normal" in2="BackgroundImageFix" result="effect1_dropShadow"/>
<feBlend mode="normal" in="SourceGraphic" in2="effect1_dropShadow" result="shape"/>
</filter>
<filter id="filter29_d" x="248.951" y="117.539" width="10.1523" height="12.6903" filterUnits="userSpaceOnUse" color-interpolation-filters="sRGB">
<feFlood flood-opacity="0" result="BackgroundImageFix"/>
<feColorMatrix in="SourceAlpha" type="matrix" values="0 0 0 0 0 0 0 0 0 0 0 0 0 0 0 0 0 0 127 0"/>
<feOffset dy="0.317259"/>
<feGaussianBlur stdDeviation="0.158629"/>
<feColorMatrix type="matrix" values="0 0 0 0 0 0 0 0 0 0 0 0 0 0 0 0 0 0 0.36 0"/>
<feBlend mode="normal" in2="BackgroundImageFix" result="effect1_dropShadow"/>
<feBlend mode="normal" in="SourceGraphic" in2="effect1_dropShadow" result="shape"/>
</filter>
<filter id="filter30_d" x="260.373" y="117.538" width="10.1523" height="12.6903" filterUnits="userSpaceOnUse" color-interpolation-filters="sRGB">
<feFlood flood-opacity="0" result="BackgroundImageFix"/>
<feColorMatrix in="SourceAlpha" type="matrix" values="0 0 0 0 0 0 0 0 0 0 0 0 0 0 0 0 0 0 127 0"/>
<feOffset dy="0.317259"/>
<feGaussianBlur stdDeviation="0.158629"/>
<feColorMatrix type="matrix" values="0 0 0 0 0 0 0 0 0 0 0 0 0 0 0 0 0 0 0.36 0"/>
<feBlend mode="normal" in2="BackgroundImageFix" result="effect1_dropShadow"/>
<feBlend mode="normal" in="SourceGraphic" in2="effect1_dropShadow" result="shape"/>
</filter>
<filter id="filter31_d" x="271.477" y="117.538" width="10.1523" height="12.6903" filterUnits="userSpaceOnUse" color-interpolation-filters="sRGB">
<feFlood flood-opacity="0" result="BackgroundImageFix"/>
<feColorMatrix in="SourceAlpha" type="matrix" values="0 0 0 0 0 0 0 0 0 0 0 0 0 0 0 0 0 0 127 0"/>
<feOffset dy="0.317259"/>
<feGaussianBlur stdDeviation="0.158629"/>
<feColorMatrix type="matrix" values="0 0 0 0 0 0 0 0 0 0 0 0 0 0 0 0 0 0 0.36 0"/>
<feBlend mode="normal" in2="BackgroundImageFix" result="effect1_dropShadow"/>
<feBlend mode="normal" in="SourceGraphic" in2="effect1_dropShadow" result="shape"/>
</filter>
<filter id="filter32_d" x="282.899" y="117.538" width="10.1523" height="12.6903" filterUnits="userSpaceOnUse" color-interpolation-filters="sRGB">
<feFlood flood-opacity="0" result="BackgroundImageFix"/>
<feColorMatrix in="SourceAlpha" type="matrix" values="0 0 0 0 0 0 0 0 0 0 0 0 0 0 0 0 0 0 127 0"/>
<feOffset dy="0.317259"/>
<feGaussianBlur stdDeviation="0.158629"/>
<feColorMatrix type="matrix" values="0 0 0 0 0 0 0 0 0 0 0 0 0 0 0 0 0 0 0.36 0"/>
<feBlend mode="normal" in2="BackgroundImageFix" result="effect1_dropShadow"/>
<feBlend mode="normal" in="SourceGraphic" in2="effect1_dropShadow" result="shape"/>
</filter>
<filter id="filter33_d" x="294.002" y="117.538" width="10.1523" height="12.6903" filterUnits="userSpaceOnUse" color-interpolation-filters="sRGB">
<feFlood flood-opacity="0" result="BackgroundImageFix"/>
<feColorMatrix in="SourceAlpha" type="matrix" values="0 0 0 0 0 0 0 0 0 0 0 0 0 0 0 0 0 0 127 0"/>
<feOffset dy="0.317259"/>
<feGaussianBlur stdDeviation="0.158629"/>
<feColorMatrix type="matrix" values="0 0 0 0 0 0 0 0 0 0 0 0 0 0 0 0 0 0 0.36 0"/>
<feBlend mode="normal" in2="BackgroundImageFix" result="effect1_dropShadow"/>
<feBlend mode="normal" in="SourceGraphic" in2="effect1_dropShadow" result="shape"/>
</filter>
<filter id="filter34_d" x="305.424" y="117.538" width="10.1523" height="12.6903" filterUnits="userSpaceOnUse" color-interpolation-filters="sRGB">
<feFlood flood-opacity="0" result="BackgroundImageFix"/>
<feColorMatrix in="SourceAlpha" type="matrix" values="0 0 0 0 0 0 0 0 0 0 0 0 0 0 0 0 0 0 127 0"/>
<feOffset dy="0.317259"/>
<feGaussianBlur stdDeviation="0.158629"/>
<feColorMatrix type="matrix" values="0 0 0 0 0 0 0 0 0 0 0 0 0 0 0 0 0 0 0.36 0"/>
<feBlend mode="normal" in2="BackgroundImageFix" result="effect1_dropShadow"/>
<feBlend mode="normal" in="SourceGraphic" in2="effect1_dropShadow" result="shape"/>
</filter>
<filter id="filter35_d" x="316.845" y="117.538" width="10.1523" height="12.6903" filterUnits="userSpaceOnUse" color-interpolation-filters="sRGB">
<feFlood flood-opacity="0" result="BackgroundImageFix"/>
<feColorMatrix in="SourceAlpha" type="matrix" values="0 0 0 0 0 0 0 0 0 0 0 0 0 0 0 0 0 0 127 0"/>
<feOffset dy="0.317259"/>
<feGaussianBlur stdDeviation="0.158629"/>
<feColorMatrix type="matrix" values="0 0 0 0 0 0 0 0 0 0 0 0 0 0 0 0 0 0 0.36 0"/>
<feBlend mode="normal" in2="BackgroundImageFix" result="effect1_dropShadow"/>
<feBlend mode="normal" in="SourceGraphic" in2="effect1_dropShadow" result="shape"/>
</filter>
<filter id="filter36_d" x="328.267" y="117.538" width="10.1523" height="12.6903" filterUnits="userSpaceOnUse" color-interpolation-filters="sRGB">
<feFlood flood-opacity="0" result="BackgroundImageFix"/>
<feColorMatrix in="SourceAlpha" type="matrix" values="0 0 0 0 0 0 0 0 0 0 0 0 0 0 0 0 0 0 127 0"/>
<feOffset dy="0.317259"/>
<feGaussianBlur stdDeviation="0.158629"/>
<feColorMatrix type="matrix" values="0 0 0 0 0 0 0 0 0 0 0 0 0 0 0 0 0 0 0.36 0"/>
<feBlend mode="normal" in2="BackgroundImageFix" result="effect1_dropShadow"/>
<feBlend mode="normal" in="SourceGraphic" in2="effect1_dropShadow" result="shape"/>
</filter>
<filter id="filter37_d" x="339.688" y="117.538" width="10.1523" height="12.6903" filterUnits="userSpaceOnUse" color-interpolation-filters="sRGB">
<feFlood flood-opacity="0" result="BackgroundImageFix"/>
<feColorMatrix in="SourceAlpha" type="matrix" values="0 0 0 0 0 0 0 0 0 0 0 0 0 0 0 0 0 0 127 0"/>
<feOffset dy="0.317259"/>
<feGaussianBlur stdDeviation="0.158629"/>
<feColorMatrix type="matrix" values="0 0 0 0 0 0 0 0 0 0 0 0 0 0 0 0 0 0 0.36 0"/>
<feBlend mode="normal" in2="BackgroundImageFix" result="effect1_dropShadow"/>
<feBlend mode="normal" in="SourceGraphic" in2="effect1_dropShadow" result="shape"/>
</filter>
<filter id="filter38_d" x="351.109" y="117.538" width="10.1523" height="12.6903" filterUnits="userSpaceOnUse" color-interpolation-filters="sRGB">
<feFlood flood-opacity="0" result="BackgroundImageFix"/>
<feColorMatrix in="SourceAlpha" type="matrix" values="0 0 0 0 0 0 0 0 0 0 0 0 0 0 0 0 0 0 127 0"/>
<feOffset dy="0.317259"/>
<feGaussianBlur stdDeviation="0.158629"/>
<feColorMatrix type="matrix" values="0 0 0 0 0 0 0 0 0 0 0 0 0 0 0 0 0 0 0.36 0"/>
<feBlend mode="normal" in2="BackgroundImageFix" result="effect1_dropShadow"/>
<feBlend mode="normal" in="SourceGraphic" in2="effect1_dropShadow" result="shape"/>
</filter>
<filter id="filter39_d" x="248.951" y="175.915" width="16.4975" height="14.5939" filterUnits="userSpaceOnUse" color-interpolation-filters="sRGB">
<feFlood flood-opacity="0" result="BackgroundImageFix"/>
<feColorMatrix in="SourceAlpha" type="matrix" values="0 0 0 0 0 0 0 0 0 0 0 0 0 0 0 0 0 0 127 0"/>
<feOffset dy="0.317259"/>
<feGaussianBlur stdDeviation="0.158629"/>
<feColorMatrix type="matrix" values="0 0 0 0 0 0 0 0 0 0 0 0 0 0 0 0 0 0 0.36 0"/>
<feBlend mode="normal" in2="BackgroundImageFix" result="effect1_dropShadow"/>
<feBlend mode="normal" in="SourceGraphic" in2="effect1_dropShadow" result="shape"/>
</filter>
<filter id="filter40_d" x="266.084" y="175.914" width="10.1523" height="14.5939" filterUnits="userSpaceOnUse" color-interpolation-filters="sRGB">
<feFlood flood-opacity="0" result="BackgroundImageFix"/>
<feColorMatrix in="SourceAlpha" type="matrix" values="0 0 0 0 0 0 0 0 0 0 0 0 0 0 0 0 0 0 127 0"/>
<feOffset dy="0.317259"/>
<feGaussianBlur stdDeviation="0.158629"/>
<feColorMatrix type="matrix" values="0 0 0 0 0 0 0 0 0 0 0 0 0 0 0 0 0 0 0.36 0"/>
<feBlend mode="normal" in2="BackgroundImageFix" result="effect1_dropShadow"/>
<feBlend mode="normal" in="SourceGraphic" in2="effect1_dropShadow" result="shape"/>
</filter>
<filter id="filter41_d" x="334.295" y="175.914" width="10.1523" height="14.5939" filterUnits="userSpaceOnUse" color-interpolation-filters="sRGB">
<feFlood flood-opacity="0" result="BackgroundImageFix"/>
<feColorMatrix in="SourceAlpha" type="matrix" values="0 0 0 0 0 0 0 0 0 0 0 0 0 0 0 0 0 0 127 0"/>
<feOffset dy="0.317259"/>
<feGaussianBlur stdDeviation="0.158629"/>
<feColorMatrix type="matrix" values="0 0 0 0 0 0 0 0 0 0 0 0 0 0 0 0 0 0 0.36 0"/>
<feBlend mode="normal" in2="BackgroundImageFix" result="effect1_dropShadow"/>
<feBlend mode="normal" in="SourceGraphic" in2="effect1_dropShadow" result="shape"/>
</filter>
<filter id="filter42_d" x="276.87" y="175.914" width="56.7893" height="14.5939" filterUnits="userSpaceOnUse" color-interpolation-filters="sRGB">
<feFlood flood-opacity="0" result="BackgroundImageFix"/>
<feColorMatrix in="SourceAlpha" type="matrix" values="0 0 0 0 0 0 0 0 0 0 0 0 0 0 0 0 0 0 127 0"/>
<feOffset dy="0.317259"/>
<feGaussianBlur stdDeviation="0.158629"/>
<feColorMatrix type="matrix" values="0 0 0 0 0 0 0 0 0 0 0 0 0 0 0 0 0 0 0.36 0"/>
<feBlend mode="normal" in2="BackgroundImageFix" result="effect1_dropShadow"/>
<feBlend mode="normal" in="SourceGraphic" in2="effect1_dropShadow" result="shape"/>
</filter>
<filter id="filter43_d" x="345.081" y="175.913" width="16.1802" height="14.5939" filterUnits="userSpaceOnUse" color-interpolation-filters="sRGB">
<feFlood flood-opacity="0" result="BackgroundImageFix"/>
<feColorMatrix in="SourceAlpha" type="matrix" values="0 0 0 0 0 0 0 0 0 0 0 0 0 0 0 0 0 0 127 0"/>
<feOffset dy="0.317259"/>
<feGaussianBlur stdDeviation="0.158629"/>
<feColorMatrix type="matrix" values="0 0 0 0 0 0 0 0 0 0 0 0 0 0 0 0 0 0 0.36 0"/>
<feBlend mode="normal" in2="BackgroundImageFix" result="effect1_dropShadow"/>
<feBlend mode="normal" in="SourceGraphic" in2="effect1_dropShadow" result="shape"/>
</filter>
<linearGradient id="paint0_linear" x1="57.1066" y1="0" x2="57.1066" y2="77.4111" gradientUnits="userSpaceOnUse">
<stop stop-color="white"/>
<stop offset="1" stop-color="white" stop-opacity="0"/>
</linearGradient>
<clipPath id="clip0">
<rect width="114.213" height="77.4111" fill="white" transform="translate(248 115)"/>
</clipPath>
</defs>
</svg>
