<svg width="275" height="211" viewBox="0 0 275 211" fill="none" xmlns="http://www.w3.org/2000/svg">
<g filter="url(#filter0_d)">
<path d="M138.92 208.348C180.849 208.348 214.84 174.468 214.84 132.674C214.84 90.8805 180.849 57 138.92 57C96.9905 57 63 90.8805 63 132.674C63 174.468 96.9905 208.348 138.92 208.348Z" fill="#FEFFD7"/>
</g>
<path d="M175.382 108L125.882 157.5L103 134.617" stroke="#ABCC75" stroke-opacity="0.75" stroke-width="12" stroke-miterlimit="10" stroke-linecap="round" stroke-linejoin="round"/>
<path d="M56.5576 86.9901L55.4603 87.345C55.3676 87.3753 55.2699 87.387 55.1726 87.3794C55.0753 87.3719 54.9805 87.3452 54.8935 87.3009C54.8066 87.2567 54.7292 87.1958 54.666 87.1216C54.6027 87.0475 54.5547 86.9616 54.5247 86.8689L54.1669 85.7727C54.0588 85.4087 53.8157 85.0993 53.4871 84.9076C53.1585 84.7159 52.7693 84.6563 52.3986 84.7409C52.2089 84.7919 52.0317 84.8808 51.8776 85.0021C51.7234 85.1235 51.5956 85.2748 51.5018 85.4469C51.408 85.619 51.3502 85.8083 51.3319 86.0035C51.3135 86.1986 51.3351 86.3955 51.3951 86.5822L51.7783 87.7561C51.8088 87.8485 51.8207 87.9461 51.8132 88.0431C51.8058 88.1401 51.7792 88.2347 51.735 88.3213C51.6908 88.408 51.6298 88.4851 51.5556 88.5481C51.4814 88.6111 51.3954 88.6589 51.3025 88.6886L50.2041 89.0439C49.8394 89.1512 49.5297 89.3932 49.338 89.7206C49.1463 90.0481 49.0871 90.4363 49.1725 90.8062C49.2239 90.9955 49.3133 91.1724 49.4352 91.3264C49.5571 91.4803 49.7089 91.6081 49.8816 91.7019C50.0543 91.7957 50.2442 91.8537 50.4398 91.8723C50.6355 91.8909 50.8328 91.8697 51.0199 91.8101L52.196 91.4297C52.2887 91.3994 52.3865 91.3877 52.4837 91.3952C52.581 91.4028 52.6758 91.4295 52.7628 91.4737C52.8497 91.5179 52.9271 91.5789 52.9904 91.653C53.0537 91.7272 53.1017 91.813 53.1316 91.9057L53.4894 93.002C53.598 93.3654 53.8412 93.6741 54.1695 93.8654C54.4979 94.0567 54.8868 94.1161 55.257 94.0316C55.4465 93.9806 55.6236 93.8919 55.7776 93.7707C55.9317 93.6495 56.0595 93.4985 56.1533 93.3266C56.2471 93.1547 56.3051 92.9656 56.3236 92.7707C56.3422 92.5758 56.3209 92.3791 56.2612 92.1924L55.878 91.0186C55.8475 90.9261 55.8357 90.8286 55.8431 90.7316C55.8505 90.6345 55.8771 90.54 55.9213 90.4533C55.9655 90.3666 56.0265 90.2896 56.1007 90.2265C56.175 90.1635 56.261 90.1158 56.3538 90.0861L57.531 89.7053C57.7174 89.6438 57.8893 89.5453 58.0364 89.4157C58.1835 89.286 58.3026 89.1279 58.3867 88.951C58.4707 88.774 58.5179 88.5819 58.5255 88.3861C58.533 88.1903 58.5006 87.995 58.4304 87.8119C58.2751 87.4682 57.9977 87.194 57.6518 87.0422C57.3059 86.8904 56.9161 86.8718 56.5576 86.9901Z" fill="#FDFF8C"/>
<path d="M4.67116 69.953L4.12312 69.8068C4.07712 69.7947 4.034 69.7736 3.99622 69.7448C3.95844 69.716 3.92676 69.68 3.90301 69.6389C3.87925 69.5978 3.86388 69.5524 3.85778 69.5053C3.85168 69.4582 3.85498 69.4104 3.86748 69.3646L4.01483 68.8177C4.06683 68.6409 4.04967 68.4512 3.96684 68.2867C3.884 68.1223 3.74166 67.9955 3.56855 67.9318C3.47737 67.9026 3.38118 67.8921 3.28577 67.9009C3.19036 67.9098 3.09771 67.9379 3.01341 67.9834C2.92912 68.029 2.85492 68.0911 2.7953 68.166C2.73568 68.2409 2.69187 68.327 2.66651 68.4192L2.50973 69.0011C2.49752 69.047 2.47633 69.0901 2.44739 69.1278C2.41844 69.1655 2.38231 69.1972 2.34108 69.221C2.29984 69.2447 2.25432 69.2601 2.20712 69.2663C2.15992 69.2724 2.11199 69.2692 2.06607 69.2568L1.51803 69.1106C1.34039 69.0589 1.14959 69.0766 0.984375 69.1601C0.819162 69.2436 0.691921 69.3867 0.62849 69.5603C0.599053 69.6513 0.588391 69.7473 0.597148 69.8424C0.605905 69.9376 0.633899 70.03 0.679441 70.114C0.724983 70.198 0.78713 70.272 0.862132 70.3313C0.937134 70.3907 1.02344 70.4343 1.11583 70.4594L1.69895 70.615C1.74494 70.6271 1.78807 70.6482 1.82585 70.677C1.86362 70.7059 1.8953 70.7419 1.91906 70.783C1.94282 70.8241 1.95819 70.8695 1.96429 70.9165C1.97039 70.9636 1.96709 71.0114 1.95459 71.0573L1.80724 71.6042C1.75453 71.7815 1.7715 71.9721 1.85471 72.1372C1.93791 72.3023 2.0811 72.4294 2.25512 72.4928C2.3463 72.522 2.44249 72.5325 2.5379 72.5237C2.63332 72.5148 2.72596 72.4868 2.81026 72.4412C2.89456 72.3957 2.96875 72.3336 3.02837 72.2587C3.088 72.1837 3.13181 72.0976 3.15716 72.0054L3.31453 71.4213C3.32674 71.3754 3.34793 71.3323 3.37688 71.2946C3.40582 71.2569 3.44195 71.2252 3.48318 71.2015C3.52442 71.1777 3.56994 71.1623 3.61714 71.1562C3.66434 71.15 3.71228 71.1532 3.75819 71.1656L4.34131 71.3212C4.43396 71.3454 4.5306 71.3507 4.62539 71.3366C4.72018 71.3225 4.81115 71.2895 4.89283 71.2394C4.9745 71.1893 5.04518 71.1232 5.10061 71.0452C5.15603 70.9671 5.19505 70.8787 5.2153 70.7853C5.24385 70.6039 5.20405 70.4184 5.10356 70.2647C5.00307 70.111 4.84903 70 4.67116 69.953Z" fill="#F98585"/>
<path d="M67.2476 50.3788L66.5352 49.969C66.4748 49.9347 66.4219 49.8887 66.3795 49.8338C66.337 49.7789 66.306 49.7161 66.288 49.6492C66.2701 49.5822 66.2656 49.5123 66.2749 49.4436C66.2841 49.3748 66.307 49.3086 66.3421 49.2486L66.754 48.5377C66.8958 48.3072 66.9442 48.0317 66.8893 47.7671C66.8345 47.5026 66.6805 47.269 66.4588 47.114C66.3413 47.0384 66.2096 46.9874 66.0717 46.964C65.9338 46.9406 65.7925 46.9453 65.6564 46.9778C65.5202 47.0103 65.3921 47.07 65.2796 47.1532C65.1672 47.2364 65.0727 47.3414 65.002 47.4619L64.5605 48.2238C64.526 48.2841 64.4798 48.3369 64.4247 48.3793C64.3696 48.4217 64.3066 48.4527 64.2394 48.4707C64.1722 48.4887 64.1021 48.4933 64.0332 48.4841C63.9643 48.475 63.8978 48.4523 63.8378 48.4174L63.1254 48.0076C62.8953 47.8669 62.62 47.8188 62.3554 47.8729C62.0907 47.927 61.8565 48.0793 61.7 48.2991C61.6241 48.4163 61.5728 48.5476 61.5491 48.685C61.5254 48.8225 61.5299 48.9633 61.5622 49.0989C61.5945 49.2345 61.654 49.3622 61.7371 49.4742C61.8203 49.5862 61.9253 49.6802 62.0459 49.7506L62.8094 50.1898C62.8698 50.2242 62.9227 50.2702 62.9651 50.3251C63.0075 50.38 63.0386 50.4427 63.0566 50.5097C63.0745 50.5767 63.079 50.6465 63.0697 50.7153C63.0604 50.784 63.0376 50.8503 63.0025 50.9102L62.5905 51.6212C62.4476 51.851 62.398 52.1265 62.4517 52.3914C62.5054 52.6562 62.6584 52.8905 62.8795 53.0465C62.997 53.122 63.1286 53.173 63.2664 53.1965C63.4042 53.2199 63.5454 53.2153 63.6815 53.1828C63.8175 53.1504 63.9456 53.0909 64.0581 53.0079C64.1705 52.9248 64.265 52.8199 64.3358 52.6996L64.7773 51.9376C64.8118 51.8774 64.858 51.8246 64.9131 51.7822C64.9682 51.7398 65.0312 51.7087 65.0984 51.6908C65.1656 51.6728 65.2357 51.6682 65.3046 51.6774C65.3735 51.6865 65.4399 51.7092 65.5 51.7441L66.2635 52.1833C66.3855 52.2533 66.5205 52.2978 66.6603 52.3141C66.8002 52.3303 66.9419 52.318 67.0769 52.2778C67.2119 52.2376 67.3373 52.1704 67.4454 52.0803C67.5536 51.9903 67.6422 51.8792 67.7059 51.7539C67.8133 51.5084 67.8258 51.2322 67.7412 50.9784C67.6566 50.7245 67.4808 50.511 67.2476 50.3788Z" fill="#ABCC75"/>
<path d="M210.826 12.2201L209.584 11.6948C209.479 11.6509 209.383 11.5866 209.303 11.5057C209.223 11.4247 209.16 11.3288 209.117 11.2233C209.075 11.1179 209.053 11.005 209.055 10.8913C209.056 10.7775 209.08 10.6651 209.125 10.5605L209.653 9.32148C209.838 8.9185 209.862 8.46072 209.72 8.04131C209.578 7.6219 209.282 7.27238 208.89 7.06389C208.684 6.96503 208.46 6.90875 208.231 6.89841C208.002 6.88808 207.773 6.9239 207.558 7.00375C207.344 7.08359 207.147 7.2058 206.981 7.36308C206.814 7.52036 206.681 7.70947 206.59 7.91909L206.023 9.24886C205.978 9.3538 205.914 9.44899 205.832 9.52895C205.751 9.60891 205.655 9.67206 205.549 9.71476C205.443 9.75745 205.33 9.77885 205.216 9.77772C205.102 9.77659 204.989 9.75295 204.885 9.70816L203.643 9.18333C203.239 8.99971 202.78 8.97668 202.359 9.11894C201.938 9.26119 201.588 9.55803 201.378 9.94899C201.279 10.155 201.222 10.3789 201.211 10.6072C201.2 10.8355 201.236 11.0635 201.316 11.2776C201.395 11.4917 201.518 11.6875 201.675 11.8533C201.832 12.0191 202.022 12.1515 202.232 12.2425L203.564 12.8057C203.669 12.8497 203.765 12.914 203.845 12.9949C203.925 13.0759 203.988 13.1718 204.03 13.2773C204.073 13.3827 204.094 13.4956 204.093 13.6093C204.092 13.7231 204.068 13.8355 204.023 13.9401L203.495 15.1791C203.31 15.5821 203.287 16.0397 203.429 16.4588C203.571 16.8778 203.868 17.2269 204.259 17.4351C204.466 17.534 204.69 17.5903 204.919 17.6006C205.148 17.6109 205.377 17.575 205.592 17.495C205.807 17.4151 206.003 17.2927 206.17 17.1353C206.336 16.9779 206.469 16.7886 206.561 16.5788L207.127 15.2511C207.171 15.1462 207.236 15.051 207.317 14.9711C207.398 14.8911 207.494 14.8279 207.6 14.7852C207.706 14.7425 207.819 14.7211 207.933 14.7223C208.047 14.7234 208.16 14.747 208.265 14.7918L209.594 15.3538C209.805 15.441 210.033 15.4848 210.262 15.4824C210.491 15.48 210.717 15.4316 210.927 15.34C211.137 15.2483 211.327 15.1154 211.484 14.9492C211.642 14.7829 211.764 14.5867 211.844 14.3724C211.971 13.9512 211.938 13.4981 211.75 13.1007C211.562 12.7032 211.233 12.3895 210.826 12.2201Z" fill="#FDFF8C"/>
<path d="M232.308 131.773L231.621 131.577C231.505 131.544 231.407 131.466 231.349 131.361C231.291 131.256 231.277 131.132 231.31 131.017L231.509 130.326C231.58 130.101 231.562 129.857 231.459 129.645C231.356 129.434 231.175 129.269 230.954 129.186C230.839 129.147 230.718 129.132 230.597 129.141C230.476 129.15 230.358 129.183 230.25 129.239C230.142 129.295 230.046 129.372 229.969 129.466C229.892 129.559 229.834 129.667 229.8 129.784L229.588 130.518C229.555 130.634 229.477 130.731 229.372 130.79C229.267 130.848 229.142 130.862 229.027 130.829L228.334 130.632C228.109 130.561 227.864 130.579 227.652 130.683C227.439 130.786 227.274 130.967 227.191 131.188C227.151 131.302 227.136 131.424 227.145 131.544C227.154 131.665 227.187 131.783 227.243 131.89C227.299 131.998 227.376 132.093 227.47 132.17C227.563 132.247 227.672 132.304 227.788 132.338L228.524 132.548C228.64 132.581 228.738 132.659 228.796 132.764C228.854 132.869 228.868 132.993 228.835 133.108L228.638 133.794C228.567 134.018 228.585 134.26 228.686 134.471C228.788 134.682 228.967 134.846 229.186 134.931C229.301 134.97 229.423 134.985 229.544 134.976C229.665 134.967 229.783 134.933 229.891 134.877C229.998 134.821 230.094 134.744 230.171 134.651C230.248 134.557 230.306 134.449 230.34 134.333L230.55 133.604C230.584 133.488 230.661 133.39 230.767 133.332C230.872 133.274 230.996 133.26 231.112 133.293L231.848 133.503C231.965 133.535 232.088 133.544 232.208 133.528C232.328 133.512 232.444 133.472 232.549 133.411C232.653 133.349 232.744 133.267 232.816 133.169C232.888 133.071 232.94 132.96 232.968 132.842C233.009 132.614 232.964 132.379 232.843 132.181C232.721 131.984 232.531 131.839 232.308 131.773Z" fill="#E8EEFF"/>
<path d="M264.689 72.8887L264.155 73.1836C264.11 73.2088 264.06 73.2249 264.009 73.2308C263.958 73.2368 263.906 73.2325 263.856 73.2182C263.806 73.204 263.76 73.1801 263.719 73.1478C263.679 73.1156 263.646 73.0757 263.621 73.0305L263.325 72.4984C263.231 72.321 263.072 72.1857 262.882 72.1198C262.692 72.0539 262.484 72.0622 262.3 72.1432C262.207 72.1888 262.125 72.2527 262.057 72.3311C261.989 72.4095 261.938 72.5007 261.907 72.5992C261.876 72.6978 261.865 72.8017 261.875 72.9046C261.885 73.0076 261.916 73.1075 261.966 73.1983L262.283 73.769C262.309 73.8139 262.325 73.8634 262.331 73.9146C262.337 73.9658 262.333 74.0177 262.319 74.0672C262.304 74.1167 262.28 74.163 262.248 74.2032C262.216 74.2434 262.176 74.2768 262.131 74.3015L261.601 74.5937C261.424 74.687 261.289 74.8438 261.223 75.0326C261.157 75.2214 261.165 75.4283 261.245 75.6117C261.291 75.7045 261.355 75.7872 261.434 75.8546C261.513 75.9221 261.604 75.973 261.703 76.0043C261.802 76.0356 261.906 76.0467 262.009 76.0368C262.112 76.0269 262.213 75.9963 262.304 75.9467L262.875 75.6309C262.92 75.6057 262.97 75.5897 263.021 75.5837C263.073 75.5778 263.125 75.5821 263.174 75.5963C263.224 75.6106 263.271 75.6345 263.311 75.6667C263.351 75.6989 263.385 75.7388 263.41 75.7841L263.706 76.3161C263.8 76.4927 263.957 76.6274 264.146 76.6935C264.335 76.7596 264.542 76.7521 264.726 76.6726C264.819 76.627 264.901 76.5631 264.969 76.4847C265.036 76.4063 265.087 76.3151 265.119 76.2165C265.15 76.1179 265.161 76.0141 265.151 75.9111C265.141 75.8082 265.11 75.7083 265.06 75.6175L264.742 75.0468C264.717 75.0018 264.701 74.9523 264.695 74.9011C264.689 74.8499 264.693 74.7981 264.707 74.7486C264.722 74.699 264.745 74.6528 264.778 74.6126C264.81 74.5724 264.85 74.539 264.895 74.5143L265.467 74.1985C265.557 74.1478 265.637 74.0795 265.7 73.9975C265.763 73.9156 265.809 73.8217 265.834 73.7215C265.86 73.6214 265.865 73.5171 265.85 73.4148C265.834 73.3126 265.798 73.2145 265.743 73.1266C265.628 72.964 265.456 72.8496 265.262 72.8057C265.067 72.7617 264.863 72.7913 264.689 72.8887Z" fill="#E8EEFF"/>
<path d="M85.9931 65.1352L85.5409 65.0313C85.5026 65.0229 85.4665 65.0069 85.4345 64.9844C85.4025 64.9618 85.3753 64.9332 85.3545 64.9001C85.3337 64.867 85.3197 64.8301 85.3133 64.7915C85.3069 64.753 85.3082 64.7135 85.3172 64.6755L85.4216 64.2254C85.4599 64.0784 85.4406 63.9224 85.3676 63.7893C85.2947 63.6562 85.1735 63.5559 85.0289 63.5088C84.9532 63.4873 84.8739 63.4814 84.7958 63.4914C84.7177 63.5013 84.6425 63.527 84.5746 63.5668C84.5067 63.6066 84.4475 63.6597 84.4008 63.7229C84.354 63.7861 84.3205 63.8581 84.3024 63.9346L84.1905 64.4167C84.1819 64.4547 84.1657 64.4907 84.1431 64.5225C84.1204 64.5543 84.0917 64.5813 84.0585 64.602C84.0254 64.6227 83.9884 64.6366 83.9499 64.643C83.9113 64.6494 83.8718 64.6481 83.8338 64.6392L83.3827 64.5356C83.2352 64.4976 83.0787 64.5171 82.9451 64.5903C82.8114 64.6635 82.7108 64.7848 82.6636 64.9294C82.642 65.0049 82.636 65.084 82.6458 65.1619C82.6557 65.2398 82.6814 65.3148 82.7212 65.3825C82.761 65.4502 82.8141 65.5091 82.8775 65.5557C82.9408 65.6023 83.0129 65.6356 83.0895 65.6535L83.5727 65.7645C83.6108 65.7731 83.6468 65.7892 83.6787 65.8117C83.7105 65.8343 83.7376 65.8629 83.7583 65.896C83.779 65.929 83.7929 65.9659 83.7992 66.0043C83.8056 66.0428 83.8042 66.0822 83.7953 66.1201L83.6906 66.5714C83.6523 66.7185 83.6717 66.8746 83.7449 67.0078C83.8181 67.1411 83.9395 67.2413 84.0844 67.2882C84.1601 67.3096 84.2394 67.3156 84.3175 67.3056C84.3956 67.2956 84.4708 67.27 84.5387 67.2302C84.6067 67.1904 84.6658 67.1373 84.7126 67.0741C84.7593 67.0108 84.7928 66.9388 84.8109 66.8624L84.923 66.3792C84.9317 66.3411 84.9478 66.3052 84.9705 66.2734C84.9931 66.2416 85.0219 66.2145 85.055 66.1939C85.0882 66.1732 85.1251 66.1592 85.1637 66.1529C85.2023 66.1465 85.2417 66.1478 85.2798 66.1567L85.7629 66.2676C85.8397 66.2849 85.9192 66.2865 85.9966 66.2722C86.0741 66.2579 86.1478 66.2282 86.2134 66.1847C86.279 66.1412 86.3351 66.0849 86.3783 66.0192C86.4215 65.9536 86.4509 65.8798 86.4648 65.8025C86.4829 65.6527 86.4446 65.5016 86.3575 65.3783C86.2704 65.2551 86.1406 65.1685 85.9931 65.1352Z" fill="#E8EEFF"/>
<path d="M154.678 25.6866L154.289 26.166C154.256 26.2065 154.215 26.2402 154.17 26.2651C154.124 26.2901 154.073 26.3057 154.021 26.3112C153.969 26.3166 153.917 26.3118 153.867 26.297C153.817 26.2821 153.77 26.2576 153.73 26.2247L153.248 25.8361C153.093 25.7041 152.894 25.6361 152.69 25.6458C152.486 25.6556 152.294 25.7423 152.152 25.8885C152.082 25.9665 152.029 26.058 151.995 26.1572C151.961 26.2565 151.948 26.3615 151.956 26.466C151.964 26.5704 151.993 26.6722 152.042 26.7651C152.09 26.858 152.157 26.9401 152.238 27.0065L152.754 27.4222C152.794 27.4549 152.828 27.4952 152.853 27.5409C152.878 27.5866 152.894 27.6368 152.899 27.6885C152.905 27.7403 152.9 27.7926 152.885 27.8425C152.87 27.8924 152.845 27.9389 152.812 27.9793L152.422 28.4595C152.289 28.6142 152.221 28.8134 152.231 29.0164C152.24 29.2195 152.328 29.4111 152.475 29.5522C152.553 29.622 152.645 29.6754 152.744 29.709C152.844 29.7426 152.949 29.7557 153.054 29.7476C153.159 29.7395 153.261 29.7104 153.354 29.6619C153.447 29.6135 153.53 29.5467 153.597 29.4656L154.014 28.9519C154.047 28.9114 154.087 28.8777 154.133 28.8527C154.179 28.8278 154.229 28.8122 154.281 28.8067C154.333 28.8013 154.386 28.8061 154.436 28.8209C154.486 28.8358 154.532 28.8603 154.573 28.8932L155.054 29.2811C155.208 29.4126 155.408 29.4804 155.611 29.4707C155.814 29.461 156.006 29.3745 156.148 29.2289C156.218 29.1508 156.272 29.0594 156.305 28.9601C156.339 28.8609 156.352 28.7558 156.344 28.6514C156.336 28.5469 156.307 28.4451 156.259 28.3522C156.21 28.2593 156.143 28.1772 156.062 28.1108L155.547 27.6958C155.507 27.6632 155.473 27.6229 155.448 27.5772C155.423 27.5315 155.407 27.4813 155.402 27.4295C155.397 27.3778 155.401 27.3254 155.416 27.2755C155.431 27.2256 155.456 27.1792 155.489 27.1388L155.906 26.6251C155.972 26.5432 156.02 26.449 156.049 26.348C156.077 26.247 156.084 26.1414 156.07 26.0376C156.057 25.9337 156.022 25.8337 155.968 25.7437C155.914 25.6536 155.843 25.5753 155.758 25.5135C155.589 25.4044 155.384 25.3617 155.185 25.3937C154.986 25.4256 154.805 25.5299 154.678 25.6866Z" fill="#E8EEFF"/>
<path d="M120.339 2.07319L119.887 1.96932C119.848 1.96084 119.812 1.94488 119.78 1.92235C119.748 1.89982 119.721 1.87118 119.7 1.83808C119.679 1.80499 119.665 1.76809 119.659 1.72954C119.653 1.69098 119.654 1.65153 119.663 1.61347L119.767 1.16334C119.806 1.01636 119.786 0.860424 119.713 0.727291C119.64 0.594158 119.519 0.493844 119.375 0.446781C119.299 0.42531 119.22 0.419378 119.142 0.429344C119.063 0.439311 118.988 0.464969 118.92 0.504768C118.852 0.544566 118.793 0.597678 118.746 0.660893C118.7 0.724109 118.666 0.796113 118.648 0.872555L118.536 1.35468C118.528 1.39271 118.511 1.42867 118.489 1.46047C118.466 1.49227 118.437 1.5193 118.404 1.53998C118.371 1.56067 118.334 1.5746 118.296 1.58099C118.257 1.58738 118.218 1.58609 118.179 1.57719L117.728 1.47358C117.581 1.43556 117.424 1.45514 117.291 1.52832C117.157 1.6015 117.056 1.72276 117.009 1.86735C116.988 1.94289 116.982 2.02199 116.992 2.09988C117.001 2.17777 117.027 2.25283 117.067 2.32052C117.107 2.38821 117.16 2.44713 117.223 2.49371C117.286 2.54029 117.359 2.57357 117.435 2.59153L117.918 2.70252C117.956 2.71112 117.993 2.72716 118.024 2.74973C118.056 2.77229 118.083 2.80092 118.104 2.83398C118.125 2.86703 118.139 2.90386 118.145 2.94232C118.151 2.98079 118.15 3.02014 118.141 3.05811L118.036 3.50934C117.998 3.6565 118.017 3.81262 118.091 3.94584C118.164 4.07905 118.285 4.17931 118.43 4.22616C118.506 4.24763 118.585 4.25356 118.663 4.24359C118.741 4.23363 118.817 4.20797 118.884 4.16817C118.952 4.12837 119.011 4.07526 119.058 4.01204C119.105 3.94883 119.138 3.87682 119.157 3.80038L119.269 3.31716C119.277 3.27912 119.294 3.24317 119.316 3.21136C119.339 3.17956 119.368 3.15254 119.401 3.13185C119.434 3.11117 119.471 3.09723 119.509 3.09084C119.548 3.08446 119.587 3.08575 119.625 3.09464L120.109 3.20562C120.185 3.22289 120.265 3.22444 120.342 3.21019C120.42 3.19593 120.494 3.16617 120.559 3.12269C120.625 3.07921 120.681 3.02293 120.724 2.95723C120.767 2.89154 120.797 2.81781 120.81 2.74049C120.829 2.59066 120.79 2.43954 120.703 2.31631C120.616 2.19307 120.486 2.10646 120.339 2.07319Z" fill="#E8EEFF"/>
<path d="M29.957 60.6313L29.5048 60.5274C29.4665 60.5189 29.4303 60.503 29.3984 60.4805C29.3664 60.4579 29.3392 60.4293 29.3184 60.3962C29.2976 60.3631 29.2835 60.3262 29.2771 60.2876C29.2707 60.2491 29.2721 60.2096 29.281 60.1716L29.3855 59.7214C29.4238 59.5745 29.4045 59.4185 29.3315 59.2854C29.2585 59.1523 29.1374 59.0519 28.9928 59.0049C28.9171 58.9834 28.8378 58.9775 28.7597 58.9874C28.6816 58.9974 28.6063 59.0231 28.5384 59.0629C28.4705 59.1027 28.4114 59.1558 28.3646 59.219C28.3178 59.2822 28.2844 59.3542 28.2663 59.4307L28.1544 59.9128C28.1457 59.9508 28.1296 59.9868 28.1069 60.0186C28.0843 60.0504 28.0555 60.0774 28.0224 60.0981C27.9892 60.1188 27.9523 60.1327 27.9137 60.1391C27.8752 60.1455 27.8357 60.1442 27.7977 60.1353L27.3466 60.0317C27.1991 59.9937 27.0426 60.0132 26.9089 60.0864C26.7753 60.1596 26.6746 60.2809 26.6275 60.4255C26.6059 60.501 26.5998 60.5801 26.6097 60.658C26.6196 60.7359 26.6452 60.8109 26.685 60.8786C26.7248 60.9463 26.778 61.0052 26.8413 61.0518C26.9046 61.0984 26.9768 61.1317 27.0534 61.1496L27.5365 61.2606C27.5747 61.2692 27.6107 61.2853 27.6425 61.3078C27.6744 61.3304 27.7014 61.359 27.7221 61.3921C27.7428 61.4251 27.7567 61.462 27.7631 61.5004C27.7694 61.5389 27.7681 61.5782 27.7591 61.6162L27.6544 62.0674C27.6161 62.2146 27.6356 62.3707 27.7088 62.5039C27.7819 62.6372 27.9034 62.7374 28.0483 62.7843C28.124 62.8057 28.2032 62.8117 28.2813 62.8017C28.3594 62.7917 28.4347 62.7661 28.5026 62.7263C28.5705 62.6865 28.6296 62.6334 28.6764 62.5702C28.7232 62.5069 28.7567 62.4349 28.7748 62.3585L28.8869 61.8753C28.8956 61.8372 28.9117 61.8013 28.9343 61.7695C28.957 61.7377 28.9857 61.7106 29.0189 61.69C29.0521 61.6693 29.089 61.6553 29.1276 61.6489C29.1661 61.6426 29.2056 61.6439 29.2436 61.6527L29.7268 61.7637C29.8036 61.781 29.8831 61.7825 29.9605 61.7683C30.0379 61.754 30.1117 61.7243 30.1773 61.6808C30.2429 61.6373 30.299 61.581 30.3422 61.5153C30.3854 61.4496 30.4148 61.3759 30.4287 61.2986C30.4467 61.1488 30.4085 60.9976 30.3214 60.8744C30.2343 60.7512 30.1044 60.6646 29.957 60.6313Z" fill="#E8EEFF"/>
<path d="M61.5873 29.663L61.0776 29.5459C60.9896 29.5257 60.9134 29.4715 60.8656 29.3951C60.8178 29.3188 60.8023 29.2266 60.8227 29.1388L60.9397 28.6346C60.9816 28.4692 60.9596 28.2941 60.8781 28.1443C60.7966 27.9944 60.6615 27.8807 60.4997 27.8258C60.4142 27.8016 60.3246 27.795 60.2364 27.8062C60.1482 27.8175 60.0632 27.8465 59.9865 27.8914C59.9098 27.9364 59.843 27.9963 59.7902 28.0677C59.7373 28.139 59.6994 28.2203 59.6789 28.3066L59.5524 28.8516C59.5423 28.8951 59.5238 28.9362 59.4978 28.9725C59.4718 29.0088 59.4389 29.0397 59.401 29.0634C59.363 29.087 59.3208 29.103 59.2767 29.1104C59.2326 29.1178 59.1875 29.1164 59.1439 29.1064L58.6387 28.9904C58.4729 28.9487 58.2974 28.9709 58.1471 29.0524C57.9968 29.1339 57.8826 29.2689 57.8273 29.4303C57.803 29.5157 57.7962 29.605 57.8074 29.693C57.8186 29.7809 57.8475 29.8657 57.8925 29.9422C57.9374 30.0186 57.9974 30.0852 58.0689 30.1378C58.1404 30.1905 58.2218 30.2281 58.3083 30.2485L58.8545 30.374C58.898 30.384 58.9392 30.4025 58.9756 30.4283C59.0119 30.4542 59.0428 30.487 59.0665 30.5248C59.0902 30.5626 59.1061 30.6047 59.1135 30.6487C59.1208 30.6927 59.1194 30.7377 59.1094 30.7811L58.9913 31.2897C58.9493 31.4559 58.9718 31.6316 59.0542 31.7818C59.1366 31.932 59.2729 32.0455 59.4358 32.0995C59.5213 32.1237 59.6108 32.1304 59.699 32.1191C59.7872 32.1078 59.8722 32.0789 59.9489 32.0339C60.0256 31.989 60.0924 31.929 60.1453 31.8577C60.1982 31.7863 60.236 31.705 60.2566 31.6187L60.3841 31.0693C60.4044 30.9815 60.4589 30.9054 60.5355 30.8576C60.6121 30.8098 60.7046 30.7943 60.7926 30.8145L61.3387 30.94C61.4255 30.9594 61.5152 30.9611 61.6027 30.9449C61.6901 30.9287 61.7734 30.8951 61.8475 30.846C61.9215 30.7969 61.9849 30.7333 62.0337 30.6591C62.0825 30.5849 62.1158 30.5017 62.1315 30.4144C62.1508 30.2439 62.1057 30.0725 62.0051 29.9336C61.9045 29.7947 61.7555 29.6982 61.5873 29.663Z" fill="#E8EEFF"/>
<path d="M43.1593 138.544C45.6548 138.544 47.6779 136.527 47.6779 134.04C47.6779 131.552 45.6548 129.536 43.1593 129.536C40.6637 129.536 38.6406 131.552 38.6406 134.04C38.6406 136.527 40.6637 138.544 43.1593 138.544Z" fill="white"/>
<path d="M43.161 137.129C44.8728 137.129 46.2605 135.746 46.2605 134.04C46.2605 132.333 44.8728 130.95 43.161 130.95C41.4492 130.95 40.0615 132.333 40.0615 134.04C40.0615 135.746 41.4492 137.129 43.161 137.129Z" stroke="#E8EEFF" stroke-width="4.60572"/>
<path d="M193.644 66.05C194.157 66.05 194.574 65.635 194.574 65.1231C194.574 64.6112 194.157 64.1963 193.644 64.1963C193.13 64.1963 192.714 64.6112 192.714 65.1231C192.714 65.635 193.13 66.05 193.644 66.05Z" stroke="#E8EEFF" stroke-width="1.38172"/>
<path d="M103.263 50.2575C106.009 50.2575 108.234 48.0393 108.234 45.303C108.234 42.5668 106.009 40.3486 103.263 40.3486C100.518 40.3486 98.293 42.5668 98.293 45.303C98.293 48.0393 100.518 50.2575 103.263 50.2575Z" fill="white"/>
<path d="M103.263 49.126C105.381 49.126 107.098 47.4145 107.098 45.3032C107.098 43.192 105.381 41.4805 103.263 41.4805C101.145 41.4805 99.4277 43.192 99.4277 45.3032C99.4277 47.4145 101.145 49.126 103.263 49.126Z" stroke="#F98585" stroke-width="3.68458"/>
<path d="M265.949 107.014C268.694 107.014 270.92 104.796 270.92 102.059C270.92 99.3231 268.694 97.105 265.949 97.105C263.204 97.105 260.979 99.3231 260.979 102.059C260.979 104.796 263.204 107.014 265.949 107.014Z" fill="white"/>
<path d="M265.948 105.882C268.067 105.882 269.784 104.17 269.784 102.059C269.784 99.9478 268.067 98.2363 265.948 98.2363C263.83 98.2363 262.113 99.9478 262.113 102.059C262.113 104.17 263.83 105.882 265.948 105.882Z" stroke="#229FF2" stroke-width="3.68458"/>
<path d="M227.084 164.67C228.831 164.67 230.247 163.259 230.247 161.518C230.247 159.776 228.831 158.365 227.084 158.365C225.337 158.365 223.921 159.776 223.921 161.518C223.921 163.259 225.337 164.67 227.084 164.67Z" fill="#FDFF8C"/>
<path d="M227.085 163.822C228.362 163.822 229.397 162.79 229.397 161.517C229.397 160.245 228.362 159.213 227.085 159.213C225.808 159.213 224.773 160.245 224.773 161.517C224.773 162.79 225.808 163.822 227.085 163.822Z" fill="#FDFF8C" stroke="#FEEB72" stroke-width="2.76343"/>
<path d="M181.894 48.4555C183.64 48.4555 185.057 47.044 185.057 45.3027C185.057 43.5615 183.64 42.1499 181.894 42.1499C180.147 42.1499 178.73 43.5615 178.73 45.3027C178.73 47.044 180.147 48.4555 181.894 48.4555Z" fill="#FDFF8C"/>
<path d="M181.894 47.6071C183.17 47.6071 184.205 46.5756 184.205 45.3031C184.205 44.0306 183.17 42.999 181.894 42.999C180.617 42.999 179.582 44.0306 179.582 45.3031C179.582 46.5756 180.617 47.6071 181.894 47.6071Z" fill="#FDFF8C" stroke="#FEEB72" stroke-width="2.76343"/>
<path d="M263.12 139.591L267.991 133.165L271.157 140.574L263.12 139.591Z" stroke="#F98585" stroke-width="3.68458" stroke-miterlimit="10" stroke-linecap="round"/>
<path d="M223.702 88.0685L228.658 83.9339L229.784 90.2747L223.702 88.0685Z" stroke="#ABCC75" stroke-width="3.22401" stroke-miterlimit="10" stroke-linecap="round"/>
<path d="M212.902 84.3642L213.167 81.3844L215.628 83.0973L212.902 84.3642Z" stroke="#E8EDFC" stroke-width="1.38172" stroke-miterlimit="10" stroke-linecap="round"/>
<defs>
<filter id="filter0_d" x="61" y="51" width="159.84" height="159.348" filterUnits="userSpaceOnUse" color-interpolation-filters="sRGB">
<feFlood flood-opacity="0" result="BackgroundImageFix"/>
<feColorMatrix in="SourceAlpha" type="matrix" values="0 0 0 0 0 0 0 0 0 0 0 0 0 0 0 0 0 0 127 0"/>
<feOffset dx="2" dy="-2"/>
<feGaussianBlur stdDeviation="2"/>
<feColorMatrix type="matrix" values="0 0 0 0 0 0 0 0 0 0 0 0 0 0 0 0 0 0 0.1 0"/>
<feBlend mode="normal" in2="BackgroundImageFix" result="effect1_dropShadow"/>
<feBlend mode="normal" in="SourceGraphic" in2="effect1_dropShadow" result="shape"/>
</filter>
</defs>
</svg>
